<svg width="79" height="78" viewBox="0 0 79 78" fill="none" xmlns="http://www.w3.org/2000/svg">
<path d="M53.6773 35.6966C51.5356 35.7762 49.9044 36.7865 48.6682 38.6437H59.1836C57.7743 36.6252 56.0032 35.6082 53.6773 35.6966Z" fill="white"/>
<path d="M29.7501 40.2112C28.1366 40.1913 26.5209 40.2112 24.9074 40.2112C23.163 40.2112 21.4164 40.2289 19.6719 40.2002C19.1637 40.2002 19.0061 40.3174 19.0061 40.848C19.035 43.2423 19.0283 45.6389 19.0061 48.0333C19.0061 48.5108 19.086 48.7275 19.6431 48.7231C23.0365 48.6965 26.4299 48.7452 29.8211 48.6965C30.3828 48.6936 30.9384 48.5803 31.456 48.3629C31.9736 48.1456 32.443 47.8286 32.8372 47.4301C33.2315 47.0316 33.5429 46.5594 33.7535 46.0407C33.9641 45.522 34.0699 44.967 34.0646 44.4075C34.0468 42.0573 32.187 40.2422 29.7501 40.2112Z" fill="white"/>
<path d="M39.6131 0C31.9314 0 24.4223 2.26913 18.0352 6.52045C11.6481 10.7718 6.67004 16.8143 3.7304 23.884C0.790758 30.9537 0.0216085 38.733 1.52023 46.2381C3.01884 53.7433 6.7179 60.6372 12.1497 66.0481C17.5814 71.459 24.5019 75.1439 32.0359 76.6367C39.57 78.1296 47.3792 77.3634 54.4762 74.4351C61.5731 71.5067 67.6389 66.5477 71.9066 60.1852C76.1743 53.8226 78.4522 46.3423 78.4522 38.6901C78.4522 28.4288 74.3602 18.5879 67.0765 11.3321C59.7927 4.07626 49.9139 0 39.6131 0ZM47.159 24.713C47.159 23.9989 47.5096 23.5965 48.2332 23.5943C51.7842 23.5943 55.3352 23.5943 58.8862 23.5943C59.6052 23.5943 59.9759 23.9746 59.9781 24.6997C59.9781 25.4537 59.9781 26.2076 59.9781 26.9593C59.9959 27.8436 59.5542 28.2018 58.7042 28.1951C56.9953 28.1951 55.2841 28.1951 53.5752 28.1951C51.8663 28.1951 50.2195 28.1951 48.5439 28.1951C47.4342 28.1951 47.1634 27.9077 47.1523 26.7912C47.159 26.0882 47.159 25.4006 47.159 24.713ZM39.5287 47.0427C38.4412 51.1837 35.5982 53.662 31.3681 54.5309C30.6859 54.6477 29.9936 54.6944 29.3018 54.6702C24.4192 54.6702 19.5403 54.6702 14.665 54.6702C13.258 54.6702 12.945 54.3518 12.945 52.9214C12.945 48.1268 12.945 43.3322 12.945 38.5375C12.945 33.712 12.945 28.8849 12.945 24.0564C12.945 22.6525 13.2824 22.3209 14.6872 22.3209C19.0061 22.3209 23.3251 22.3209 27.644 22.3209C34.746 22.3363 39.0138 29.1745 35.8401 35.502C35.576 36.0282 35.7514 36.2051 36.1131 36.5168C39.3911 39.3335 40.6118 42.904 39.5265 47.0405L39.5287 47.0427ZM64.6432 43.8038C59.404 43.8038 54.1633 43.8038 48.9212 43.8038H47.7804C48.6038 48.4267 54.3276 50.7415 57.8386 47.5932C57.9902 47.4691 58.1649 47.3761 58.3526 47.3196C58.5404 47.2631 58.7376 47.2441 58.9328 47.2638C60.5818 47.2638 62.2285 47.2638 63.8775 47.2638C65.096 47.2638 65.2358 47.5181 64.6521 48.5903C62.2907 52.9148 57.4147 55.5369 52.754 54.9864C50.236 54.6957 47.8643 53.656 45.9481 52.0028C44.032 50.3496 42.6604 48.1596 42.0122 45.7184C40.1746 38.7409 44.3159 31.5976 51.1538 29.9815C58.156 28.3234 65.3068 33.3332 66.1413 40.4831C66.2057 41.0358 66.2745 41.5885 66.29 42.1479C66.3166 43.3837 65.8883 43.8016 64.6432 43.8038Z" fill="white"/>
<path d="M19.7407 34.1821C21.1233 34.1512 22.506 34.1711 23.8865 34.1711C25.1715 34.1711 26.4543 34.1711 27.7371 34.1711C29.6258 34.1556 30.8997 33.006 30.933 31.297C30.9663 29.588 29.6635 28.3234 27.7371 28.3012C25.0738 28.2747 22.4106 28.3012 19.7473 28.2858C19.2147 28.2858 18.9905 28.3941 19.0061 28.9822C19.046 30.49 19.0504 31.9978 19.0061 33.5056C18.9728 34.118 19.228 34.1932 19.7407 34.1821Z" fill="white"/>
</svg>
