<svg width="78" height="76" viewBox="0 0 78 76" fill="none" xmlns="http://www.w3.org/2000/svg">
<path d="M29.9714 75.8525V62.6446C27.9791 63.1225 25.8848 62.9669 23.9872 62.2001C22.0896 61.4333 20.4855 60.0943 19.4036 58.3741C18.8108 57.4936 18.2157 56.602 17.4112 55.8734C13.9035 53.278 15.1336 56.8794 14.4004 50.15C23.4796 49.6789 21.9775 60.4499 29.8733 57.7687C29.9624 57.7489 30.0423 57.7007 30.1007 57.6314C30.1592 57.5621 30.1928 57.4758 30.1965 57.3857C30.4327 55.4463 31.5336 53.923 32.6479 52.4173C32.7237 52.3183 32.8374 52.2258 32.7638 52.0277C16.1053 49.5578 11.1712 35.5839 19.4593 22.0898C18.6258 20.6678 18.7105 12.3644 20.5736 12.4217C23.9944 12.5736 26.7355 14.3478 29.5302 15.9856C29.8188 16.1786 30.1468 16.3068 30.491 16.3612C30.8352 16.4155 31.1873 16.3948 31.5225 16.3004C36.7599 14.9295 42.2701 14.9416 47.5013 16.3356C47.7746 16.4183 48.0627 16.4415 48.3459 16.4035C48.6291 16.3655 48.9006 16.2672 49.1415 16.1155C51.2141 14.8959 53.2844 13.6698 55.5865 12.8905C56.5738 12.5559 57.619 12.644 58.6085 12.3754C58.925 12.2896 58.9339 12.5802 58.994 12.7519C59.9791 15.6136 60.3735 18.5149 59.5601 21.4713C59.4327 21.8578 59.4022 22.2691 59.4713 22.6698C59.5404 23.0705 59.707 23.4486 59.9568 23.7716C68.8176 35.6345 60.378 50.7421 46.0884 52.0189C47.9114 54.8278 49.0479 56.3995 48.9365 60.0119C48.8674 65.2664 48.9165 70.5231 48.9165 75.7799C58.1207 73.3896 66.1224 67.7574 71.4145 59.9441C76.7065 52.1308 78.9236 42.6758 77.6481 33.36C76.3726 24.0442 71.6925 15.5106 64.4895 9.36651C57.2864 3.22246 48.0576 -0.10792 38.5412 0.00266822C29.0248 0.113256 19.8779 3.65718 12.8231 9.96692C5.76842 16.2767 1.29294 24.9167 0.239667 34.2596C-0.813604 43.6024 1.62805 53.0033 7.10471 60.6914C12.5814 68.3796 20.715 73.8243 29.9736 76" fill="#F4F4F4"/>
</svg>
