<svg width="77" height="77" viewBox="0 0 77 77" fill="none" xmlns="http://www.w3.org/2000/svg">
<path d="M38.5 0C30.8854 0 23.4419 2.25798 17.1106 6.48842C10.7793 10.7189 5.84463 16.7317 2.93065 23.7667C0.0166812 30.8016 -0.745747 38.5427 0.739784 46.011C2.22531 53.4792 5.89208 60.3393 11.2764 65.7236C16.6607 71.1079 23.5208 74.7747 30.989 76.2602C38.4573 77.7457 46.1984 76.9833 53.2333 74.0693C60.2683 71.1554 66.2812 66.2207 70.5116 59.8894C74.742 53.5582 77 46.1146 77 38.5C77 33.4441 76.0042 28.4377 74.0694 23.7667C72.1346 19.0956 69.2987 14.8514 65.7236 11.2764C62.1486 7.70133 57.9044 4.86544 53.2333 2.93064C48.5623 0.99583 43.5559 0 38.5 0ZM25.9072 59.3626C23.21 59.3274 20.5106 59.334 17.8112 59.3626C17.3096 59.3626 17.1996 59.2174 17.1996 58.7378C17.2143 49.7662 17.2143 40.7953 17.1996 31.8252C17.1996 31.2664 17.3954 31.1784 17.8882 31.1828C20.5634 31.2048 23.2364 31.2114 25.9094 31.1828C26.4946 31.1828 26.6046 31.3632 26.6024 31.9066C26.5804 36.3792 26.6024 40.8518 26.6024 45.3266C26.6024 49.8014 26.5914 54.2212 26.6156 58.6696C26.6046 59.213 26.4792 59.3692 25.9072 59.3626ZM21.78 27.368C18.7748 27.3262 16.6518 25.2824 16.676 22.4576C16.7002 19.5976 18.8914 17.6176 22.022 17.6374C25.0448 17.6572 27.2338 19.7494 27.192 22.5808C27.1502 25.4122 24.8864 27.412 21.78 27.368ZM59.62 59.3604C56.9477 59.3296 54.2733 59.3296 51.5966 59.3604C51.0796 59.3604 50.9366 59.246 50.9366 58.7114C50.9586 53.9616 50.9476 49.2118 50.952 44.462C50.984 43.3616 50.8475 42.2629 50.5472 41.2038C49.577 38.0842 46.1362 36.8852 43.4478 38.764C42.0948 39.71 41.2104 41.008 41.1708 42.6998C41.1048 45.5488 41.1158 48.3978 41.1048 51.249C41.1048 53.7482 41.0894 56.2474 41.1158 58.7466C41.1158 59.246 40.9772 59.3626 40.4976 59.3582C37.8224 59.334 35.1472 59.3296 32.472 59.3582C31.9022 59.3582 31.7306 59.2394 31.7328 58.6366C31.7651 50.3353 31.7805 42.0354 31.779 33.737C31.779 33.0616 31.779 32.3862 31.7482 31.713C31.7306 31.3478 31.801 31.1762 32.2256 31.1784C35.0269 31.196 37.8268 31.196 40.6252 31.1784C41.0542 31.1784 41.1136 31.3654 41.1092 31.7218C41.0938 32.7866 41.1092 33.8536 41.1092 34.9184C42.4292 33.2046 43.9054 31.8384 45.9184 31.1344C52.371 28.8508 58.6498 32.494 59.9456 39.2744C60.1982 40.6531 60.3183 42.0528 60.3042 43.4544C60.3042 48.5298 60.3042 53.6052 60.3196 58.6784C60.3174 59.2306 60.1766 59.367 59.62 59.3604Z" fill="#F4F4F4"/>
</svg>
