<svg id="Camada_1" data-name="Camada 1" xmlns="http://www.w3.org/2000/svg" viewBox="0 0 300 300"><defs><style>.cls-1{fill:#2f80ed;}.cls-2{fill:#fefefe;}.cls-3{fill:#fff;}</style></defs><path class="cls-1" d="M105.56,169.79c-.06,4.07.16,7.71-.89,11.29a22.33,22.33,0,0,1-21,16.06c-1.59,0-3.19,0-4.78,0-2,0-2.93-.91-2.93-2.91,0-6.44,0-12.87,0-19.3A22.21,22.21,0,0,1,92.4,153.45l1.16-.33a12.83,12.83,0,0,1-2.83-7.54,11,11,0,0,1,1.57-6.18,6.24,6.24,0,0,0,.91-3.46c0-19.4,12.66-35.08,31.62-39.26,21.33-4.7,43.42,10.36,46.8,31.91a25.71,25.71,0,0,1,.42,3.36A28.23,28.23,0,0,0,174,141.7c2.44,6.31-1.43,13.35-7.91,15.27a2.42,2.42,0,0,0-2,2.16,31.53,31.53,0,0,1-17.68,22.55,2,2,0,0,0-1.36,2.18c.1,2.09,0,4.19.24,6.37.14-.34.27-.68.43-1a7.13,7.13,0,0,1,6.7-4.4q32.18-.06,64.36,0a7.28,7.28,0,0,1,7.32,7.25q.06,24.62,0,49.23a2.5,2.5,0,0,1-2.76,2.78c-.31,0-.62,0-.92,0H87.06c-3.13,0-3.75-.62-3.75-3.81V206.62c0-4.36,2-6.93,6.14-8.05q14.79-4,29.59-7.89c1-.26,1.43-.59,1.36-1.72-.12-2.05.47-4.29-.18-6.12s-3.22-2-4.84-3.1A35.41,35.41,0,0,1,105.56,169.79Z"/><path class="cls-2" d="M100.55,138.53V152c-2.69-.57-4.84-3.51-4.88-6.63A6.87,6.87,0,0,1,100.55,138.53Z"/><path class="cls-2" d="M219.17,192.9c0-2.31-.84-3.16-3.15-3.16q-31.4,0-62.8,0c-2.4,0-3.21.82-3.21,3.25,0,14.91,0,29.82,0,44.74,0,1.11.21,1.44,1.4,1.44,11.06-.06,22.11,0,33.17,0s22.12,0,33.17,0c1,0,1.49-.08,1.49-1.35C219.15,222.83,219.17,207.87,219.17,192.9ZM160,234.19c-2.56,0-2.56,0-2.56-2.53s0-2.4,2.38-2.4c2.56,0,2.56,0,2.56,2.53S162.36,234.19,160,234.19Zm10,0c-2.64,0-2.64,0-2.64-2.6,0-2.33,0-2.33,2.29-2.33,2.65,0,2.65,0,2.65,2.6C172.24,234.19,172.24,234.19,169.94,234.19Zm9.87,0c-2.63,0-2.63,0-2.63-2.61,0-2.32,0-2.32,2.31-2.32,2.63,0,2.63,0,2.63,2.61C182.12,234.19,182.12,234.19,179.81,234.19Zm4.62-14.82a4.94,4.94,0,1,1,5.09-4.86A5,5,0,0,1,184.43,219.37Zm5,14.82c-2.39,0-2.39,0-2.39-2.38,0-2.55,0-2.55,2.54-2.55s2.4,0,2.4,2.38C192,234.19,192,234.19,189.45,234.19Zm10,0c-2.51,0-2.51,0-2.51-2.58,0-2.35,0-2.35,2.43-2.35s2.51,0,2.51,2.58C201.88,234.19,201.88,234.19,199.45,234.19Zm9.87,0c-2.5,0-2.5,0-2.5-2.43s0-2.5,2.59-2.5c2.35,0,2.35,0,2.35,2.43S211.76,234.19,209.32,234.19Z"/><path class="cls-2" d="M145.09,206.15q-.08-4.93,0-9.87c0-.71-.2-1-.91-1.1a9,9,0,0,1-1.48-.4c-2.11-.59-2.56-1.17-2.56-3.37,0-2.46,0-4.93,0-7.51a31.51,31.51,0,0,1-14.83,0c0,2.67,0,5.24,0,7.81a2.68,2.68,0,0,1-2.26,3c-2.19.54-4.35,1.21-6.55,1.73-.78.18-1.11.42-1.1,1.29q.09,4.16,0,8.33c0,.87.32,1,1.06,1q13.82,0,27.62,0C144.74,207,145.1,207,145.09,206.15Z"/><path class="cls-2" d="M110.48,198.06c-6.88,1.84-13.66,3.64-20.43,5.48a2.46,2.46,0,0,0-1.8,2.71q0,15.9,0,31.8c0,.87.23,1.12,1.11,1.11,3.29-.06,6.58,0,9.88,0h2.7a14.81,14.81,0,0,1,7.49-24.27c.6-.17,1.11-.16,1.1-1.08C110.46,208.59,110.48,203.4,110.48,198.06Z"/><path class="cls-2" d="M144,234.17c-3.75.05-7.51,0-11.26,0s-7.52,0-11.27,0c-.38,0-.9-.31-1.1.45-.69,2.69.64,4.47,3.4,4.47h17.6c3.81,0,3.78,0,3.74-3.85C145.08,234.41,144.86,234.16,144,234.17Z"/><path class="cls-2" d="M169.74,144.56c-.28-2.93-2.39-5.53-4.89-6v13.52A7.25,7.25,0,0,0,169.74,144.56Z"/><path class="cls-2" d="M136.4,179.58a27,27,0,0,0,23.19-23.21c.7-6.1.14-12.23.31-18.35,0-.78-.42-.91-1-1.07q-18.53-5.43-37-10.89a2,2,0,0,0-2,.35q-6.69,4.83-13.43,9.57a2,2,0,0,0-.94,1.89c0,2.73,0,5.46,0,8.84.12,3.19-.31,7.07.45,10.89C108.9,172.12,121.66,181.34,136.4,179.58Zm4.29-32.16a7.44,7.44,0,0,1,7.63-4.58,7.55,7.55,0,0,1,6.56,6.22c.13.79.09,1.29-.93,1.17a14.82,14.82,0,0,0-2,0c-1.06,0-1.92.13-2.43-1.31s-3.14-1.68-3.8-.22a2.4,2.4,0,0,1-2.89,1.53C139.76,150.22,139.63,150,140.69,147.42Zm-16.39,2.81a11.31,11.31,0,0,0-1.54,0c-1.2,0-2.31.29-3-1.44s-3.34-1.35-4,.44a1.36,1.36,0,0,1-1.68,1c-.51,0-1,0-1.54,0-2.31,0-2.4-.14-1.64-2.39a7.43,7.43,0,0,1,14.37,1.25C125.38,149.89,125.29,150.36,124.3,150.23Zm1.25,16.61c-.46-1.8-.46-1.8,1.31-1.8h1.22a2.29,2.29,0,0,1,2.81,1.5c.74,1.59,3.27,1.26,4-.44a1.45,1.45,0,0,1,1.79-1.07c.61.06,1.23,0,1.84,0,1.83,0,1.83,0,1.4,1.72a7.38,7.38,0,0,1-14.34.08Z"/><path class="cls-1" d="M142.94,87a18.07,18.07,0,0,0-3.2-.23,43,43,0,0,0-9.31,1.28c-.44.11-.63.06-.79-.41-1.16-3.39-2.36-6.76-3.55-10.13Q123,68.8,120,60.1c-.26-.72-.48-1.45-.78-2.15A3.47,3.47,0,0,0,116,56a16.69,16.69,0,0,0-5.58.52,61.25,61.25,0,0,0-11.87,4.3,71.13,71.13,0,0,0-14.3,8.61,18.55,18.55,0,0,0-4.56,4.83c-.7,1.19-1.12,2.45-.33,3.76.56.94,1.21,1.82,1.82,2.72L89,92.33c2.62,3.87,5.21,7.76,7.85,11.6.38.56.3.79-.17,1.18a38.56,38.56,0,0,0-6.42,6.6c-1.76,2.38-3.28,4.87-2.57,8.05l.71,1.4a5.55,5.55,0,0,0,3.35,2.22,18.42,18.42,0,0,0,6.57.47,50.76,50.76,0,0,0,10.15-2,86.73,86.73,0,0,0,13.24-5.13c1.78-.85,3.53-1.74,5.24-2.73,1.47-.85,3-1.68,4.4-2.58a68,68,0,0,0,9.65-7.22,28.41,28.41,0,0,0,6.75-8.2,6.39,6.39,0,0,0,.68-5.1l-.65-1.29A7.26,7.26,0,0,0,142.94,87Z"/><path class="cls-3" d="M128.79,93.07c.45,1.27.94,2.62,1.4,4a1.31,1.31,0,0,1-.41,1.43,47.36,47.36,0,0,1-13.69,9.1,50,50,0,0,1-10.22,3,1.45,1.45,0,0,1-1.87-.79l-2.15-3.17A54.22,54.22,0,0,0,128.79,93.07Z"/><path class="cls-3" d="M119.8,83.37,118.26,79,116,72.68c-.33-.92-.66-1.84-1-2.77a1.3,1.3,0,0,1,.78-1.71,1.4,1.4,0,0,1,1.71.93q1.84,5.24,3.7,10.46c.34,1,.7,2,1,3a1.4,1.4,0,0,1-.67,1.83C120.93,84.68,120.27,84.35,119.8,83.37Z"/><path class="cls-3" d="M123.85,87.63a1.31,1.31,0,0,1-2.35,1.14,1.31,1.31,0,1,1,2.35-1.14Z"/></svg>