<svg id="Camada_1" data-name="Camada 1" xmlns="http://www.w3.org/2000/svg" viewBox="0 0 300 300"><defs><style>.cls-1{fill:#fefefe;}.cls-2{fill:#fff;}</style></defs><path d="M112.31,100.44c1-1.43,1.79-2.71,2.68-4,1.32-1.85,3.21-1.85,4.53,0,.88,1.25,1.71,2.53,2.68,4,.71-1.06,1.41-1.94,1.93-2.91,1.67-3.1,4.12-3.42,6,.06.52.93,1.18,1.78,1.9,2.86.93-1.39,1.76-2.66,2.63-3.9,1.36-1.94,3.26-1.94,4.62,0,.86,1.22,1.67,2.46,2.64,3.91.91-1.37,1.77-2.61,2.58-3.88a2.63,2.63,0,0,1,2.79-1.5c1.27.24,1.79,1.17,2.11,2.37,2.93,11,5.92,22.1,8.82,33.16a2.43,2.43,0,0,0,2,2.08,12.23,12.23,0,0,1,.23,23.46,2.44,2.44,0,0,0-2,2.19,31.58,31.58,0,0,1-17.72,22.52,1.87,1.87,0,0,0-1.31,2.06,48.21,48.21,0,0,1,0,5.24c-.06,1,.23,1.44,1.23,1.66,2,.44,4,1,6,1.55.44-.29.23-.75.29-1.11a7.45,7.45,0,0,1,7.47-6.3q32,0,64.06,0a7.31,7.31,0,0,1,7.44,7.43q0,24.47,0,48.93c0,2.09-.94,2.9-3.26,2.9H81.27c-2.83,0-3.54-.71-3.54-3.55v-34c0-4.27,2-6.86,6-8,9.86-2.65,19.72-5.31,29.6-7.89,1.07-.29,1.51-.64,1.44-1.81-.11-1.84-.07-3.7,0-5.55a1.36,1.36,0,0,0-1-1.48c-9.53-4.58-15.59-12-18-22.33A3.1,3.1,0,0,0,93.42,156a12.23,12.23,0,0,1,.68-23.36,2.34,2.34,0,0,0,1.88-2c2.93-11.11,5.92-22.21,8.87-33.32.33-1.27,1-2.16,2.31-2.31a2.41,2.41,0,0,1,2.34,1.21Z"/><path class="cls-1" d="M95,138.38c0-.73-.15-.88-.87-.55a7.51,7.51,0,0,0-4.07,6.88A7.08,7.08,0,0,0,95,151.26C95,146.88,95,142.63,95,138.38Z"/><path class="cls-1" d="M164.18,144.51a7.27,7.27,0,0,0-4.82-6.92v13.65A7.12,7.12,0,0,0,164.18,144.51Z"/><path class="cls-1" d="M100,146.42c.1,3.08-.28,6.74.45,10.36,2.94,14.52,15.67,23.7,30.43,21.95A27,27,0,0,0,154,155.51c.68-5.89.14-11.82.31-17.72,0-.79-.38-.79-.95-.78-1.39,0-2.78.05-4.16,0a5,5,0,0,1-4.77-4.43c-.29-2.39-.93-3-3.37-3q-14,0-28.08,0c-2.19,0-2.92.67-3.16,2.86a5,5,0,0,1-5,4.54,31.94,31.94,0,0,1-3.39,0c-1.14-.09-1.61.16-1.54,1.45C100.05,140.91,100,143.39,100,146.42Zm34.75-1.08a7.45,7.45,0,0,1,7.18-5.85,7.36,7.36,0,0,1,7.22,5.58c.47,1.83.47,1.83-1.43,1.83h-1.33a2,2,0,0,1-2.46-1.37c-.71-1.69-3.33-1.46-4.07.28-.4.92-.84,1.22-1.77,1.1a8.67,8.67,0,0,0-2.16,0C134.45,147.12,134.44,146.44,134.71,145.34Zm-.31,16.72c1.4-.93,3.19-.24,4.79-.29.5,0,.26.58.2.88a6.17,6.17,0,0,1-2.67,3.82C133.1,169,129,169.39,124.79,169a14.46,14.46,0,0,1-6.94-2.3,6.89,6.89,0,0,1-2.84-3.53c-.36-1.08-.28-1.68,1.07-1.45a11.76,11.76,0,0,0,1.49,0c1.13-.22,2.17.49,3.39,1C125.48,164.78,130,165,134.4,162.06ZM105.17,145a7.4,7.4,0,0,1,14.37.28c.3,1.18.22,1.87-1.25,1.63a7.64,7.64,0,0,0-1.07,0c-1.19-.05-2.32.34-3-1.41s-3.36-1.36-4.12.5c-.31.77-.66,1-1.42.92a19,19,0,0,0-2,0C104.67,146.9,104.67,146.9,105.17,145Z"/><path class="cls-1" d="M134.38,192.59a85.88,85.88,0,0,0,.07-9.5,31.74,31.74,0,0,1-14.72,0c0,2.87,0,5.59,0,8.31a7.44,7.44,0,0,0,6.72,7.35A7.2,7.2,0,0,0,134.38,192.59Z"/><path class="cls-1" d="M128.79,203.57a10.35,10.35,0,0,1-4.13-.12V227c0,4.05,0,4,4,3.86.76,0,.92-.27.92-1q0-12.78,0-25.58C129.61,203.76,129.61,203.4,128.79,203.57Z"/><path class="cls-1" d="M145.8,233.32c-3.75.05-7.51,0-11.26,0s-7.52,0-11.27,0c-.38,0-.9-.31-1.09.45-.68,2.72.63,4.47,3.41,4.47h17.6c3.8,0,3.77,0,3.73-3.86C146.91,233.54,146.67,233.31,145.8,233.32Z"/><path class="cls-1" d="M113.54,218.5c-4.93.05-9.87,0-14.81,0-3.81,0-3.78,0-3.73,3.86,0,.87.24,1.12,1.11,1.1,2.93,0,5.86,0,8.79,0h6.18c3.75,0,3.71,0,3.73-3.7C114.82,218.75,114.55,218.49,113.54,218.5Z"/><path class="cls-1" d="M145.86,218.51q-2.7.06-5.4,0c-.68,0-1,.09-1,.89-.18,4.06-.21,4.06,3.84,4.06,3.63,0,3.63,0,3.59-3.66a1.51,1.51,0,0,1,0-.3C147.06,218.63,146.61,218.49,145.86,218.51Z"/><path class="cls-1" d="M221.05,192.05c0-2.32-.85-3.16-3.15-3.16H155.1c-2.4,0-3.21.82-3.21,3.25,0,14.92,0,29.83,0,44.74,0,1.12.21,1.45,1.4,1.44,11.06-.05,22.11,0,33.17,0s22.12,0,33.17,0c1,0,1.49-.08,1.49-1.36C221,222,221.05,207,221.05,192.05Zm-59.19,41.29c-2.56,0-2.56,0-2.56-2.53s0-2.41,2.37-2.41c2.57,0,2.57,0,2.57,2.53S164.24,233.34,161.86,233.34Zm10,0c-2.64,0-2.64,0-2.64-2.6,0-2.34,0-2.34,2.29-2.34,2.65,0,2.65,0,2.65,2.6C174.12,233.34,174.12,233.34,171.82,233.34Zm9.87,0c-2.63,0-2.63,0-2.63-2.62,0-2.32,0-2.32,2.31-2.32,2.63,0,2.63,0,2.63,2.62C184,233.34,184,233.34,181.69,233.34Zm4.62-14.82a4.94,4.94,0,1,1,5.09-4.86A5,5,0,0,1,186.31,218.52Zm5,14.82c-2.39,0-2.39,0-2.39-2.39,0-2.55,0-2.55,2.54-2.55s2.4,0,2.4,2.39C193.88,233.34,193.88,233.34,191.33,233.34Zm10,0c-2.51,0-2.51,0-2.51-2.58,0-2.36,0-2.36,2.42-2.36s2.52,0,2.52,2.58C203.76,233.34,203.76,233.34,201.33,233.34Zm9.87,0c-2.5,0-2.5,0-2.5-2.44s0-2.5,2.59-2.5c2.35,0,2.35,0,2.35,2.44S213.64,233.34,211.2,233.34Z"/><path d="M138.07,87.86a17.18,17.18,0,0,0-3.2-.23,41.85,41.85,0,0,0-9.31,1.28c-.44.1-.63,0-.79-.42-1.16-3.38-2.36-6.75-3.55-10.13q-3.06-8.7-6.14-17.4c-.26-.72-.48-1.45-.78-2.15a3.47,3.47,0,0,0-3.17-2,16.18,16.18,0,0,0-5.58.52,61.88,61.88,0,0,0-11.87,4.29,71.64,71.64,0,0,0-14.3,8.62,18.51,18.51,0,0,0-4.56,4.82c-.71,1.19-1.12,2.46-.33,3.77.56.93,1.21,1.81,1.82,2.72l7.84,11.6c2.62,3.87,5.21,7.75,7.85,11.6.38.55.3.79-.17,1.18a38.86,38.86,0,0,0-6.42,6.59c-1.76,2.39-3.28,4.87-2.57,8l.71,1.41a5.59,5.59,0,0,0,3.35,2.22,18.41,18.41,0,0,0,6.57.46,50.75,50.75,0,0,0,10.15-2,85.75,85.75,0,0,0,13.24-5.14c1.78-.84,3.53-1.74,5.24-2.72,1.47-.85,3-1.68,4.4-2.59a67.88,67.88,0,0,0,9.65-7.21,28.45,28.45,0,0,0,6.75-8.21,6.4,6.4,0,0,0,.68-5.09l-.65-1.29A7.26,7.26,0,0,0,138.07,87.86Z"/><path class="cls-2" d="M123.92,93.92c.45,1.28.94,2.63,1.4,4a1.33,1.33,0,0,1-.41,1.43,47.13,47.13,0,0,1-13.69,9.09,50,50,0,0,1-10.22,3,1.46,1.46,0,0,1-1.87-.79L97,107.5A54.24,54.24,0,0,0,123.92,93.92Z"/><path class="cls-2" d="M114.93,84.22l-1.54-4.34c-.74-2.11-1.48-4.23-2.23-6.34-.32-.92-.65-1.84-1-2.77a1.31,1.31,0,0,1,.78-1.72,1.41,1.41,0,0,1,1.71.94q1.85,5.22,3.7,10.45c.34,1,.7,2,1,3a1.4,1.4,0,0,1-.67,1.83C116.06,85.53,115.4,85.21,114.93,84.22Z"/><path class="cls-2" d="M119,88.48a1.31,1.31,0,1,1-1.74-.6A1.38,1.38,0,0,1,119,88.48Z"/></svg>