<svg id="Camada_1" data-name="Camada 1" xmlns="http://www.w3.org/2000/svg" viewBox="0 0 300 300"><defs><style>.cls-1{fill:#951b81;}.cls-2{fill:#fefefe;}.cls-3{fill:#fff;}</style></defs><path class="cls-1" d="M174.74,183.8h1.88q21.54,0,43.07,0c5.24,0,8.26,3,8.26,8.18q0,23.85,0,47.69c0,2.63-.76,3.4-3.38,3.4H83.17c-2.65,0-3.42-.75-3.42-3.35q0-17.15,0-34.27,0-6.22,6-7.84,14.86-4,29.74-7.93c1-.27,1.4-.63,1.34-1.73-.11-2.06.5-4.32-.18-6.12s-3.3-2.07-5-3.2a32,32,0,0,1-14-21.1,1.53,1.53,0,0,0-1.29-1.38A12.21,12.21,0,0,1,87.16,144c0-5.7-.17-11.4,1.17-17a42.13,42.13,0,0,1,36.34-31.8c22-2.11,41.27,12,45.67,33.73a49.5,49.5,0,0,1,.37,17.79c-.4,2.46-.37,3.68,1.85,5.09,2.5,1.58,3.49,4.38,3.49,7.36a2.13,2.13,0,0,0,1,2,9.71,9.71,0,0,1,0,15.73,1.9,1.9,0,0,0-.95,1.86A10,10,0,0,1,174.74,183.8Z"/><path class="cls-2" d="M148.77,191.23c-2.17-.57-4.33-1.16-6.5-1.71a.89.89,0,0,1-.79-1c.05-2.1,0-4.21,0-6.31,0-.66,1.75-2,2.38-1.91.39.09.33.46.39.74a9.5,9.5,0,0,0,4.56,6.28c.7.41.91.73.54,1.52A13.29,13.29,0,0,0,148.77,191.23Z"/><path class="cls-2" d="M135.62,183.09a30.36,30.36,0,0,1-13.74-.15,1,1,0,0,0-.12.33c0,2.46,0,4.93,0,7.4,0,1.88-.52,2.54-2.37,3.06-1.53.43-3.06.84-4.83,1.32,4.82,2.7,9.39,5.23,13.93,7.81.69.39,1.14.1,1.68-.2l12.49-7c.31-.18.79-.21.85-.73l-4.62-1.26c-1.74-.48-2.29-1.16-2.31-2.93q0-3.41,0-6.79C136.57,183.31,136.65,182.86,135.62,183.09Z"/><path class="cls-2" d="M84.67,237.33c0,.73.29.82.91.82,2.51,0,5,0,7.79,0-3-3.84-4.33-7.91-3.48-12.54a15.19,15.19,0,0,1,7.52-10.45l-12.72-6.35C84.69,218.44,84.69,227.88,84.67,237.33Z"/><path class="cls-2" d="M147.62,233.16c-3.65.08-7.31,0-11,0s-7.52,0-11.27,0c-.38,0-.92-.33-1.18.35a3.25,3.25,0,0,0,3.13,4.57h18.07c3.52,0,3.48,0,3.53-3.6C149,233.48,148.74,233.14,147.62,233.16Z"/><path class="cls-2" d="M96.94,151V137.48a7.17,7.17,0,0,0,0,13.56Z"/><path class="cls-2" d="M161.33,137.53V151a7.05,7.05,0,0,0,4.86-6.94A6.85,6.85,0,0,0,161.33,137.53Z"/><path class="cls-2" d="M155.16,133.27q-12.49-4.1-24.95-8.3a3.12,3.12,0,0,0-2.09,0q-12.54,4.23-25.1,8.38a1.29,1.29,0,0,0-1.06,1.52c.05,3.08,0,6.17,0,9.88.12,3.43-.32,7.51.38,11.54a27.17,27.17,0,0,0,54-4.44c0-5.6,0-11.21,0-16.82A1.5,1.5,0,0,0,155.16,133.27Zm-35.11,15.95H119a2.3,2.3,0,0,1-2.81-1.49c-.72-1.6-3.27-1.28-4,.41a1.46,1.46,0,0,1-1.78,1.09,8.59,8.59,0,0,0-2.15,0c-1.46.21-1.44-.5-1.17-1.58a7.39,7.39,0,0,1,14.4-.25C122,149.22,122,149.22,120.05,149.22Zm16.2,16.88a7.41,7.41,0,0,1-7.1,5.34,7.54,7.54,0,0,1-7.35-6.23c-.17-1,.09-1.31,1.07-1.19a14.26,14.26,0,0,0,1.85,0c1,0,2.07-.25,2.42,1.31.19.85,1.22,1.21,2.16,1.14a2.17,2.17,0,0,0,2.09-1.56c.23-.84.68-1,1.42-.91s1.23,0,1.85,0C136.84,164,136.84,164,136.25,166.1Zm13.57-16.88H148.6a2.29,2.29,0,0,1-2.81-1.51c-.74-1.58-3.28-1.25-4,.44a1.46,1.46,0,0,1-1.79,1.08c-.61-.06-1.24,0-1.85,0-1.83,0-1.83,0-1.4-1.73a7.38,7.38,0,0,1,14.34-.07C151.59,149.22,151.59,149.22,149.82,149.22Z"/><path class="cls-2" d="M223,191.9c0-2.32-.85-3.16-3.15-3.16q-31.4,0-62.8,0c-2.4,0-3.21.81-3.21,3.24,0,14.92,0,29.83,0,44.74,0,1.12.21,1.45,1.4,1.44,11.06,0,22.11,0,33.17,0s22.12,0,33.17,0c1,0,1.49-.08,1.49-1.35C223,221.83,223,206.87,223,191.9Zm-59.19,41.29c-2.56,0-2.56,0-2.56-2.53s0-2.41,2.38-2.41c2.56,0,2.56,0,2.56,2.54S166.2,233.19,163.82,233.19Zm10,0c-2.64,0-2.64,0-2.64-2.6,0-2.34,0-2.34,2.29-2.34,2.65,0,2.65,0,2.65,2.6C176.08,233.19,176.08,233.19,173.78,233.19Zm9.87,0c-2.63,0-2.63,0-2.63-2.62,0-2.32,0-2.32,2.31-2.32,2.63,0,2.63,0,2.63,2.62C186,233.19,186,233.19,183.65,233.19Zm4.62-14.82a4.94,4.94,0,1,1,5.09-4.86A5,5,0,0,1,188.27,218.37Zm5,14.82c-2.39,0-2.39,0-2.39-2.39,0-2.55,0-2.55,2.54-2.55s2.4,0,2.4,2.39C195.84,233.19,195.84,233.19,193.29,233.19Zm10,0c-2.51,0-2.51,0-2.51-2.58,0-2.36,0-2.36,2.43-2.36s2.51,0,2.51,2.58C205.72,233.19,205.72,233.19,203.29,233.19Zm9.87,0c-2.5,0-2.5,0-2.5-2.44s0-2.5,2.59-2.5c2.35,0,2.35,0,2.35,2.44S215.6,233.19,213.16,233.19Z"/><path class="cls-1" d="M136.05,88a18.87,18.87,0,0,0-3.19-.23,42.37,42.37,0,0,0-9.31,1.29c-.44.1-.64,0-.8-.42-1.16-3.38-2.35-6.76-3.54-10.13l-6.15-17.4c-.25-.72-.48-1.46-.78-2.16a3.45,3.45,0,0,0-3.16-2,16.16,16.16,0,0,0-5.58.52,61.07,61.07,0,0,0-11.88,4.29,71.1,71.1,0,0,0-14.29,8.62,18.19,18.19,0,0,0-4.56,4.82c-.71,1.19-1.13,2.46-.34,3.77.56.93,1.21,1.81,1.82,2.71l7.85,11.61c2.61,3.86,5.2,7.75,7.85,11.6.38.55.29.78-.18,1.18a38.87,38.87,0,0,0-6.42,6.59c-1.76,2.38-3.27,4.87-2.56,8.05l.7,1.4a5.53,5.53,0,0,0,3.36,2.22,18.39,18.39,0,0,0,6.57.47,50.88,50.88,0,0,0,10.15-2,86.78,86.78,0,0,0,13.24-5.14c1.77-.84,3.52-1.74,5.23-2.72,1.48-.85,3-1.68,4.4-2.59a68,68,0,0,0,9.66-7.21A28.25,28.25,0,0,0,140.88,97a6.39,6.39,0,0,0,.69-5.1l-.65-1.28A7.29,7.29,0,0,0,136.05,88Z"/><path class="cls-3" d="M121.9,94.07c.45,1.28.94,2.63,1.4,4a1.28,1.28,0,0,1-.41,1.42,46.78,46.78,0,0,1-13.68,9.1,50,50,0,0,1-10.22,3,1.46,1.46,0,0,1-1.87-.79L95,107.64A54.1,54.1,0,0,0,121.9,94.07Z"/><path class="cls-3" d="M112.91,84.37c-.47-1.35-1-2.85-1.53-4.34-.75-2.11-1.49-4.23-2.23-6.34-.32-.93-.66-1.85-1-2.78A1.31,1.31,0,0,1,109,69.2a1.41,1.41,0,0,1,1.72.94l3.69,10.45c.35,1,.7,2,1,3a1.39,1.39,0,0,1-.67,1.84C114.05,85.68,113.38,85.36,112.91,84.37Z"/><path class="cls-3" d="M117,88.63a1.31,1.31,0,1,1-1.74-.6A1.38,1.38,0,0,1,117,88.63Z"/></svg>