<svg id="Camada_1" data-name="Camada 1" xmlns="http://www.w3.org/2000/svg" viewBox="0 0 300 300"><defs><style>.cls-1{fill:#e6332a;}.cls-2{fill:#fefefe;}.cls-3{fill:#fff;}</style></defs><path class="cls-1" d="M152,245.1H81.48c-2.92,0-3.6-.68-3.6-3.64v-33.8c0-4.37,1.9-6.92,6.12-8,1-.27,1.32-.7,1.32-1.77,0-19.6-.18-39.2,0-58.8.16-16.15,7.35-28.56,21.32-36.67,25.07-14.56,57.51,1.06,62,29.69a49.5,49.5,0,0,1,.58,7.69c0,14.86,0,29.73,0,44.6,0,1.22.32,1.49,1.51,1.49q23.53-.06,47.07,0c5.24,0,8.26,3,8.26,8.19V241.7c0,2.63-.77,3.4-3.38,3.4Z"/><path class="cls-2" d="M119.69,195.62c2.32,3.26,4.68,6.5,7,9.79.66,1,.92.5,1.35-.12q2.88-4.08,5.8-8.15c.8-1.12,2-2.12.94-3.73-.19-.3,0-.8,0-1.22v-7.27A31.66,31.66,0,0,1,120,185c0,.28-.06.43-.08.58-.31,3.08.65,6.24-.55,9.28C119.25,195,119.52,195.38,119.69,195.62Z"/><path class="cls-2" d="M146,235.2c-3.71.05-7.41,0-11.12,0s-7.61,0-11.42,0c-.37,0-.9-.31-1.09.44-.7,2.7.63,4.48,3.4,4.48h17.6c3.81,0,3.78,0,3.73-3.85C147.05,235.44,146.83,235.19,146,235.2Z"/><path class="cls-2" d="M123,210.23c.61-.35.6-.63.21-1.17q-4.23-5.87-8.41-11.77c-.41-.57-.77-.58-1.41-.43-3.41.84-3.45.82-3.41,4.24,0,1.47-.65,3.42.29,4.26s2.73.2,4.16.22c2,0,2.92.91,3,2.9,0,1.59,0,3.18,0,5.07C119.42,212.35,121.2,211.26,123,210.23Z"/><path class="cls-2" d="M140.86,196.74a.89.89,0,0,0-1,.43q-4.29,6-8.6,12c-.32.44-.3.68.17.95,1.85,1.08,3.69,2.18,5.74,3.39,0-1.82,0-3.36,0-4.9,0-2.14.87-3,3-3,1.43,0,3.36.5,4.17-.22s.26-2.8.28-4.27C144.6,197.33,144.57,197.35,140.86,196.74Z"/><path class="cls-2" d="M90.24,146.66a6.94,6.94,0,0,0,4.89,6.39c0-.26,0-.5,0-.74V139.44A7.17,7.17,0,0,0,90.24,146.66Z"/><path class="cls-2" d="M164.3,145.57c-.28-2.94-2.42-5.57-4.91-6v13.55A7.31,7.31,0,0,0,164.3,145.57Z"/><path class="cls-2" d="M154.47,138.85c0-.86-.51-1-1.07-1.21l-26.86-11.07c-1.38-.57-3.27-.78-4-1.81s-.22-2.87-.23-4.36c0-3.82,0-3.77-3.82-3.77-1,0-1.17.36-1.14,1.23.06,1.85,0,3.7,0,5.56,0,.43.13.92-.62,1a12.09,12.09,0,0,0-4.32,1.37v-5.28c0-3.94,0-3.9-3.9-3.85-.94,0-1.07.34-1.06,1.15,0,3.71,0,7.41,0,11.11a2.51,2.51,0,0,1-.84,2c-1.92,1.86-3.77,3.79-5.7,5.64a2.62,2.62,0,0,0-.91,2.13c0,4.48,0,9,0,13.42a32.49,32.49,0,0,0,.47,6.61c3,14.52,15.65,23.64,30.46,21.9,11.71-1.38,21.8-11.42,23.12-23.1C154.85,151.3,154.28,145.07,154.47,138.85Zm-35.65,12.4a18.39,18.39,0,0,0-1.86,0,2.19,2.19,0,0,1-2.65-1.47c-.7-1.6-3.3-1.32-4,.37-.42,1.07-1,1.17-1.92,1.11-.41,0-.82,0-1.23,0-2.43,0-2.54-.15-1.74-2.43a7.43,7.43,0,0,1,14.37,1.33C120,151,119.72,151.36,118.82,151.25Zm15.63,16.54a7.35,7.35,0,0,1-7.14,5.68,7.46,7.46,0,0,1-7.25-5.76c-.29-1.14-.3-1.9,1.22-1.66a6.48,6.48,0,0,0,1.08,0c1.19,0,2.31-.31,3,1.39s3.33,1.43,4-.33a1.47,1.47,0,0,1,1.8-1.07c.61.06,1.23,0,1.85,0C134.89,166.06,134.89,166.06,134.45,167.79Zm13.38-16.55h-1.15a2.25,2.25,0,0,1-2.74-1.48c-.7-1.6-3.3-1.3-4,.39-.42,1.08-1,1.14-1.93,1.1a11.88,11.88,0,0,0-2.15,0c-1.06.12-1.32-.25-1.12-1.28a7.54,7.54,0,0,1,7-6.14,7.35,7.35,0,0,1,7.52,5.57C149.73,151.24,149.73,151.24,147.83,151.24Z"/><path class="cls-2" d="M221.13,193.93c0-2.32-.84-3.17-3.15-3.17H155.19c-2.41,0-3.22.82-3.22,3.25q0,22.37,0,44.74c0,1.12.22,1.45,1.41,1.44,11.05-.05,22.11,0,33.17,0s22.11,0,33.17,0c1,0,1.49-.08,1.48-1.36C221.11,223.86,221.14,208.89,221.13,193.93Zm-59.19,41.29c-2.56,0-2.56,0-2.56-2.53s0-2.41,2.38-2.41c2.56,0,2.56,0,2.56,2.53S164.32,235.22,161.94,235.22Zm10,0c-2.65,0-2.65,0-2.65-2.6,0-2.34,0-2.34,2.29-2.34,2.65,0,2.65,0,2.65,2.6C174.2,235.22,174.2,235.22,171.91,235.22Zm9.86,0c-2.63,0-2.63,0-2.63-2.62,0-2.32,0-2.32,2.31-2.32,2.63,0,2.63,0,2.63,2.62C184.08,235.22,184.08,235.22,181.77,235.22Zm4.62-14.83a4.94,4.94,0,1,1,5.1-4.85A5,5,0,0,1,186.39,220.39Zm5,14.83c-2.4,0-2.4,0-2.4-2.39,0-2.55,0-2.55,2.55-2.55,2.39,0,2.39,0,2.39,2.39C194,235.22,194,235.22,191.42,235.22Zm10,0c-2.52,0-2.52,0-2.52-2.58,0-2.36,0-2.36,2.43-2.36s2.51,0,2.51,2.58C203.84,235.22,203.84,235.22,201.42,235.22Zm9.87,0c-2.51,0-2.51,0-2.51-2.44s0-2.5,2.6-2.5c2.34,0,2.34,0,2.34,2.44S213.72,235.22,211.29,235.22Z"/><path class="cls-1" d="M137.92,86a17.9,17.9,0,0,0-3.19-.24A42.37,42.37,0,0,0,125.42,87c-.44.1-.64,0-.8-.42-1.16-3.38-2.35-6.76-3.54-10.13q-3.06-8.7-6.14-17.4c-.26-.72-.49-1.45-.79-2.15A3.46,3.46,0,0,0,111,55a16.16,16.16,0,0,0-5.58.52,61.55,61.55,0,0,0-11.88,4.29A71.1,71.1,0,0,0,79.24,68.4a18.19,18.19,0,0,0-4.56,4.82c-.71,1.19-1.13,2.46-.34,3.77.56.93,1.22,1.81,1.83,2.72L84,91.31c2.61,3.87,5.2,7.75,7.85,11.6.38.55.29.78-.18,1.18a38.44,38.44,0,0,0-6.41,6.59c-1.76,2.38-3.28,4.87-2.57,8l.71,1.41a5.54,5.54,0,0,0,3.35,2.21,18.4,18.4,0,0,0,6.57.47,50.88,50.88,0,0,0,10.15-2,85.75,85.75,0,0,0,13.24-5.14c1.77-.84,3.52-1.74,5.23-2.72,1.48-.85,3-1.68,4.41-2.59a68.45,68.45,0,0,0,9.65-7.21A28.45,28.45,0,0,0,142.76,95a6.42,6.42,0,0,0,.68-5.1l-.65-1.28A7.26,7.26,0,0,0,137.92,86Z"/><path class="cls-3" d="M123.78,92c.45,1.28.94,2.63,1.4,4a1.3,1.3,0,0,1-.42,1.42,46.78,46.78,0,0,1-13.68,9.1,50,50,0,0,1-10.22,3,1.46,1.46,0,0,1-1.87-.79l-2.15-3.17A54.28,54.28,0,0,0,123.78,92Z"/><path class="cls-3" d="M114.78,82.34c-.47-1.35-1-2.84-1.53-4.34-.75-2.11-1.49-4.23-2.23-6.34-.32-.92-.66-1.84-1-2.78a1.3,1.3,0,0,1,.78-1.71,1.42,1.42,0,0,1,1.71.94l3.69,10.45c.35,1,.71,2,1,3a1.39,1.39,0,0,1-.66,1.83C115.92,83.65,115.25,83.33,114.78,82.34Z"/><path class="cls-3" d="M118.84,86.6a1.31,1.31,0,1,1-1.74-.6A1.39,1.39,0,0,1,118.84,86.6Z"/></svg>