<svg id="Camada_1" data-name="Camada 1" xmlns="http://www.w3.org/2000/svg" viewBox="0 0 300 300"><defs><style>.cls-1{fill:#24b821;}.cls-2{fill:#fdfdfd;}.cls-3{fill:#fefefe;}.cls-4{fill:#fff;}</style></defs><path class="cls-1" d="M177,182.73h27.54c5.14,0,10.29,0,15.43,0a7.4,7.4,0,0,1,7.78,7.74q0,24.24,0,48.47c0,2.2-.88,3.06-3.1,3.06H85.13c-2.21,0-3.07-.87-3.07-3.08q0-17.44,0-34.89a7.35,7.35,0,0,1,5.74-7.43c10-2.67,19.92-5.35,29.89-8,1.08-.29,1.51-.64,1.44-1.81-.11-1.84,0-3.7,0-5.55,0-.79-1.64-2.24-2.36-2.09-.4.08-.33.45-.41.73-2,7-8.87,9.82-15,6.06a1.14,1.14,0,0,0-1.47,0,9.86,9.86,0,0,1-15.29-8.5,1.71,1.71,0,0,0-.8-1.62,9.67,9.67,0,0,1,.08-16,1.73,1.73,0,0,0,.71-1.68,9.79,9.79,0,0,1,5.15-8.87c.38-.22,1.17-.16,1-.94a1.83,1.83,0,0,0-1.14-1.31,12.28,12.28,0,0,1-2.77-20.9,1.63,1.63,0,0,0,.7-2,12.22,12.22,0,0,1,8.28-15,2.17,2.17,0,0,0,1.7-1.62,12.22,12.22,0,0,1,15-8.38,1.5,1.5,0,0,0,1.9-.62,12.08,12.08,0,0,1,16.15-2.88,1.44,1.44,0,0,0,1.86,0,12.07,12.07,0,0,1,16.25,3,1.32,1.32,0,0,0,1.65.56,12.22,12.22,0,0,1,15.25,8.46,1.86,1.86,0,0,0,1.49,1.43,12.24,12.24,0,0,1,8.4,15.16,1.4,1.4,0,0,0,.62,1.77,12.26,12.26,0,0,1-2.36,20.9c-.48.23-1.05.33-1.28,1s-.32.85.35,1.2a9.72,9.72,0,0,1,5.6,9.5c0,.65.32.88.74,1.2,5.69,4.24,5.67,11.77,0,16.1-.44.33-.74.59-.69,1.22A10.17,10.17,0,0,1,177,182.73Z"/><path class="cls-2" d="M143.81,184.27c0-1.07,0-2.15,0-3.23a1,1,0,0,1,.62-1.08c1.79-1,1.8-1,2.42.93a9.3,9.3,0,0,0,2.75,4.2c.53.46.67.77.21,1.36a2.43,2.43,0,0,0-.57,1.24c-.15,1.77-.95,1.87-2.48,1.37-2.91-.95-2.94-.85-2.94-3.86Z"/><path class="cls-3" d="M147.65,232.11c-3.71,0-7.41,0-11.12,0s-7.61,0-11.42,0c-.38,0-.9-.3-1.08.46-.66,2.75.63,4.46,3.42,4.46h17.6c3.8,0,3.77,0,3.72-3.88C148.76,232.3,148.5,232.1,147.65,232.11Z"/><path class="cls-3" d="M124.19,189.7c2.35,4.18,4.76,8.34,7.27,12.72l7.27-12.71a1.34,1.34,0,0,0,.13-.59c0-2.41,0-4.81,0-7.29a31.46,31.46,0,0,1-14.82,0c0,2,0,3.79,0,5.58A4.76,4.76,0,0,0,124.19,189.7Z"/><path class="cls-3" d="M119.59,193.2c-5.48,1.49-11,3-16.84,4.52l23.68,5.89c-2-3.56-3.85-6.7-5.63-9.87A.91.91,0,0,0,119.59,193.2Z"/><path class="cls-3" d="M148.75,195.41c.07-.56-.2-.81-.74-.95-1.54-.38-3.07-.82-4.61-1.24-.52-.14-.91-.17-1.25.45-1.79,3.22-3.65,6.4-5.67,9.93,2.81-.69,5.28-1.29,7.75-1.92,1.48-.37,3.58-.35,4.26-1.31s.23-3.06.26-4.65A1.61,1.61,0,0,1,148.75,195.41Z"/><path class="cls-3" d="M94.4,143.46c0,2.56,2.23,6.15,4.88,6.46V136.45A7,7,0,0,0,94.4,143.46Z"/><path class="cls-3" d="M163.57,136.44V150A7,7,0,0,0,168.5,143,6.89,6.89,0,0,0,163.57,136.44Z"/><path class="cls-3" d="M157.38,132.28q-17.12-5.3-34.2-10.71a2.44,2.44,0,0,0-2.28.26q-7.82,4.94-15.68,9.78a1.71,1.71,0,0,0-1,1.7c.06,3.14,0,6.28,0,10.07.14,3.51-.33,7.69.38,11.82a27.17,27.17,0,0,0,54-4.43c0-5.61,0-11.21,0-16.82C158.66,132.94,158.34,132.58,157.38,132.28ZM123,148.16a11.29,11.29,0,0,0-1.54,0c-1.21,0-2.29.24-3-1.45s-3.35-1.33-4,.46c-.37,1-.89,1-1.68,1-.52,0-1,0-1.55,0-2.29,0-2.35-.08-1.66-2.26A7.43,7.43,0,0,1,124,147C124.12,147.86,124,148.29,123,148.16Zm15.67,16.37a7.39,7.39,0,0,1-14.39.25c-.48-1.81-.48-1.81,1.44-1.81h1.08a2.29,2.29,0,0,1,2.8,1.48c.72,1.6,3.26,1.28,4-.4a1.48,1.48,0,0,1,1.78-1.1,8.59,8.59,0,0,0,2.15,0C139,162.74,139,163.45,138.69,164.53Zm14-16.37a11.29,11.29,0,0,0-1.54,0c-1.22,0-2.27.2-3-1.45s-3.36-1.29-4.11.6a1.1,1.1,0,0,1-1.3.86,22,22,0,0,0-2.93,0c-1,.09-1-.39-.87-1.09a7.44,7.44,0,0,1,14.71-.05C153.77,147.89,153.6,148.28,152.65,148.16Z"/><path class="cls-3" d="M222.84,190.83c0-2.32-.84-3.16-3.14-3.16H156.9c-2.41,0-3.22.82-3.22,3.25q0,22.37,0,44.74c0,1.11.22,1.44,1.41,1.43,11.05-.05,22.11,0,33.17,0s22.11,0,33.17,0c1,0,1.49-.08,1.48-1.35C222.82,220.76,222.85,205.8,222.84,190.83Zm-59.19,41.29c-2.56,0-2.56,0-2.56-2.53s0-2.41,2.38-2.41c2.56,0,2.56,0,2.56,2.54S166,232.12,163.65,232.12Zm10,0c-2.65,0-2.65,0-2.65-2.6,0-2.34,0-2.34,2.3-2.34,2.64,0,2.64,0,2.64,2.6C175.91,232.12,175.91,232.12,173.62,232.12Zm9.86,0c-2.63,0-2.63,0-2.63-2.62,0-2.32,0-2.32,2.31-2.32,2.63,0,2.63,0,2.63,2.62C185.79,232.12,185.79,232.12,183.48,232.12Zm4.63-14.82a4.94,4.94,0,1,1,5.09-4.86A5,5,0,0,1,188.11,217.3Zm5,14.82c-2.4,0-2.4,0-2.4-2.39,0-2.55,0-2.55,2.55-2.55,2.39,0,2.39,0,2.39,2.39C195.67,232.12,195.67,232.12,193.13,232.12Zm10,0c-2.52,0-2.52,0-2.52-2.58,0-2.36,0-2.36,2.43-2.36s2.51,0,2.51,2.59C205.55,232.12,205.55,232.12,203.13,232.12Zm9.87,0c-2.51,0-2.51,0-2.51-2.43s0-2.51,2.6-2.51c2.34,0,2.34,0,2.34,2.44S215.43,232.12,213,232.12Z"/><path class="cls-1" d="M136.22,89.07a19.07,19.07,0,0,0-3.2-.23,42.37,42.37,0,0,0-9.31,1.29c-.44.1-.63.05-.8-.42-1.16-3.38-2.35-6.76-3.54-10.13q-3.06-8.7-6.14-17.4c-.26-.72-.48-1.46-.78-2.16a3.49,3.49,0,0,0-3.17-2,16.41,16.41,0,0,0-5.58.53,61.55,61.55,0,0,0-11.88,4.29A71.38,71.38,0,0,0,77.53,71.5,18.19,18.19,0,0,0,73,76.32a3.47,3.47,0,0,0-.34,3.77c.56.93,1.22,1.81,1.83,2.71L82.3,94.4c2.62,3.87,5.2,7.76,7.85,11.61.38.55.29.78-.17,1.18a38.13,38.13,0,0,0-6.42,6.59c-1.76,2.38-3.28,4.87-2.57,8l.71,1.4a5.51,5.51,0,0,0,3.35,2.22,18.4,18.4,0,0,0,6.57.47,50.9,50.9,0,0,0,10.15-2A85.71,85.71,0,0,0,115,118.81c1.78-.84,3.53-1.74,5.23-2.72,1.48-.85,3-1.68,4.41-2.59a67.88,67.88,0,0,0,9.65-7.21,28.58,28.58,0,0,0,6.75-8.21,6.43,6.43,0,0,0,.68-5.1l-.65-1.29A7.3,7.3,0,0,0,136.22,89.07Z"/><path class="cls-4" d="M122.07,95.14c.45,1.27.94,2.63,1.4,4a1.3,1.3,0,0,1-.42,1.42,46.78,46.78,0,0,1-13.68,9.1,50.64,50.64,0,0,1-10.22,3,1.46,1.46,0,0,1-1.87-.79c-.73-1.08-1.47-2.16-2.15-3.18A54.18,54.18,0,0,0,122.07,95.14Z"/><path class="cls-4" d="M113.07,85.44c-.47-1.35-1-2.85-1.53-4.34q-1.12-3.18-2.23-6.34c-.32-.93-.66-1.85-1-2.78a1.3,1.3,0,0,1,.78-1.71,1.4,1.4,0,0,1,1.71.93l3.69,10.46c.35,1,.71,2,1,3a1.41,1.41,0,0,1-.67,1.84C114.21,86.75,113.55,86.43,113.07,85.44Z"/><path class="cls-4" d="M117.13,89.7a1.31,1.31,0,1,1-1.74-.61A1.38,1.38,0,0,1,117.13,89.7Z"/></svg>