<svg width="50" height="50" viewBox="0 0 50 50" fill="none" xmlns="http://www.w3.org/2000/svg">
<path d="M23.2054 32.3852C23.4473 30.6854 24.3714 29.8858 26.0481 29.8858C33.0339 29.8858 40.0163 29.8858 47.0022 29.8858C48.7998 29.8858 49.7978 30.8802 49.8012 32.6674C49.8012 37.992 49.8012 43.3133 49.8012 48.6379C49.8012 49.555 49.5525 49.8002 48.6318 49.8002C32.8121 49.8002 16.9958 49.8002 1.17606 49.8002C0.252013 49.8002 0 49.555 0 48.6446C0 44.825 0 41.0054 0 37.1858C0 35.7647 0.66195 34.8879 2.04298 34.5151C5.35612 33.6248 8.66926 32.7379 11.9858 31.8679C12.3487 31.7738 12.483 31.6361 12.4595 31.2531C12.4226 30.6686 12.4293 30.0773 12.4595 29.4894C12.4763 29.1703 12.3755 29.009 12.0798 28.8646C8.76669 27.2588 6.74388 24.6452 6.02144 21.0339C5.97104 20.7752 5.86352 20.6812 5.60814 20.6072C3.73989 20.0798 2.51678 18.5211 2.49325 16.6835C2.46973 14.7754 3.59875 13.2368 5.49725 12.6287C5.76271 12.5447 5.82318 12.4272 5.82318 12.1651C5.80974 10.6265 5.81311 9.08795 5.81647 7.54936C5.83327 3.31991 9.11617 0.0243555 13.3365 0.00755859C15.5139 -0.00251953 17.6947 -0.00251953 19.8721 0.00755859C24.0723 0.0243555 27.3686 3.30647 27.3921 7.49561C27.4022 9.0342 27.4022 10.5728 27.3888 12.1114C27.3854 12.4036 27.4459 12.5515 27.7618 12.6489C29.5931 13.22 30.7422 14.8157 30.712 16.6936C30.6851 18.5144 29.4654 20.0765 27.6408 20.5938C27.3821 20.6677 27.2409 20.7483 27.1838 21.0406C26.4748 24.6116 24.4688 27.2051 21.2161 28.8276C20.8835 28.9922 20.7189 29.1535 20.7457 29.5499C20.7861 30.1344 20.776 30.7257 20.7491 31.3102C20.7357 31.6159 20.823 31.7671 21.1321 31.8376C21.8143 32.0056 22.493 32.1971 23.2054 32.3852Z" fill="#DBEE06"/>
<path d="M16.6128 36.5206C17.4595 36.5206 18.3063 36.5508 19.153 36.5139C20.5576 36.4501 21.5623 35.758 22.1402 34.4747C22.4023 33.8902 22.3889 33.8835 21.7908 33.729C21.5085 33.655 21.2162 33.6047 20.9407 33.5039C20.655 33.3997 20.5038 33.4266 20.3224 33.7189C19.8654 34.4579 19.1598 34.8443 18.2895 34.8577C17.1504 34.8779 16.0079 34.8711 14.8688 34.8577C14.2237 34.8476 13.5449 34.6696 13.2257 34.1254C12.7317 33.2956 12.1437 33.4703 11.4717 33.7155C11.3742 33.7525 11.2734 33.7928 11.1726 33.7995C10.8702 33.823 10.8702 33.9608 10.9475 34.2161C11.3541 35.5229 12.6108 36.487 14.0153 36.5172C14.8856 36.534 15.7492 36.5206 16.6128 36.5206Z" fill="#FEFEFE"/>
<path d="M14.9427 33.1982C16.0482 33.215 17.1503 33.2116 18.2558 33.1982C18.7128 33.1915 19.0455 32.9294 19.0656 32.486C19.1093 31.5286 19.0791 30.5711 19.0791 29.5835C17.4091 29.9833 15.7861 29.9765 14.1094 29.5869C14.1094 30.5577 14.0959 31.4715 14.1161 32.3852C14.1262 32.869 14.4521 33.1881 14.9427 33.1982Z" fill="#FEFEFE"/>
<path d="M22.8727 46.4744C21.6295 46.4912 20.3828 46.4811 19.1396 46.4811C17.8593 46.4811 16.5791 46.4778 15.3023 46.4879C15.1746 46.4879 14.9998 46.3871 14.9393 46.6424C14.7142 47.5595 15.1511 48.1407 16.0885 48.144C18.061 48.144 20.03 48.144 22.0025 48.144C23.2793 48.144 23.2692 48.144 23.2524 46.8439C23.2423 46.5416 23.1584 46.4711 22.8727 46.4744Z" fill="#DCE01F"/>
<path d="M4.1532 16.5827C4.14312 17.6308 4.72779 18.4908 5.80977 18.9208C5.80977 18.1146 5.80977 17.3621 5.80977 16.6096C5.80977 15.847 5.80977 15.0878 5.80977 14.2983C4.76811 14.7048 4.16328 15.5648 4.1532 16.5827Z" fill="#FEFEFE"/>
<path d="M27.4089 14.342C27.4089 15.8537 27.4089 17.3587 27.4089 18.9007C28.4808 18.5076 29.0958 17.5804 29.0454 16.4886C28.9983 15.4842 28.3128 14.5772 27.4089 14.342Z" fill="#FEFEFE"/>
<path d="M25.7355 14.258C25.7456 13.9557 25.5205 13.9893 25.3659 13.9389C23.9278 13.4719 23.0004 12.5044 22.5635 11.0666C22.3955 10.5123 22.409 9.94123 22.4123 9.37014C22.4123 8.59412 22.1301 8.31528 21.3505 8.31193C19.778 8.30857 18.2054 8.31193 16.6328 8.31193C15.2148 8.31193 13.8002 8.31193 12.3822 8.31193C10.8869 8.31193 10.8096 8.3892 10.7962 9.88412C10.7794 11.8158 9.67389 13.3476 7.83923 13.9221C7.52337 14.0229 7.46626 14.1707 7.46962 14.4629C7.48306 16.0351 7.47971 17.6073 7.47635 19.1795C7.47635 19.717 7.52674 20.2511 7.63426 20.7752C8.62888 25.6564 12.8896 28.7168 17.8694 28.1322C21.8008 27.6686 25.1912 24.2925 25.6347 20.3687C25.8565 18.3363 25.6751 16.2938 25.7355 14.258ZM12.2848 16.9959C12.0831 16.4651 11.1759 16.4383 10.981 16.9657C10.7592 17.5569 10.3695 17.4225 9.96959 17.436C9.0153 17.436 8.95146 17.3352 9.33788 16.445C9.7747 15.4372 10.86 14.819 11.9353 14.9601C13.0206 15.1046 13.9044 15.9679 14.0858 17.0497C14.1295 17.315 14.1127 17.4797 13.7733 17.4427C13.5515 17.4158 13.3264 17.4326 13.1013 17.4393C12.7417 17.4494 12.4628 17.4729 12.2848 16.9959ZM20.7121 22.7471C20.5575 23.4123 20.1173 23.8591 19.5495 24.195C18.7766 24.6553 17.7484 24.9039 16.3808 24.9072C15.5206 24.8871 14.4554 24.7191 13.5112 24.1043C13.0173 23.7852 12.6477 23.372 12.4931 22.7875C12.4326 22.5523 12.4158 22.3911 12.7485 22.4112C13.108 22.4347 13.4743 22.4146 13.8372 22.4179C13.9548 22.4179 14.0556 22.428 14.1698 22.5086C15.5508 23.5097 17.6039 23.4761 19.0589 22.5221C19.5226 22.2197 20.1308 22.4347 20.6718 22.4414C20.8162 22.4448 20.7356 22.643 20.7121 22.7471ZM23.7295 17.4427C23.5615 17.4192 23.3834 17.4393 23.212 17.4393C22.8122 17.4259 22.4358 17.5368 22.204 16.959C21.9789 16.3946 21.0817 16.5054 20.8499 17.1034C20.7255 17.4259 20.5575 17.4595 20.2853 17.4427C20.114 17.4326 19.9392 17.4393 19.7679 17.4393C18.9917 17.4393 18.9614 17.3923 19.2168 16.6365C19.5763 15.5715 20.6583 14.8661 21.7941 14.9568C22.913 15.0475 23.8572 15.9343 24.0454 17.0564C24.0924 17.3251 24.0622 17.4864 23.7295 17.4427Z" fill="#FEFEFE"/>
<path d="M48.1479 32.5968C48.1479 31.8175 47.8656 31.5353 47.0894 31.5319C40.0566 31.5319 33.0238 31.5319 25.9876 31.5319C25.1778 31.5319 24.9056 31.8074 24.9056 32.6237C24.9056 37.6325 24.9089 42.6447 24.8955 47.6535C24.8955 48.0298 24.9661 48.1407 25.3659 48.1373C29.0823 48.1205 32.7953 48.1272 36.5116 48.1272C40.228 48.1272 43.941 48.1239 47.6573 48.134C48.0068 48.134 48.158 48.1071 48.1546 47.6771C48.1412 42.6514 48.1479 37.6225 48.1479 32.5968ZM28.259 46.4677C27.3988 46.4677 27.3988 46.4677 27.3988 45.6178C27.3988 44.8082 27.3988 44.8082 28.1986 44.8082C29.0588 44.8082 29.0588 44.8082 29.0588 45.6581C29.0588 46.4677 29.0588 46.4677 28.259 46.4677ZM31.6058 46.4677C30.7153 46.4677 30.7153 46.4677 30.7153 45.5942C30.7153 44.8082 30.7153 44.8082 31.4848 44.8082C32.3752 44.8082 32.3753 44.8082 32.3753 45.6816C32.3786 46.4677 32.3786 46.4677 31.6058 46.4677ZM34.9223 46.4677C34.0385 46.4677 34.0385 46.4677 34.0385 45.5875C34.0385 44.8082 34.0385 44.8082 34.8147 44.8082C35.6985 44.8082 35.6985 44.8082 35.6985 45.6883C35.6985 46.4677 35.6985 46.4677 34.9223 46.4677ZM36.4747 41.4857C35.5809 41.4589 34.8551 40.6963 34.8685 39.7993C34.8819 38.8789 35.6548 38.1432 36.5788 38.17C37.4726 38.1969 38.1984 38.9561 38.185 39.8531C38.1715 40.7702 37.392 41.5126 36.4747 41.4857ZM38.1615 46.4677C37.355 46.4677 37.355 46.4677 37.355 45.6648C37.355 44.8082 37.355 44.8082 38.2085 44.8082C39.015 44.8082 39.015 44.8082 39.015 45.6111C39.0183 46.4677 39.0183 46.4677 38.1615 46.4677ZM41.5217 46.4677C40.6783 46.4677 40.6783 46.4677 40.6783 45.601C40.6783 44.8082 40.6783 44.8082 41.4948 44.8082C42.3382 44.8082 42.3382 44.8082 42.3382 45.6749C42.3382 46.4677 42.3382 46.4677 41.5217 46.4677ZM44.8381 46.4677C43.9981 46.4677 43.9981 46.4677 43.9981 45.648C43.9981 44.8082 43.9981 44.8082 44.8684 44.8082C45.658 44.8082 45.658 44.8082 45.658 45.6279C45.658 46.4677 45.658 46.4677 44.8381 46.4677Z" fill="#FEFEFE"/>
</svg>
