<svg width="50" height="50" viewBox="0 0 50 50" fill="none" xmlns="http://www.w3.org/2000/svg">
<path d="M9.96707 24.8534C9.95027 26.2207 10.0208 27.4468 9.66801 28.6461C8.74396 31.7905 5.87438 33.9976 2.59821 34.0413C2.06394 34.048 1.52631 34.048 0.992041 34.0413C0.316645 34.0346 0.00750121 33.7356 0.00750121 33.0603C0.00414104 30.9003 -0.00929639 28.7402 0.0108647 26.5801C0.0411063 23.1468 2.24203 20.2947 5.54844 19.3642C5.66269 19.3339 5.77357 19.3004 5.93822 19.2533C5.36699 18.4874 5.00745 17.6643 4.98729 16.7204C4.97049 15.9779 5.12506 15.2691 5.51484 14.6409C5.74333 14.2714 5.82398 13.9086 5.82398 13.4786C5.82398 6.96137 10.078 1.69387 16.4489 0.289649C23.6161 -1.28926 31.0387 3.76996 32.1745 11.0094C32.235 11.3857 32.3089 11.7619 32.319 12.1382C32.3425 13.2703 32.5542 14.3285 32.9742 15.4136C33.7941 17.5333 32.4903 19.895 30.3129 20.54C29.8963 20.6643 29.7384 20.8255 29.6376 21.2656C28.8714 24.7325 26.8923 27.2721 23.6967 28.841C23.3507 29.0123 23.2196 29.187 23.2398 29.5733C23.2767 30.2754 23.2498 30.9809 23.3204 31.7132C23.3675 31.599 23.4111 31.4848 23.4649 31.3739C23.9219 30.4367 24.6678 29.8958 25.7129 29.8958C32.9204 29.8824 40.1314 29.8857 47.339 29.8958C48.6965 29.8992 49.7919 30.9775 49.7952 32.328C49.8087 37.8407 49.8053 43.3535 49.802 48.8662C49.802 49.4776 49.4828 49.78 48.8746 49.8001C48.7704 49.8035 48.6662 49.8001 48.5621 49.8001C33.6261 49.8001 18.6867 49.8001 3.75074 49.8001C2.69901 49.8001 2.49404 49.5918 2.49404 48.5202C2.49404 44.751 2.49404 40.9851 2.49404 37.2159C2.49404 35.7512 3.14591 34.8878 4.55718 34.5116C7.87032 33.6214 11.1835 32.7345 14.4999 31.861C14.8292 31.7737 14.9805 31.6628 14.9569 31.2832C14.9166 30.5946 15.1149 29.8421 14.8965 29.2273C14.678 28.6125 13.8145 28.5554 13.2701 28.1859C11.9832 27.3225 10.8978 26.261 9.96707 24.8534Z" fill="#2F80ED"/>
<path d="M8.28367 14.352C8.28367 15.8637 8.28367 17.3687 8.28367 18.8771C7.38315 18.6856 6.66072 17.6979 6.64727 16.6498C6.63047 15.5681 7.31594 14.5972 8.28367 14.352Z" fill="#FEFEFE"/>
<path d="M48.1421 32.6203C48.1421 31.8409 47.8598 31.5587 47.0836 31.5554C40.0508 31.5554 33.0179 31.5554 25.9817 31.5554C25.1719 31.5554 24.8997 31.8308 24.8997 32.6471C24.8997 37.656 24.9031 42.6682 24.8896 47.677C24.8896 48.0532 24.9602 48.1641 25.3601 48.1607C29.0764 48.1439 32.7894 48.1507 36.5058 48.1507C40.2221 48.1507 43.9351 48.1473 47.6515 48.1574C48.0009 48.1574 48.1521 48.1305 48.1488 47.7005C48.1353 42.6715 48.1421 37.6459 48.1421 32.6203ZM28.2532 46.4911C27.393 46.4911 27.393 46.4911 27.393 45.6412C27.393 44.8316 27.393 44.8316 28.1927 44.8316C29.0529 44.8316 29.0529 44.8316 29.0529 45.6815C29.0529 46.4911 29.0529 46.4911 28.2532 46.4911ZM31.6033 46.4911C30.7128 46.4911 30.7128 46.4911 30.7128 45.6177C30.7128 44.8316 30.7128 44.8316 31.4823 44.8316C32.3728 44.8316 32.3728 44.8316 32.3728 45.705C32.3728 46.4911 32.3728 46.4911 31.6033 46.4911ZM34.9164 46.4911C34.0327 46.4911 34.0327 46.4911 34.0327 45.611C34.0327 44.8316 34.0327 44.8316 34.8089 44.8316C35.6926 44.8316 35.6926 44.8316 35.6926 45.7117C35.6926 46.4911 35.6926 46.4911 34.9164 46.4911ZM36.4688 41.5092C35.575 41.4823 34.8492 40.7197 34.8626 39.8228C34.8761 38.9023 35.6489 38.1666 36.573 38.1935C37.4668 38.2203 38.1926 38.9796 38.1791 39.8765C38.1657 40.7936 37.3895 41.536 36.4688 41.5092ZM38.159 46.4911C37.3525 46.4911 37.3525 46.4911 37.3525 45.6882C37.3525 44.8316 37.3525 44.8316 38.206 44.8316C39.0125 44.8316 39.0125 44.8316 39.0125 45.6345C39.0125 46.4911 39.0125 46.4911 38.159 46.4911ZM41.5158 46.4911C40.6724 46.4911 40.6724 46.4911 40.6724 45.6244C40.6724 44.8316 40.6724 44.8316 41.4889 44.8316C42.3323 44.8316 42.3323 44.8316 42.3323 45.6983C42.3323 46.4911 42.3323 46.4911 41.5158 46.4911ZM44.8323 46.4911C43.9922 46.4911 43.9922 46.4911 43.9922 45.6714C43.9922 44.8316 43.9922 44.8316 44.8625 44.8316C45.6522 44.8316 45.6522 44.8316 45.6522 45.6513C45.6522 46.4911 45.6522 46.4911 44.8323 46.4911Z" fill="#FEFEFE"/>
<path d="M23.2499 37.0714C23.2331 35.9662 23.2364 34.861 23.2499 33.7557C23.2532 33.5172 23.1793 33.4164 22.9441 33.3862C22.7761 33.3661 22.6114 33.2955 22.4468 33.2485C21.7378 33.0503 21.5866 32.8554 21.5832 32.1164C21.5832 31.29 21.5832 30.4602 21.5832 29.5935C19.9132 29.9966 18.2734 29.9865 16.6034 29.6002C16.6034 30.4972 16.5933 31.3605 16.6068 32.2239C16.6135 32.7681 16.385 33.0973 15.844 33.2317C15.1081 33.4131 14.3823 33.6348 13.6431 33.8095C13.381 33.87 13.2668 33.9506 13.2735 34.2428C13.2936 35.1768 13.2936 36.1073 13.2735 37.0412C13.2668 37.3368 13.381 37.3704 13.6297 37.3704C16.7244 37.3637 19.8157 37.3637 22.9105 37.3704C23.1356 37.3671 23.2532 37.3469 23.2499 37.0714Z" fill="#FEFEFE"/>
<path d="M11.6237 34.3504C9.31187 34.9685 7.03367 35.5732 4.75883 36.1913C4.31528 36.3122 4.154 36.6549 4.154 37.105C4.15736 40.666 4.16072 44.2269 4.15063 47.7879C4.15063 48.0801 4.22792 48.1641 4.52026 48.1574C5.62576 48.1406 6.73462 48.1507 7.84011 48.1507C8.11901 48.1507 8.40126 48.1507 8.75072 48.1507C7.95772 47.2033 7.54105 46.2157 7.48729 45.0936C7.37304 42.6715 8.89184 40.6324 11.2675 39.9941C11.4691 39.9404 11.6405 39.9437 11.6371 39.6347C11.6136 37.8878 11.6237 36.1443 11.6237 34.3504Z" fill="#FEFEFE"/>
<path d="M22.8803 46.4844C21.6169 46.5012 20.3568 46.4911 19.0934 46.4911C17.83 46.4911 16.5699 46.4878 15.3065 46.4979C15.1788 46.4979 15.004 46.3937 14.9402 46.649C14.7083 47.5527 15.1519 48.154 16.0827 48.154C18.0551 48.154 20.0241 48.154 21.9966 48.154C23.2768 48.154 23.2667 48.154 23.2533 46.8573C23.2466 46.5617 23.1726 46.4777 22.8803 46.4844Z" fill="#FEFEFE"/>
<path d="M31.5327 16.3811C31.4386 15.3934 30.7296 14.52 29.8895 14.3654C29.8895 15.8671 29.8895 17.3687 29.8895 18.9107C30.9984 18.4941 31.6368 17.4829 31.5327 16.3811Z" fill="#FEFEFE"/>
<path d="M20.3332 28.1422C24.3083 27.6686 27.6719 24.3226 28.1255 20.3451C28.3573 18.2959 28.1725 16.2366 28.2297 14.1807C28.2364 13.9186 28.0885 13.875 27.897 13.8178C23.7472 12.6017 19.594 11.389 15.4475 10.1595C15.1787 10.0789 15.004 10.1225 14.7889 10.2771C13.2903 11.3588 11.7883 12.4338 10.2762 13.492C10.0309 13.6633 9.95364 13.8447 9.96036 14.1269C9.97716 15.044 9.96708 15.9578 9.96708 17.0966C10.0074 18.1682 9.85955 19.4717 10.1183 20.755C11.0894 25.6395 15.377 28.7335 20.3332 28.1422ZM21.7714 17.3385C22.1914 16.3139 23.2364 15.6857 24.3352 15.7999C25.4373 15.9141 26.3513 16.7875 26.5395 17.8894C26.5832 18.1548 26.5697 18.3228 26.2303 18.2825C26.0086 18.2556 25.7834 18.2724 25.5583 18.2791C25.2021 18.2858 24.9132 18.3228 24.7384 17.839C24.5536 17.325 23.6833 17.2746 23.4616 17.7651C23.2062 18.3328 22.8265 18.306 22.4905 18.2757C21.4589 18.2791 21.4152 18.2119 21.7714 17.3385ZM16.264 18.2825C16.096 18.2589 15.918 18.2791 15.7466 18.2791C15.3434 18.2657 14.9704 18.3765 14.7385 17.7953C14.5134 17.231 13.6162 17.3418 13.3844 17.9398C13.2601 18.2623 13.0887 18.2959 12.8199 18.2791C12.6485 18.269 12.4738 18.2757 12.3024 18.2757C11.5262 18.2757 11.496 18.2287 11.7513 17.4728C12.1109 16.4079 13.1929 15.7025 14.3286 15.7932C15.4475 15.8839 16.3917 16.7707 16.5799 17.8928C16.6269 18.1682 16.5967 18.3261 16.264 18.2825ZM16.6841 23.8624C16.5295 23.2577 16.5295 23.2577 17.1243 23.2577C17.2284 23.2577 17.3326 23.2577 17.5342 23.2577C17.887 23.2039 18.2264 23.2241 18.4784 23.7616C18.7271 24.2957 19.5772 24.1849 19.8124 23.6138C19.9468 23.2879 20.1148 23.2207 20.4139 23.2543C20.6188 23.2745 20.8272 23.2577 21.0355 23.2577C21.6504 23.2577 21.6504 23.2577 21.5059 23.8389C21.2203 24.971 20.2526 25.7436 19.1068 25.747C17.9609 25.7503 16.9764 24.9844 16.6841 23.8624Z" fill="#FEFEFE"/>
</svg>
