<svg width="50" height="50" viewBox="0 0 50 50" fill="none" xmlns="http://www.w3.org/2000/svg">
<path d="M13.2794 3.81709C13.2794 2.84623 13.2895 1.92912 13.2761 1.01537C13.2693 0.578649 13.3869 0.232624 13.8238 0.0612961C14.2438 -0.103313 14.5529 0.0848195 14.8385 0.373726C15.3358 0.877632 15.8499 1.3681 16.3338 1.88545C16.5321 2.09709 16.653 2.11724 16.8614 1.89216C17.3318 1.38825 17.8358 0.911217 18.3197 0.417389C18.6288 0.101608 18.9514 -0.126823 19.4151 0.0780992C19.8486 0.269584 19.9292 0.63239 19.9225 1.05903C19.9124 1.95598 19.9191 2.8563 19.9191 3.79021C20.6281 3.64239 21.2699 3.34005 21.9789 3.28966C24.9157 3.0713 27.3585 5.28513 27.3854 8.22794C27.3989 9.54145 27.3989 10.855 27.3821 12.1685C27.3787 12.444 27.4694 12.5447 27.7181 12.6254C29.5931 13.2334 30.7389 14.8056 30.7053 16.6969C30.675 18.5345 29.4553 20.0664 27.5702 20.6005C27.2981 20.6778 27.2275 20.8021 27.1805 21.0473C26.458 24.615 24.4554 27.2118 21.196 28.8243C20.8499 28.9956 20.7155 29.1703 20.739 29.5566C20.776 30.158 20.7693 30.766 20.7424 31.3707C20.7289 31.6562 20.8398 31.757 21.0918 31.8208C21.7941 31.9922 22.4897 32.1803 23.2087 32.3684C23.3465 31.0952 23.9715 30.2319 25.2416 29.9262C25.4735 29.869 25.7221 29.8724 25.9607 29.8724C32.9969 29.869 40.0365 29.869 47.0727 29.8724C48.7864 29.8724 49.7978 30.8937 49.7978 32.6204C49.7978 37.9618 49.7978 43.3032 49.7978 48.6446C49.7978 49.5281 49.5391 49.7868 48.6587 49.7868C32.8222 49.7868 16.9823 49.7868 1.14583 49.7868C0.258745 49.7868 0 49.5315 0 48.6547C0 44.8183 0 40.9785 0 37.1421C0 35.7513 0.675402 34.8745 2.02283 34.5117C5.33596 33.6215 8.64908 32.7279 11.9656 31.8612C12.3654 31.757 12.4831 31.6058 12.4595 31.2094C12.4226 30.6249 12.4326 30.0337 12.4562 29.4458C12.4696 29.1434 12.3688 28.9956 12.0933 28.8646C8.90446 27.3361 6.89173 24.8401 6.09873 21.3967C5.97776 20.8794 5.78959 20.6543 5.27548 20.493C3.58531 19.9656 2.4731 18.333 2.4899 16.539C2.50334 14.7619 3.65923 13.1864 5.37628 12.659C5.7123 12.5548 5.82655 12.4339 5.81982 12.0711C5.7963 10.4653 5.80303 8.85615 5.80975 7.24701C5.8232 4.22021 8.46092 2.28856 11.3406 3.19224C11.9656 3.38372 12.5872 3.59201 13.2794 3.81709Z" fill="#B0C4DE"/>
<path d="M25.729 17.0698C25.7256 18.6554 25.8062 20.2444 25.3224 21.7965C24.0623 25.8412 20.0469 28.569 15.8702 28.186C11.5255 27.7862 8.07458 24.5209 7.56719 20.268C7.33198 18.3094 7.52351 16.3341 7.46639 14.3655C7.45967 14.1035 7.59072 14.1001 7.78225 14.1035C8.23251 14.1102 8.68278 14.1136 9.12969 14.1035C10.0235 14.08 10.6888 13.4551 10.7863 12.5649C10.8635 11.8594 11.1155 11.6209 11.8111 11.6209C15.01 11.6176 18.2055 11.6176 21.4044 11.6209C22.0765 11.6209 22.3486 11.8729 22.4158 12.5246C22.5133 13.4753 23.1786 14.0901 24.1362 14.1068C24.5159 14.1136 24.899 14.1404 25.2754 14.1001C25.692 14.0531 25.7525 14.2244 25.7391 14.5872C25.7122 15.4103 25.729 16.2401 25.729 17.0698Z" fill="#FEFEFE"/>
<path d="M14.1093 29.5801C14.9595 29.7515 15.776 29.8724 16.606 29.8724C17.4326 29.8724 18.2457 29.7447 19.0891 29.5835C19.0891 30.3662 19.0858 31.1254 19.0925 31.8813C19.0959 32.056 19.0085 32.1669 18.9111 32.2878C18.2189 33.1478 17.5199 34.0011 16.8513 34.8779C16.6329 35.1634 16.5354 35.1198 16.3405 34.8644C15.6651 33.991 14.9696 33.1377 14.2807 32.2777C14.1934 32.1702 14.106 32.0762 14.1093 31.9183C14.1127 31.1456 14.1093 30.3696 14.1093 29.5801Z" fill="#FEFEFE"/>
<path d="M11.6194 39.6885C11.6194 37.73 11.6261 35.9025 11.6126 34.075C11.6093 33.776 11.6933 33.6719 11.9923 33.5442C12.7148 33.2452 13.1651 33.393 13.5985 34.0481C14.0891 34.7939 14.7007 35.459 15.2618 36.1578C15.3593 36.2787 15.4802 36.3728 15.292 36.534C14.0925 37.5586 12.8962 38.59 11.6194 39.6885Z" fill="#FEFEFE"/>
<path d="M21.5791 39.6818C20.3123 38.5967 19.1261 37.5788 17.9333 36.5643C17.7888 36.44 17.772 36.3526 17.903 36.1914C18.6356 35.2978 19.3513 34.3941 20.0704 33.4905C20.1779 33.3527 20.272 33.3191 20.4601 33.3594C21.5757 33.5845 21.5791 33.5744 21.5791 34.7099C21.5791 36.3258 21.5791 37.945 21.5791 39.6818Z" fill="#FEFEFE"/>
<path d="M19.0858 46.4644C20.3492 46.4644 21.6093 46.4744 22.8728 46.4576C23.1617 46.4543 23.2424 46.5315 23.2457 46.8272C23.2592 48.1239 23.2726 48.1239 21.9924 48.1239C20.02 48.1239 18.0509 48.1239 16.0785 48.1239C15.1443 48.1239 14.7041 47.5326 14.9326 46.6223C14.9965 46.3669 15.1712 46.4711 15.2989 46.4711C16.5623 46.461 17.8257 46.4644 19.0858 46.4644Z" fill="#FEFEFE"/>
<path d="M27.4056 14.2916C28.4943 14.7082 29.1126 15.6757 29.042 16.7708C28.9748 17.7652 28.2994 18.6353 27.4056 18.8537C27.4056 17.3453 27.4056 15.8403 27.4056 14.2916Z" fill="#FEFEFE"/>
<path d="M16.5186 44.8048C16.2027 44.7511 15.6785 44.9862 15.4735 44.704C15.3089 44.4756 15.5071 43.9818 15.5441 43.6055C15.5844 43.1822 15.4769 42.601 15.7524 42.3894C16.0246 42.1778 16.5757 42.3524 16.9991 42.3054C17.4057 42.2617 17.5703 42.3793 17.5804 42.8093C17.5939 43.3569 17.6712 43.9045 17.7552 44.4487C17.8056 44.7645 17.6913 44.8283 17.409 44.8082C17.1369 44.788 16.8613 44.8048 16.5186 44.8048Z" fill="#FEFEFE"/>
<path d="M15.7693 39.45C15.7693 39.2619 15.8029 39.0637 15.7626 38.8822C15.6282 38.2507 16.1221 38.0223 16.4816 37.7031C16.5556 37.6359 16.6329 37.6292 16.7102 37.6964C17.0697 38.0155 17.5368 38.2339 17.4427 38.8722C17.3721 39.3593 17.4191 39.8699 17.4326 40.3671C17.4393 40.5888 17.3755 40.6896 17.147 40.656C17.0966 40.6493 17.0428 40.656 16.9924 40.656C15.7693 40.6661 15.7693 40.6661 15.7693 39.45Z" fill="#FEFEFE"/>
<path d="M16.5825 24.8972C15.4905 24.8703 14.4286 24.6956 13.4878 24.0741C12.9972 23.7516 12.631 23.3317 12.4865 22.7438C12.4327 22.5322 12.4159 22.3743 12.725 22.3978C13.3534 22.4448 13.9347 22.4347 14.5731 22.7539C16.0415 23.4862 17.5939 23.5064 19.0253 22.5086C19.1463 22.4247 20.6013 22.3407 20.692 22.4247C20.7995 22.5254 20.7323 22.6464 20.7054 22.7572C20.5475 23.4022 20.1174 23.839 19.5697 24.1682C18.6524 24.7158 17.641 24.8737 16.5825 24.8972Z" fill="#B0C4DE"/>
<path d="M9.92932 17.4226C9.00527 17.4226 8.96497 17.3621 9.31779 16.492C9.74117 15.4472 10.8198 14.809 11.9253 14.9467C13.0274 15.0844 13.9414 15.9915 14.0926 17.0765C14.1296 17.3386 14.0792 17.4595 13.7835 17.4293C13.5281 17.4024 13.266 17.4158 13.0073 17.4259C12.6914 17.4394 12.4663 17.4427 12.3151 17.0362C12.1034 16.4718 11.1995 16.4013 10.9811 16.9422C10.7458 17.5469 10.3393 17.4024 9.92932 17.4226Z" fill="#B0C4DE"/>

<path d="M23.1349 17.4226C22.7787 17.4797 22.4427 17.4528 22.1907 16.9187C21.9387 16.3845 21.0886 16.4954 20.8567 17.0665C20.7257 17.3923 20.5576 17.4595 20.2552 17.4259C20.0503 17.4058 19.8419 17.4226 19.6336 17.4226C19.0187 17.4226 19.0187 17.4226 19.1632 16.8414C19.4454 15.7093 20.4199 14.9366 21.5623 14.9332C22.7149 14.9299 23.6893 15.6891 23.9817 16.8179C24.1362 17.4226 24.1362 17.4226 23.5415 17.4226C23.444 17.4226 23.3399 17.4226 23.1349 17.4226Z" fill="#B0C4DE"/>
<path d="M48.1378 32.5935C48.1378 31.8141 47.8556 31.5319 47.0794 31.5286C40.0466 31.5286 33.0137 31.5286 25.9776 31.5286C25.1678 31.5286 24.8956 31.804 24.8956 32.6204C24.8956 37.6292 24.8989 42.6414 24.8855 47.6502C24.8855 48.0264 24.9561 48.1373 25.3559 48.1339C29.0723 48.1171 32.7852 48.1239 36.5016 48.1239C40.2179 48.1239 43.9309 48.1205 47.6473 48.1306C47.9967 48.1306 48.1479 48.1037 48.1446 47.6737C48.1311 42.6481 48.1378 37.6191 48.1378 32.5935ZM28.249 46.4643C27.3888 46.4643 27.3888 46.4643 27.3888 45.6144C27.3888 44.8048 27.3888 44.8048 28.1885 44.8048C29.0487 44.8048 29.0487 44.8048 29.0487 45.6547C29.0487 46.4643 29.0487 46.4643 28.249 46.4643ZM31.5958 46.4643C30.7053 46.4643 30.7053 46.4643 30.7053 45.5909C30.7053 44.8048 30.7053 44.8048 31.4748 44.8048C32.3652 44.8048 32.3652 44.8048 32.3652 45.6782C32.3686 46.4643 32.3686 46.4643 31.5958 46.4643ZM34.9122 46.4643C34.0285 46.4643 34.0285 46.4643 34.0285 45.5842C34.0285 44.8048 34.0285 44.8048 34.8047 44.8048C35.6884 44.8048 35.6884 44.8048 35.6884 45.685C35.6884 46.4643 35.6884 46.4643 34.9122 46.4643ZM36.4646 41.4824C35.5708 41.4555 34.845 40.6929 34.8585 39.796C34.8719 38.8755 35.6448 38.1398 36.5688 38.1667C37.4626 38.1936 38.1884 38.9528 38.1749 39.8497C38.1615 40.7702 37.382 41.5126 36.4646 41.4824ZM38.1514 46.4643C37.345 46.4643 37.345 46.4643 37.345 45.6614C37.345 44.8048 37.345 44.8048 38.1985 44.8048C39.0049 44.8048 39.0049 44.8048 39.0049 45.6077C39.0083 46.4643 39.0083 46.4643 38.1514 46.4643ZM41.5116 46.4643C40.6682 46.4643 40.6682 46.4643 40.6682 45.5976C40.6682 44.8048 40.6682 44.8048 41.4847 44.8048C42.3281 44.8048 42.3281 44.8048 42.3281 45.6715C42.3281 46.4643 42.3281 46.4643 41.5116 46.4643ZM44.8281 46.4643C43.988 46.4643 43.988 46.4643 43.988 45.6446C43.988 44.8048 43.988 44.8048 44.8583 44.8048C45.648 44.8048 45.648 44.8048 45.648 45.6245C45.648 46.4643 45.648 46.4643 44.8281 46.4643Z" fill="#FEFEFE"/>
</svg>
