<svg id="Camada_1" data-name="Camada 1" xmlns="http://www.w3.org/2000/svg" viewBox="0 0 300 300"><defs><style>.cls-1{fill:#fefefe;}.cls-2{fill:#b0c4de;}</style></defs><path class="cls-1" d="M97.15,135v13.47c-2.63-.52-4.78-3.36-4.87-6.44A7,7,0,0,1,97.15,135Z"/><path class="cls-2" d="M119.31,103.78c0-2.9,0-5.62,0-8.34A2.57,2.57,0,0,1,124,93.53c1.48,1.5,3,3,4.45,4.49.59.63.95.69,1.57,0,1.4-1.5,2.91-2.91,4.34-4.39.92-.94,1.88-1.62,3.26-1s1.53,1.66,1.51,2.93c0,2.67,0,5.35,0,8.13,2.11-.44,4-1.34,6.13-1.49a14.77,14.77,0,0,1,16.09,14.69q.06,5.86,0,11.73a1.18,1.18,0,0,0,1,1.36,12.29,12.29,0,0,1-.45,23.75,1.41,1.41,0,0,0-1.16,1.33,31.62,31.62,0,0,1-17.81,23.15,2,2,0,0,0-1.36,2.18,48.64,48.64,0,0,1,0,5.4c0,.85.29,1.16,1,1.34,2.09.51,4.16,1.07,6.3,1.63.41-3.79,2.27-6.36,6-7.27a9,9,0,0,1,2.14-.16h62.83c5.1,0,8.11,3,8.11,8.18q0,23.85,0,47.7c0,2.63-.76,3.4-3.38,3.4H83.2c-2.64,0-3.41-.76-3.41-3.37V203q0-6.21,6-7.83c9.86-2.65,19.72-5.31,29.6-7.89,1.19-.31,1.53-.76,1.46-1.94a51.07,51.07,0,0,1,0-5.25,1.57,1.57,0,0,0-1.08-1.73A31.38,31.38,0,0,1,97.94,156.1a3.08,3.08,0,0,0-2.44-2.7,12.27,12.27,0,0,1,.29-23.31c1-.31,1.34-.68,1.32-1.75-.07-4.79,0-9.57,0-14.36,0-9,7.88-14.76,16.46-12.07C115.4,102.49,117.25,103.11,119.31,103.78Z"/><path class="cls-1" d="M156.36,143.23c0,4.72.23,9.45-1.21,14.07a27.15,27.15,0,0,1-52.85-4.55c-.69-5.84-.13-11.72-.29-17.57,0-.78.37-.8.94-.79,1.33,0,2.67,0,4,0a5,5,0,0,0,4.93-4.58c.23-2.1,1-2.82,3-2.82h28.54c2,0,2.81.76,3,2.7a5,5,0,0,0,5.12,4.71,27.54,27.54,0,0,0,3.4,0c1.23-.14,1.41.37,1.38,1.46C156.31,138.29,156.36,140.76,156.36,143.23Z"/><path class="cls-1" d="M121.78,180.47a37.43,37.43,0,0,0,7.43.87,39.16,39.16,0,0,0,7.39-.86c0,2.33,0,4.59,0,6.84a1.75,1.75,0,0,1-.54,1.21c-2.06,2.56-4.14,5.1-6.13,7.71-.65.85-.94.71-1.52,0-2-2.59-4.08-5.14-6.13-7.7a1.6,1.6,0,0,1-.51-1.07C121.79,185.13,121.78,182.82,121.78,180.47Z"/><path class="cls-1" d="M114.37,210.56c0-5.82,0-11.27,0-16.71,0-.89.24-1.2,1.14-1.57,2.14-.9,3.49-.45,4.78,1.5,1.46,2.22,3.28,4.2,5,6.28.29.36.65.64.09,1.12C121.73,204.22,118.17,207.29,114.37,210.56Z"/><path class="cls-1" d="M144,210.54c-3.77-3.23-7.3-6.26-10.84-9.28-.44-.37-.48-.63-.09-1.11,2.18-2.66,4.31-5.35,6.45-8.05a1,1,0,0,1,1.16-.39c3.32.67,3.32.64,3.32,4Z"/><path class="cls-1" d="M136.59,230.73c3.76,0,7.52,0,11.27,0,.87,0,1.11.22,1.12,1.1,0,3.86.07,3.86-3.73,3.86h-17.6c-2.78,0-4.09-1.76-3.41-4.47.19-.76.71-.45,1.09-.45C129.08,230.72,132.84,230.73,136.59,230.73Z"/><path class="cls-1" d="M161.36,135a7.27,7.27,0,0,1,4.86,7.38,6.78,6.78,0,0,1-4.86,6.2Z"/><path class="cls-1" d="M95.83,134.8c-6.46,2-6.35,12,0,13.58Z"/><path class="cls-1" d="M129,225.79c-.94-.15-2.5.54-3.11-.3-.49-.68.1-2.14.21-3.26s-.2-3,.62-3.62,2.45-.12,3.71-.25,1.7.22,1.73,1.5a38.31,38.31,0,0,0,.53,4.88c.15.94-.19,1.13-1,1.07S130,225.79,129,225.79Z"/><path class="cls-1" d="M126.72,209.85a7.94,7.94,0,0,0,0-1.69c-.4-1.87,1.07-2.55,2.14-3.5a.46.46,0,0,1,.68,0c1.07.94,2.46,1.59,2.18,3.5a25.42,25.42,0,0,0,0,4.45c0,.66-.17,1-.86.85a3.53,3.53,0,0,0-.46,0C126.72,213.47,126.72,213.47,126.72,209.85Z"/><path class="cls-2" d="M129.14,166.53a17.14,17.14,0,0,1-9.21-2.45,6.55,6.55,0,0,1-3-4c-.16-.62-.21-1.1.71-1a13.38,13.38,0,0,1,5.5,1.06c4.37,2.18,9,2.23,13.26-.73a16.64,16.64,0,0,1,5-.25c.32.3.12.66,0,1a6.74,6.74,0,0,1-3.38,4.2A17.56,17.56,0,0,1,129.14,166.53Z"/><path class="cls-2" d="M109.34,144.28c-2.75,0-2.87-.18-1.82-2.77a7.44,7.44,0,0,1,7.76-4.6,7.57,7.57,0,0,1,6.45,6.34c.11.77,0,1.13-.91,1.05a14.84,14.84,0,0,0-2.31,0c-.94,0-1.61.05-2.06-1.16-.62-1.69-3.32-1.9-4-.28C111.77,144.65,110.56,144.22,109.34,144.28Z"/><path class="cls-2" d="M148.64,144.28a2.27,2.27,0,0,1-2.8-1.5c-.75-1.59-3.28-1.26-4,.44a1.46,1.46,0,0,1-1.79,1.07c-.61-.06-1.23,0-1.85,0-1.83,0-1.83,0-1.4-1.73a7.38,7.38,0,0,1,14.34-.07c.47,1.8.47,1.8-1.3,1.8Z"/><path class="cls-1" d="M223.05,189.44c0-2.32-.84-3.17-3.15-3.17H157.1c-2.4,0-3.21.82-3.21,3.25q0,22.36,0,44.74c0,1.12.21,1.45,1.4,1.44,11.06,0,22.12,0,33.17,0s22.12,0,33.17,0c1,0,1.49-.08,1.49-1.36C223,219.37,223.05,204.4,223.05,189.44Zm-59.19,41.29c-2.56,0-2.56,0-2.56-2.54s0-2.4,2.38-2.4c2.56,0,2.56,0,2.56,2.53S166.24,230.73,163.86,230.73Zm10,0c-2.65,0-2.65,0-2.65-2.6,0-2.34,0-2.34,2.29-2.34,2.65,0,2.65,0,2.65,2.6C176.12,230.73,176.12,230.73,173.83,230.73Zm9.86,0c-2.63,0-2.63,0-2.63-2.62,0-2.32,0-2.32,2.31-2.32,2.63,0,2.63,0,2.63,2.62C186,230.73,186,230.73,183.69,230.73Zm4.62-14.83a4.94,4.94,0,1,1,5.09-4.85A5,5,0,0,1,188.31,215.9Zm5,14.83c-2.39,0-2.39,0-2.39-2.39,0-2.55,0-2.55,2.54-2.55s2.4,0,2.4,2.39C195.88,230.73,195.88,230.73,193.33,230.73Zm10,0c-2.51,0-2.51,0-2.51-2.58,0-2.36,0-2.36,2.43-2.36s2.51,0,2.51,2.58C205.76,230.73,205.76,230.73,203.33,230.73Zm9.87,0c-2.5,0-2.5,0-2.5-2.44s0-2.5,2.59-2.5c2.35,0,2.35,0,2.35,2.44S215.64,230.73,213.2,230.73Z"/></svg>