<svg width="50" height="50" viewBox="0 0 50 50" fill="none" xmlns="http://www.w3.org/2000/svg">
<path d="M11.6161 1.81971C11.9421 1.33932 12.2176 0.905968 12.5167 0.489405C12.9602 -0.135438 13.5953 -0.135438 14.0388 0.489405C14.3345 0.905968 14.6134 1.33932 14.9394 1.81971C15.1813 1.46026 15.4165 1.16464 15.5912 0.838783C16.149 -0.202623 16.9756 -0.306765 17.6208 0.858939C17.7955 1.17136 18.0173 1.46026 18.2558 1.81971C18.5683 1.35276 18.8472 0.926123 19.1396 0.509561C19.5966 -0.142158 20.235 -0.142161 20.692 0.506198C20.9776 0.916042 21.2498 1.33261 21.5757 1.81971C21.8815 1.36284 22.1738 0.946279 22.446 0.519638C22.6678 0.173623 22.95 -0.0648928 23.3835 0.0157322C23.8102 0.0963571 23.9883 0.405425 24.0925 0.80855C25.077 4.52402 26.0817 8.23276 27.0561 11.9516C27.1603 12.3446 27.3082 12.5361 27.7215 12.6503C29.4923 13.1375 30.6919 14.7399 30.7053 16.5573C30.7187 18.3848 29.546 20.0141 27.8021 20.5281C27.3888 20.649 27.2342 20.8271 27.1368 21.2671C26.3639 24.7307 24.3781 27.2703 21.1826 28.8324C20.8566 28.9903 20.7222 29.155 20.7424 29.5211C20.776 30.1057 20.7726 30.6969 20.7424 31.2814C20.7256 31.6174 20.823 31.7652 21.1557 31.8391C21.8277 31.9869 22.4897 32.1818 23.1617 32.3564C23.3095 32.259 23.239 32.1078 23.2625 31.9835C23.5011 30.7238 24.4856 29.8705 25.7692 29.8705C32.9432 29.8638 40.1205 29.8638 47.2945 29.8705C48.7091 29.8705 49.7945 30.9522 49.7945 32.3699C49.8045 37.849 49.8012 43.3282 49.7978 48.8073C49.7978 49.5094 49.482 49.7815 48.7024 49.7815C39.7475 49.7815 30.7893 49.7815 21.8344 49.7815C14.9528 49.7815 8.07116 49.7815 1.18952 49.7815C0.238586 49.7815 0 49.543 0 48.5889C0 44.7861 0 40.9833 0 37.1805C0 35.746 0.655247 34.876 2.02956 34.5064C5.34269 33.6162 8.65582 32.726 11.9723 31.8559C12.3352 31.7618 12.4831 31.6442 12.4595 31.2512C12.4226 30.6297 12.436 30.0082 12.4562 29.3867C12.4663 29.118 12.3655 29.0004 12.1302 28.8896C8.92464 27.351 6.88837 24.8549 6.09873 21.3914C5.97776 20.8674 5.7795 20.6524 5.27212 20.4878C3.53491 19.9301 2.43614 18.2706 2.49327 16.4296C2.54703 14.6727 3.75668 13.124 5.50061 12.6436C5.88703 12.5361 6.03824 12.348 6.13569 11.9818C7.12022 8.24956 8.1249 4.52066 9.1128 0.788395C9.22704 0.361754 9.43202 0.0594077 9.89236 0.0090171C10.2351 -0.027936 10.4905 0.13667 10.6787 0.415499C10.971 0.855577 11.2667 1.29901 11.6161 1.81971Z" fill="#000000"/>
<path d="M5.80968 14.5652C5.80968 14.3166 5.75592 14.2662 5.51735 14.3771C4.70422 14.7466 4.11956 15.7208 4.1498 16.6917C4.18004 17.6928 4.80165 18.5427 5.80631 18.8921C5.80631 17.4207 5.80296 15.9929 5.80968 14.5652Z" fill="#FEFEFE"/>
<path d="M29.0453 16.6211C29.052 15.5831 28.4539 14.7063 27.4291 14.2965C27.4291 15.8451 27.4291 17.3568 27.4291 18.882C28.4405 18.4957 29.0352 17.6457 29.0453 16.6211Z" fill="#FEFEFE"/>
<path d="M7.46636 17.2661C7.49996 18.2975 7.37228 19.5304 7.61757 20.7431C8.60546 25.6243 12.8796 28.7048 17.8426 28.1169C21.8109 27.6466 25.1711 24.2939 25.628 20.3164C25.8565 18.3378 25.6751 16.3457 25.7288 14.3636C25.7356 14.1016 25.6012 14.1016 25.4096 14.1016C24.9426 14.1083 24.4755 14.1184 24.0084 14.0982C23.1718 14.0647 22.5098 13.4398 22.409 12.61C22.3082 11.8038 22.0965 11.6123 21.2766 11.6123C18.1315 11.6123 14.9864 11.6123 11.8413 11.6123C11.1054 11.6123 10.8601 11.8374 10.7795 12.5731C10.6787 13.4566 10.0066 14.0781 9.10949 14.0982C8.72979 14.1083 8.34672 14.1251 7.97038 14.0949C7.58733 14.0647 7.43275 14.152 7.45291 14.582C7.49659 15.4151 7.46636 16.2449 7.46636 17.2661ZM19.1429 16.9C19.4252 15.7443 20.3963 14.9448 21.5555 14.9347C22.7081 14.928 23.6892 15.6872 23.9816 16.8093C24.1395 17.4207 24.1395 17.4207 23.5011 17.4207C23.3969 17.4207 23.2927 17.4207 23.0542 17.4207C22.7954 17.4307 22.4527 17.4912 22.2276 16.9604C21.989 16.3927 21.1086 16.47 20.86 17.0545C20.7256 17.3636 20.5811 17.4643 20.2652 17.424C20.0266 17.3938 19.778 17.3904 19.5428 17.424C19.0556 17.4979 19.0522 17.2695 19.1429 16.9ZM19.0388 22.5168C19.5126 22.2044 20.1107 22.4362 20.6516 22.4194C20.8197 22.4127 20.739 22.6143 20.7155 22.715C20.5979 23.266 20.2753 23.6859 19.8183 23.9983C18.602 24.8348 17.2276 24.9793 15.8063 24.8449C14.9763 24.7676 14.18 24.5459 13.4777 24.0689C13.0409 23.7732 12.6981 23.4037 12.5234 22.8864C12.4024 22.5236 12.4293 22.322 12.8829 22.3959C13.0174 22.4194 13.1585 22.3993 13.3836 22.3993C13.7599 22.3254 14.1094 22.5639 14.5193 22.7486C16.0415 23.4306 17.5637 23.4944 19.0388 22.5168ZM9.21699 16.7857C9.51269 15.6738 10.514 14.9179 11.6632 14.9381C12.8057 14.9549 13.7532 15.741 14.0422 16.8798C14.143 17.2762 14.1161 17.508 13.6255 17.4307C13.5079 17.4106 13.3836 17.4274 13.2626 17.4274C12.8661 17.4106 12.4831 17.5416 12.2512 16.9571C12.016 16.3692 11.1222 16.5002 10.8668 17.125C10.7627 17.3837 10.6451 17.461 10.3897 17.4341C10.1679 17.4106 9.94281 17.4307 9.71767 17.4307C9.04564 17.424 9.04562 17.424 9.21699 16.7857Z" fill="#FEFEFE"/>
<path d="M19.032 32.773C19.1496 31.7249 19.0555 30.6566 19.0555 29.5849C18.2356 29.7529 17.4359 29.8705 16.6227 29.8738C15.7928 29.8772 14.9763 29.7596 14.1094 29.5816C14.1094 30.5457 14.0993 31.4595 14.1127 32.3732C14.1329 33.67 15.1107 34.7315 16.3674 34.8424C17.6577 34.9532 18.8841 34.0798 19.032 32.773Z" fill="#FEFEFE"/>
<path d="M17.1537 36.4616C16.7135 36.5523 16.2598 36.5187 15.7659 36.4246C15.7659 39.1054 15.7659 41.7291 15.7659 44.3494C15.7659 45.7066 15.7659 45.6999 17.1234 45.6428C17.3822 45.6327 17.4326 45.5554 17.4326 45.3169C17.4258 42.4514 17.4258 39.5858 17.4292 36.7236C17.4292 36.5254 17.4292 36.4045 17.1537 36.4616Z" fill="#FEFEFE"/>
<path d="M22.8694 46.4557C21.6059 46.4725 20.3459 46.4625 19.0824 46.4625C17.819 46.4625 16.5589 46.4591 15.2955 46.4692C15.1678 46.4692 14.9931 46.3684 14.9292 46.6204C14.7007 47.5341 15.1409 48.122 16.0751 48.122C18.0475 48.122 20.0166 48.122 21.989 48.122C23.2659 48.122 23.2558 48.122 23.2424 46.8253C23.2424 46.5296 23.1617 46.4524 22.8694 46.4557Z" fill="#FEFEFE"/>
<path d="M12.0293 41.4772C10.3694 41.4939 8.7095 41.4839 7.04958 41.4839C5.77272 41.4839 5.78279 41.4839 5.79623 42.7806C5.79959 43.0728 5.87689 43.1568 6.16922 43.1501C7.15375 43.1333 8.13827 43.1434 9.12616 43.1434C9.81835 43.1434 10.5105 43.1434 11.1994 43.1434C12.4594 43.1434 12.446 43.1434 12.4527 41.9004C12.4594 41.5611 12.3687 41.4738 12.0293 41.4772Z" fill="#FEFEFE"/>
<path d="M22.8894 41.4805C22.2846 41.494 21.6798 41.494 21.075 41.4805C20.8465 41.4772 20.7524 41.5108 20.7389 41.7795C20.6785 43.1434 20.6684 43.1434 22.0292 43.1434C23.249 43.1434 23.249 43.1434 23.2389 41.9139C23.2389 41.8803 23.2322 41.8433 23.2389 41.8097C23.2927 41.5208 23.1414 41.4738 22.8894 41.4805Z" fill="#FEFEFE"/>
<path d="M48.1546 32.5916C48.1546 31.8122 47.8724 31.53 47.0962 31.5267C40.0633 31.5267 33.0305 31.5267 25.9943 31.5267C25.1845 31.5267 24.9123 31.8021 24.9123 32.6185C24.9123 37.6273 24.9157 42.6395 24.9022 47.6483C24.9022 48.0246 24.9728 48.1354 25.3726 48.1321C29.089 48.1153 32.802 48.122 36.5183 48.122C40.2347 48.122 43.9477 48.1186 47.6641 48.1287C48.0135 48.1287 48.1647 48.1018 48.1614 47.6718C48.1479 42.6462 48.1546 37.6206 48.1546 32.5916ZM28.2657 46.4624C27.4055 46.4624 27.4055 46.4625 27.4055 45.6125C27.4055 44.8029 27.4055 44.8029 28.2053 44.8029C29.0655 44.8029 29.0655 44.8029 29.0655 45.6528C29.0655 46.4625 29.0655 46.4624 28.2657 46.4624ZM31.6125 46.4624C30.722 46.4624 30.722 46.4625 30.722 45.589C30.722 44.8029 30.722 44.8029 31.4915 44.8029C32.382 44.8029 32.382 44.8029 32.382 45.6764C32.3853 46.4625 32.3853 46.4624 31.6125 46.4624ZM34.929 46.4624C34.0453 46.4624 34.0453 46.4625 34.0453 45.5823C34.0453 44.8029 34.0453 44.8029 34.8215 44.8029C35.7052 44.8029 35.7052 44.8029 35.7052 45.6831C35.7052 46.4624 35.7052 46.4624 34.929 46.4624ZM36.4814 41.4839C35.5876 41.457 34.8618 40.6944 34.8752 39.7975C34.8887 38.877 35.6615 38.1413 36.5855 38.1682C37.4794 38.195 38.2052 38.9543 38.1917 39.8512C38.1783 40.7683 37.3987 41.5107 36.4814 41.4839ZM38.1682 46.4624C37.3618 46.4624 37.3617 46.4624 37.3617 45.6596C37.3617 44.8029 37.3618 44.8029 38.2152 44.8029C39.0217 44.8029 39.0217 44.8029 39.0217 45.6058C39.025 46.4624 39.025 46.4624 38.1682 46.4624ZM41.5284 46.4624C40.685 46.4624 40.685 46.4624 40.685 45.5957C40.685 44.8029 40.685 44.8029 41.5015 44.8029C42.3449 44.8029 42.3449 44.8029 42.3449 45.6696C42.3449 46.4624 42.3449 46.4624 41.5284 46.4624ZM44.8449 46.4624C44.0048 46.4624 44.0048 46.4625 44.0048 45.6428C44.0048 44.8029 44.0048 44.8029 44.8751 44.8029C45.6648 44.8029 45.6648 44.8029 45.6648 45.6226C45.6648 46.4625 45.6648 46.4624 44.8449 46.4624Z" fill="#FEFEFE"/>
</svg>
