<svg width="50" height="50" viewBox="0 0 50 50" fill="none" xmlns="http://www.w3.org/2000/svg">
<path d="M23.1953 32.3749C23.491 30.6146 24.3646 29.8789 26.1321 29.8789C33.0809 29.8789 40.0298 29.8789 46.982 29.8789C48.8133 29.8789 49.7978 30.8632 49.7978 32.6941C49.7978 37.9985 49.7978 43.3064 49.7978 48.6108C49.7978 49.5548 49.5559 49.7933 48.5982 49.7933C32.7987 49.7933 16.9958 49.7933 1.19622 49.7933C0.241932 49.7933 0.00336018 49.5548 0 48.6041C0 44.8013 0 40.9985 0 37.1956C0 35.7377 0.651869 34.881 2.07322 34.4981C5.36956 33.6112 8.66253 32.7243 11.9656 31.8643C12.3654 31.7602 12.4831 31.609 12.4595 31.2126C12.4226 30.6281 12.4327 30.0368 12.4562 29.4489C12.4696 29.1466 12.3722 28.9988 12.0933 28.8678C8.90447 27.3392 6.89172 24.8432 6.09872 21.3999C5.98111 20.8825 5.79294 20.6608 5.27884 20.4928C2.88975 19.7168 1.76745 16.9016 2.97711 14.7113C3.25265 14.2108 3.31985 13.7338 3.32657 13.1963C3.3669 7.72048 6.72707 2.86282 11.8278 0.894224C19.6638 -2.12921 28.3364 2.8225 29.6838 11.1067C29.8955 12.4135 30.4197 13.5322 31.3908 14.4459C32.1569 15.1682 32.8894 15.9274 33.632 16.6799C34.2705 17.3249 34.1495 17.933 33.3061 18.2756C31.421 19.0382 29.5326 19.7907 27.6442 20.5365C27.3821 20.6406 27.241 20.7683 27.1771 21.0706C26.4513 24.6349 24.4419 27.2284 21.1792 28.8375C20.8499 28.9988 20.7222 29.1667 20.7424 29.5295C20.7726 30.1342 20.7726 30.7389 20.7424 31.3436C20.7289 31.6426 20.8264 31.7669 21.1086 31.8341C21.7941 31.9987 22.4762 32.1868 23.1953 32.3749Z" fill="#FD0BE5"/>
<path d="M16.3304 34.8474C17.5804 34.9818 18.7565 34.1823 19.0051 32.9191C19.2202 31.8273 19.0521 30.712 19.0925 29.5766C17.3956 29.9797 15.7726 29.9696 14.1093 29.5799C14.1093 30.534 14.0993 31.4645 14.1127 32.3917C14.1329 33.6649 15.0871 34.7097 16.3304 34.8474Z" fill="#FEFEFE"/>
<path d="M22.8727 46.4675C21.6294 46.4843 20.3828 46.4742 19.1395 46.4742C17.8593 46.4742 16.5791 46.4709 15.3022 46.4809C15.1745 46.4809 14.9998 46.3768 14.9359 46.6321C14.7041 47.5358 15.1476 48.1371 16.0784 48.1371C18.0508 48.1371 20.0199 48.1371 21.9923 48.1371C23.2726 48.1371 23.2625 48.1371 23.249 46.8404C23.2423 46.5481 23.1684 46.4641 22.8727 46.4675Z" fill="#FEFEFE"/>
<path d="M10.7088 41.6031C10.403 41.2605 9.67052 41.5393 9.09594 41.4822C8.58519 41.5527 7.85604 41.2504 7.54691 41.5998C7.2781 41.9021 7.49315 42.6177 7.46291 43.1484C7.44274 43.4474 7.55363 43.6221 7.80564 43.7632C8.26934 44.0252 8.67592 44.5795 9.15306 44.5493C9.59997 44.5224 10.0133 44.0286 10.4568 43.7666C10.7055 43.6187 10.8163 43.4474 10.7962 43.1484C10.7626 42.621 10.9776 41.9021 10.7088 41.6031Z" fill="#FEFEFE"/>
<path d="M16.5858 38.1766C15.7659 38.1766 15.7659 38.1766 15.7659 39.0164C15.7659 39.8361 15.7659 39.8361 16.6059 39.8361C17.4258 39.8361 17.4258 39.8361 17.4258 39.0466C17.4292 38.1766 17.4292 38.1766 16.5858 38.1766Z" fill="#FEFEFE"/>
<path d="M16.5824 41.4956C15.7659 41.4956 15.7659 41.4956 15.7659 42.2884C15.7659 43.1552 15.7659 43.1552 16.6093 43.1552C17.4258 43.1552 17.4258 43.1552 17.4258 42.3623C17.4292 41.4956 17.4292 41.4956 16.5824 41.4956Z" fill="#FEFEFE"/>
<path d="M4.14977 16.6934C4.18001 17.728 4.90245 18.6855 5.78617 18.8568C5.78617 17.3518 5.78617 15.8434 5.78617 14.3317C4.80165 14.6072 4.11953 15.6016 4.14977 16.6934Z" fill="#FEFEFE"/>
<path d="M16.2296 28.2127C21.7302 28.3638 26.0111 23.953 25.7356 18.4268C25.7255 18.195 25.6684 18.0976 25.4264 18.0573C24.2537 17.8591 23.0878 17.6038 21.9083 17.4391C18.6758 16.989 16.0448 15.5411 14.0623 12.9107C13.0341 11.5468 11.932 10.2366 10.8265 8.85593C9.72099 10.4012 8.65917 11.8894 7.58728 13.3709C7.47639 13.5221 7.46295 13.68 7.46295 13.8547C7.46631 15.7023 7.43943 17.5534 7.47303 19.401C7.5604 24.0941 11.5355 28.085 16.2296 28.2127ZM19.0488 22.5219C19.5125 22.2128 20.1207 22.4379 20.6617 22.4345C20.8163 22.4345 20.7356 22.6361 20.7121 22.7369C20.5575 23.4054 20.1207 23.8522 19.5529 24.1881C18.6322 24.7323 17.6208 24.8869 16.5724 24.907C15.4736 24.8768 14.4118 24.6987 13.4709 24.0773C12.9804 23.7514 12.6242 23.3248 12.4763 22.7402C12.4158 22.5017 12.4662 22.3942 12.7418 22.411C13.1047 22.4312 13.4676 22.4144 13.8305 22.4177C13.9481 22.4177 14.0523 22.4245 14.1631 22.5051C15.561 23.5028 17.6174 23.4726 19.0488 22.5219ZM9.28081 16.5758C9.67395 15.5075 10.766 14.8289 11.8917 14.9566C12.9938 15.0775 13.9044 15.961 14.0859 17.0595C14.1329 17.3451 14.0791 17.4795 13.7599 17.4391C13.5885 17.4156 13.4138 17.4358 13.2424 17.4358C12.8325 17.4358 12.4696 17.5097 12.2378 16.9487C12.016 16.4078 11.1323 16.4952 10.9038 17.0595C10.7626 17.4123 10.5711 17.466 10.262 17.4391C10.1242 17.4257 9.98644 17.4358 9.84868 17.4358C9.02207 17.4324 8.98511 17.3753 9.28081 16.5758Z" fill="#FEFEFE"/>
<path d="M48.1312 32.5966C48.1312 31.8173 47.8489 31.5351 47.0727 31.5317C40.0399 31.5317 33.007 31.5317 25.9708 31.5317C25.161 31.5317 24.8889 31.8072 24.8889 32.6235C24.8889 37.6323 24.8922 42.6445 24.8788 47.6533C24.8788 48.0296 24.9493 48.1404 25.3492 48.1371C29.0656 48.1203 32.7786 48.127 36.4949 48.127C40.2113 48.127 43.9243 48.1236 47.6406 48.1337C47.9901 48.1337 48.1413 48.1069 48.1379 47.6769C48.1278 42.6512 48.1346 37.6256 48.1312 32.5966ZM28.2423 46.4675C27.3821 46.4675 27.3821 46.4675 27.3821 45.6176C27.3821 44.8079 27.3821 44.808 28.1818 44.808C29.042 44.808 29.042 44.8079 29.042 45.6579C29.042 46.4675 29.042 46.4675 28.2423 46.4675ZM31.5924 46.4675C30.702 46.4675 30.702 46.4675 30.702 45.594C30.702 44.8079 30.702 44.808 31.4714 44.808C32.3619 44.808 32.3619 44.808 32.3619 45.6814C32.3619 46.4675 32.3619 46.4675 31.5924 46.4675ZM34.9055 46.4675C34.0218 46.4675 34.0218 46.4675 34.0218 45.5873C34.0218 44.808 34.0218 44.808 34.798 44.808C35.6818 44.808 35.6817 44.808 35.6817 45.6881C35.6817 46.4675 35.6817 46.4675 34.9055 46.4675ZM36.4613 41.4889C35.5675 41.462 34.8417 40.6994 34.8551 39.8025C34.8686 38.882 35.6414 38.1463 36.5655 38.1732C37.4593 38.2001 38.1851 38.9593 38.1716 39.8562C38.1582 40.7733 37.3786 41.5158 36.4613 41.4889ZM38.1481 46.4675C37.3417 46.4675 37.3417 46.4675 37.3417 45.6646C37.3417 44.808 37.3417 44.808 38.1952 44.808C39.0016 44.808 39.0016 44.808 39.0016 45.6109C39.005 46.4675 39.005 46.4675 38.1481 46.4675ZM41.5083 46.4675C40.6649 46.4675 40.6649 46.4675 40.6649 45.6008C40.6649 44.808 40.6649 44.808 41.4814 44.808C42.3248 44.808 42.3248 44.8079 42.3248 45.6747C42.3248 46.4675 42.3248 46.4675 41.5083 46.4675ZM44.8248 46.4675C43.9847 46.4675 43.9847 46.4675 43.9847 45.6478C43.9847 44.808 43.9847 44.808 44.855 44.808C45.6447 44.808 45.6447 44.808 45.6447 45.6276C45.6447 46.4675 45.6447 46.4675 44.8248 46.4675Z" fill="#FEFEFE"/>
</svg>
