<svg width="50" height="50" viewBox="0 0 50 50" fill="none" xmlns="http://www.w3.org/2000/svg">
<path d="M31.9183 29.8574C32.1737 29.8574 32.3619 29.8574 32.55 29.8574C37.3753 29.8574 42.1971 29.8574 47.0223 29.8574C48.7864 29.8574 49.7978 30.8619 49.8012 32.6054C49.8012 37.9468 49.8012 43.2882 49.8012 48.6263C49.8012 49.5098 49.5424 49.7684 48.6621 49.7684C32.8256 49.7684 16.9891 49.7684 1.14919 49.7684C0.258748 49.7684 0 49.5131 0 48.6397C0 44.8033 0 40.9669 0 37.1271C0 35.733 0.672035 34.8562 2.01611 34.4934C5.34604 33.5998 8.67599 32.7062 12.0093 31.8294C12.3487 31.7387 12.4797 31.6177 12.4595 31.2482C12.4226 30.5595 12.6275 29.8003 12.3991 29.1923C12.1638 28.5708 11.2902 28.5002 10.7324 28.1173C8.19547 26.3872 6.60276 24.0457 6.02145 21.029C5.96769 20.7502 5.86015 20.6393 5.58797 20.562C3.65923 20.0111 2.49663 18.4691 2.49327 16.4703C2.48991 14.5555 2.43614 12.644 2.8864 10.7493C4.24055 5.04844 9.2741 0.624147 15.0939 0.0698503C22.5065 -0.638978 28.9614 4.11118 30.4432 11.3977C30.8464 13.3763 30.8867 15.3987 30.5642 17.3774C30.4298 18.2038 30.4398 18.6136 31.1892 19.0873C32.0258 19.6181 32.3585 20.5587 32.3619 21.5598C32.3619 21.8588 32.4257 22.0435 32.6844 22.235C34.4821 23.5552 34.4788 26.1789 32.6811 27.5159C32.4459 27.6906 32.3451 27.8452 32.3619 28.1408C32.3955 28.7253 32.2107 29.2662 31.9183 29.8574Z" fill="#951B81"/>
<path d="M23.192 32.3568C22.4629 32.1653 21.737 31.9671 21.0079 31.7824C20.813 31.732 20.7391 31.6446 20.7424 31.433C20.7559 30.7275 20.7458 30.022 20.7491 29.3132C20.7491 29.0915 21.3372 28.6245 21.5455 28.6716C21.6799 28.7018 21.6564 28.8261 21.6799 28.9202C21.8916 29.8406 22.4024 30.5495 23.2088 31.0265C23.4474 31.1676 23.5146 31.2717 23.3903 31.5405C23.2828 31.7824 23.2592 32.0645 23.192 32.3568Z" fill="#FEFEFE"/>
<path d="M18.7732 29.6223C17.2343 29.9649 15.6886 29.9347 14.1563 29.5685C14.1395 29.6156 14.116 29.6491 14.116 29.6794C14.1126 30.5091 14.1126 31.3389 14.1093 32.1653C14.1059 32.7969 13.9345 33.0152 13.3163 33.1933C12.8022 33.3377 12.2881 33.4755 11.6899 33.6401C13.3096 34.5438 14.8452 35.3937 16.3741 36.2638C16.6059 36.3948 16.7571 36.2974 16.9352 36.1966C18.333 35.4138 19.7342 34.6378 21.1321 33.8517C21.2362 33.7946 21.3975 33.7812 21.4177 33.6065C20.8969 33.4654 20.3794 33.3243 19.8653 33.1832C19.2806 33.022 19.0958 32.7935 19.0924 32.1956C19.0857 31.4363 19.0891 30.6738 19.0924 29.9145C19.0891 29.6962 19.1193 29.545 18.7732 29.6223Z" fill="#FEFEFE"/>
<path d="M1.6532 47.8402C1.6532 48.0854 1.75063 48.119 1.95897 48.1156C2.80238 48.1055 3.6458 48.1123 4.57657 48.1123C3.55507 46.8189 3.12159 45.455 3.40721 43.8962C3.69283 42.3442 4.58664 41.2188 5.93408 40.3857C4.49256 39.6668 3.09808 38.9714 1.65656 38.2525C1.65656 41.4977 1.65992 44.6689 1.6532 47.8402Z" fill="#FEFEFE"/>
<path d="M22.8022 46.4427C21.5757 46.4695 20.3459 46.4527 19.1194 46.4527C17.856 46.4527 16.5959 46.4494 15.3325 46.4595C15.2048 46.4595 15.0234 46.3452 14.936 46.5737C14.6437 47.3699 15.141 48.1089 15.9877 48.1089C18.0106 48.1123 20.0334 48.1089 22.0562 48.1089C23.239 48.1089 23.2255 48.1089 23.2423 46.8995C23.2524 46.5502 23.1785 46.4359 22.8022 46.4427Z" fill="#FEFEFE"/>
<path d="M5.77612 18.8521C5.77612 17.3337 5.77612 15.822 5.77612 14.2968C4.75799 14.6428 4.12628 15.5633 4.1498 16.6383C4.17333 17.6629 4.83527 18.5699 5.77612 18.8521Z" fill="#FEFEFE"/>
<path d="M27.4124 14.317C27.4124 15.8287 27.4124 17.337 27.4124 18.8488C28.4103 18.5363 29.0622 17.5923 29.0454 16.5207C29.0286 15.4894 28.3465 14.5588 27.4124 14.317Z" fill="#FEFEFE"/>
<path d="M25.3358 12.8859C22.5367 11.9688 19.7444 11.0315 16.9521 10.0942C16.7102 10.0136 16.4952 10.0136 16.2499 10.0976C13.4408 11.0449 10.6316 11.9889 7.81582 12.9127C7.52348 13.0102 7.45292 13.1378 7.45964 13.42C7.47644 14.458 7.46637 15.4927 7.46637 16.7391C7.51005 17.8913 7.35884 19.262 7.59405 20.6191C8.39713 25.245 12.6175 28.5405 17.268 28.1811C22.026 27.8116 25.6886 23.8979 25.7255 19.1276C25.739 17.243 25.7222 15.3617 25.7356 13.4771C25.739 13.1546 25.6684 12.9934 25.3358 12.8859ZM13.5382 18.2407C13.4508 18.2407 13.3668 18.2407 13.1753 18.2407C12.8359 18.2777 12.4797 18.2945 12.2311 17.7402C11.9925 17.206 11.1357 17.3102 10.8971 17.8779C10.7661 18.1937 10.6115 18.281 10.299 18.2474C10.0604 18.2205 9.81175 18.2138 9.57654 18.2474C9.08596 18.318 9.09268 18.0795 9.18341 17.7166C9.46566 16.561 10.4368 15.7615 11.5994 15.7548C12.7519 15.748 13.7331 16.5073 14.0221 17.6327C14.18 18.2407 14.18 18.2407 13.5382 18.2407ZM18.985 23.9147C18.6826 24.9695 17.6981 25.7086 16.5959 25.7086C15.3829 25.7086 14.3379 24.8083 14.1262 23.6123C14.0691 23.2865 14.1565 23.1756 14.4858 23.2159C14.6907 23.2428 14.8991 23.2193 15.1074 23.2193C15.4569 23.2193 15.8029 23.1353 15.9205 23.6594C15.9844 23.9449 16.3271 24.0659 16.6464 24.0423C16.9824 24.0155 17.2579 23.8509 17.3486 23.5216C17.4259 23.2395 17.5771 23.1924 17.8258 23.2159C18.0308 23.2361 18.2391 23.2193 18.4474 23.2193C19.1833 23.2193 19.1833 23.2193 18.985 23.9147ZM23.5448 18.2407C23.4406 18.2407 23.3365 18.2407 23.1349 18.2407C22.7787 18.2978 22.4427 18.2709 22.1906 17.7368C21.9386 17.2027 21.0885 17.3135 20.8566 17.8846C20.7256 18.2105 20.5576 18.2777 20.2552 18.2441C20.0502 18.2239 19.8419 18.2407 19.6336 18.2407C19.0186 18.2407 19.0186 18.2407 19.1631 17.6595C19.4454 16.5274 20.4198 15.7548 21.5623 15.7514C22.7148 15.748 23.6893 16.5073 23.9816 17.636C24.1395 18.2407 24.1395 18.2407 23.5448 18.2407Z" fill="#FEFEFE"/>
<path d="M48.1345 32.5819C48.1345 31.8025 47.8522 31.5203 47.076 31.517C40.0432 31.517 33.0103 31.517 25.9741 31.517C25.1643 31.517 24.8921 31.7924 24.8921 32.6087C24.8921 37.6176 24.8955 42.6298 24.8821 47.6386C24.8821 48.0149 24.9526 48.1257 25.3525 48.1224C29.0688 48.1056 32.7818 48.1123 36.4982 48.1123C40.2145 48.1123 43.9275 48.1089 47.6439 48.119C47.9933 48.119 48.1445 48.0921 48.1412 47.6621C48.1277 42.6365 48.1378 37.6075 48.1345 32.5819ZM28.2456 46.4527C27.3854 46.4527 27.3854 46.4527 27.3854 45.6028C27.3854 44.7932 27.3854 44.7932 28.1851 44.7932C29.0453 44.7932 29.0453 44.7932 29.0453 45.6431C29.0453 46.4527 29.0453 46.4527 28.2456 46.4527ZM31.5957 46.4527C30.7053 46.4527 30.7052 46.4527 30.7052 45.5793C30.7052 44.7932 30.7053 44.7932 31.4747 44.7932C32.3652 44.7932 32.3652 44.7932 32.3652 45.6667C32.3652 46.4527 32.3652 46.4527 31.5957 46.4527ZM34.9088 46.4527C34.0251 46.4527 34.0251 46.4527 34.0251 45.5726C34.0251 44.7932 34.0251 44.7932 34.8013 44.7932C35.685 44.7932 35.685 44.7932 35.685 45.6734C35.685 46.4527 35.685 46.4527 34.9088 46.4527ZM36.4646 41.4708C35.5708 41.4439 34.845 40.6813 34.8584 39.7844C34.8719 38.8639 35.6447 38.1282 36.5687 38.1551C37.4626 38.182 38.1884 38.9412 38.1749 39.8381C38.1615 40.7552 37.3819 41.4977 36.4646 41.4708ZM38.1514 46.4527C37.345 46.4527 37.3449 46.4527 37.3449 45.6498C37.3449 44.7932 37.345 44.7932 38.1984 44.7932C39.0049 44.7932 39.0049 44.7932 39.0049 45.5961C39.0049 46.4527 39.0049 46.4527 38.1514 46.4527ZM41.5116 46.4527C40.6682 46.4527 40.6682 46.4527 40.6682 45.586C40.6682 44.7932 40.6682 44.7932 41.4847 44.7932C42.3281 44.7932 42.3281 44.7932 42.3281 45.6599C42.3247 46.4527 42.3247 46.4527 41.5116 46.4527ZM44.8281 46.4527C43.988 46.4527 43.988 46.4527 43.988 45.6331C43.988 44.7932 43.988 44.7932 44.8583 44.7932C45.6479 44.7932 45.6479 44.7932 45.6479 45.6129C45.6479 46.4527 45.6479 46.4527 44.8281 46.4527Z" fill="#FEFEFE"/>
</svg>
