<svg width="50" height="50" viewBox="0 0 50 50" fill="none" xmlns="http://www.w3.org/2000/svg">
<path d="M32.7542 29.8738C35.8859 29.8738 38.947 29.8738 42.0048 29.8738C43.7353 29.8738 45.4624 29.8704 47.1929 29.8738C48.7419 29.8805 49.8038 30.932 49.8071 32.4739C49.8138 37.9027 49.8105 43.3281 49.8071 48.7568C49.8071 49.4959 49.5114 49.7848 48.7655 49.7848C33.1339 49.7848 17.5024 49.7848 1.87083 49.7848C1.12823 49.7848 0.839253 49.4925 0.839253 48.7468C0.835893 44.8398 0.835893 40.9329 0.839253 37.0259C0.839253 35.7796 1.56169 34.8524 2.76799 34.5299C6.11473 33.6329 9.46147 32.7326 12.8116 31.8558C13.1745 31.7618 13.319 31.6408 13.2954 31.2511C13.2585 30.6297 13.2887 30.0082 13.2853 29.3833C13.2853 29.1179 12.7343 28.6308 12.4923 28.6812C12.3579 28.7081 12.3815 28.8324 12.3546 28.9298C11.6993 31.2847 9.37747 32.2287 7.3076 30.9656C7.11271 30.8447 7.00517 30.8514 6.81364 30.9723C5.68126 31.6879 4.49512 31.7483 3.3325 31.0798C2.2102 30.4348 1.65913 29.4169 1.67257 28.1168C1.67593 27.8682 1.61209 27.7238 1.40376 27.5726C-0.477939 26.1818 -0.46787 23.5884 1.43399 22.2043C1.66248 22.0397 1.66921 21.8718 1.67257 21.64C1.68265 20.3197 2.26733 19.3321 3.40307 18.6602C3.53076 18.5863 3.7962 18.6064 3.729 18.3478C3.6786 18.1496 3.5677 18.0051 3.34593 17.9043C2.02874 17.3131 1.18871 16.3154 0.923257 14.8876C0.624202 13.2684 1.14503 11.9246 2.41518 10.8866C2.66047 10.685 2.7411 10.5406 2.65037 10.208C2.06234 8.03449 3.27874 5.84754 5.43261 5.17902C5.73839 5.08496 5.90304 4.96402 6.00385 4.6348C6.6658 2.44449 8.85663 1.2284 11.0575 1.81965C11.3566 1.90027 11.5078 1.85324 11.696 1.61136C13.0165 -0.0851212 15.2981 -0.491602 17.1193 0.643867C17.3612 0.795039 17.499 0.798396 17.7477 0.647224C19.6059 -0.501682 21.837 -0.0918379 23.208 1.64496C23.3726 1.8566 23.5036 1.90363 23.7624 1.83308C26.054 1.23176 28.2045 2.42098 28.8867 4.67512C28.9774 4.97074 29.1185 5.07152 29.3873 5.15551C31.605 5.8341 32.8113 8.00762 32.2099 10.2483C32.1326 10.5339 32.1897 10.6649 32.4148 10.8429C34.8879 12.7847 34.4612 16.5136 31.6252 17.8607C31.4606 17.9379 31.2724 17.9715 31.1951 18.1932C31.1279 18.3814 31.0876 18.4788 31.3127 18.5964C32.5963 19.2682 33.2347 20.3365 33.1944 21.7911C33.1877 22.0095 33.3019 22.0868 33.4431 22.1909C35.355 23.6186 35.3483 26.1449 33.4296 27.5995C33.2818 27.7104 33.181 27.8011 33.1978 28.0093C33.2482 28.6476 33.0768 29.2389 32.7542 29.8738Z" fill="#24B821"/>
<path d="M21.5884 30.3945C21.5884 30.0317 21.5951 29.6689 21.585 29.3061C21.5816 29.1314 21.6287 29.0306 21.7933 28.9433C22.3948 28.6174 22.3982 28.6073 22.6099 29.2557C22.7913 29.81 23.0937 30.287 23.5306 30.6633C23.7087 30.8178 23.7557 30.9253 23.6011 31.1201C23.5071 31.2377 23.4197 31.3922 23.4096 31.5367C23.3592 32.1313 23.0904 32.1649 22.5763 31.9969C21.5984 31.6778 21.5884 31.7114 21.5884 30.7002C21.5884 30.6028 21.5884 30.4986 21.5884 30.3945Z" fill="#FDFDFD"/>
<path d="M22.8785 46.4624C21.6353 46.4758 20.3886 46.4691 19.142 46.4691C17.8618 46.4691 16.5816 46.4657 15.3047 46.4725C15.177 46.4725 15.0023 46.3717 14.9418 46.627C14.72 47.5475 15.1535 48.1253 16.091 48.1253C18.0634 48.1253 20.0325 48.1253 22.0049 48.1253C23.2817 48.1253 23.2717 48.1253 23.2549 46.8252C23.2549 46.5296 23.1641 46.459 22.8785 46.4624Z" fill="#FEFEFE"/>
<path d="M14.999 32.2153C15.7886 33.6229 16.5985 35.017 17.4419 36.4884C18.2853 35.017 19.0884 33.6195 19.8848 32.2186C19.9184 32.1615 19.9285 32.0876 19.9285 32.0204C19.9318 31.2142 19.9318 30.4079 19.9318 29.5748C18.2551 29.9678 16.6287 29.9712 14.9519 29.5748C14.9519 30.2433 14.9452 30.8447 14.9553 31.4493C14.9553 31.708 14.8679 31.9868 14.999 32.2153Z" fill="#FEFEFE"/>
<path d="M13.4533 33.3944C11.612 33.895 9.76722 34.3821 7.7948 34.9095C10.4897 35.5814 13.0568 36.2196 15.7517 36.8882C15.0662 35.6922 14.458 34.6374 13.8599 33.5725C13.7591 33.3944 13.6583 33.3373 13.4533 33.3944Z" fill="#FEFEFE"/>
<path d="M23.2482 34.1368C23.2717 33.9454 23.181 33.8614 22.9995 33.8177C22.4821 33.69 21.968 33.5422 21.4539 33.4011C21.2758 33.3541 21.1481 33.344 21.0339 33.5523C20.4324 34.634 19.8074 35.7023 19.1287 36.8881C20.0695 36.6564 20.9028 36.4548 21.7328 36.2431C22.2301 36.1155 22.9357 36.1256 23.1642 35.8031C23.4196 35.4436 23.2415 34.7751 23.2482 34.241C23.2482 34.2074 23.2449 34.1704 23.2482 34.1368Z" fill="#FEFEFE"/>
<path d="M4.98567 16.6849C4.99912 17.5449 5.735 18.7509 6.62546 18.8517C6.62546 17.3467 6.62546 15.8383 6.62546 14.3266C5.6342 14.5987 4.97223 15.583 4.98567 16.6849Z" fill="#FEFEFE"/>
<path d="M28.228 14.3266C28.228 15.714 28.228 17.088 28.228 18.4654C28.228 18.5964 28.228 18.7274 28.228 18.8718C29.2428 18.5594 29.9014 17.6121 29.8846 16.5404C29.8712 15.5091 29.1924 14.5819 28.228 14.3266Z" fill="#FEFEFE"/>
<path d="M26.148 12.9291C22.314 11.7433 18.4834 10.5406 14.6562 9.32786C14.3672 9.23716 14.1522 9.2506 13.8901 9.41521C12.1428 10.5238 10.3854 11.619 8.62132 12.704C8.38947 12.8485 8.29538 12.9929 8.29874 13.2751C8.3189 14.33 8.30546 15.3848 8.30546 16.6547C8.34915 17.8338 8.19458 19.238 8.43315 20.6288C9.23287 25.2547 13.4667 28.5636 18.1071 28.1941C22.8718 27.8145 26.5277 23.9075 26.5647 19.1372C26.5781 17.2526 26.5579 15.368 26.5747 13.4868C26.5814 13.1508 26.4706 13.0299 26.148 12.9291ZM14.6058 18.2638C14.4344 18.2403 14.2597 18.2604 14.0883 18.2604C13.6817 18.2571 13.3155 18.3411 13.0836 17.7767C12.8518 17.2157 11.958 17.3299 11.7295 17.9312C11.6052 18.2604 11.4304 18.2806 11.1616 18.2638C10.9902 18.2537 10.8155 18.2604 10.6442 18.2604C9.87131 18.2604 9.8545 18.2336 10.083 17.5012C10.4257 16.4128 11.5245 15.6804 12.6804 15.7779C13.7994 15.8719 14.7436 16.7622 14.9284 17.8808C14.9754 18.163 14.9284 18.3041 14.6058 18.2638ZM19.8712 23.7631C19.5889 24.9221 18.6178 25.7183 17.4586 25.725C16.3128 25.7317 15.3249 24.9691 15.0359 23.8471C14.878 23.2357 14.878 23.2357 15.5198 23.2357C15.6071 23.2357 15.6911 23.2357 15.8827 23.2357C16.2187 23.2021 16.5749 23.1786 16.8235 23.7362C17.0654 24.2737 17.9189 24.1662 18.1575 23.5985C18.2919 23.2861 18.4431 23.1954 18.7556 23.2323C18.9942 23.2592 19.2428 23.2659 19.478 23.2323C19.9686 23.1618 19.9585 23.4003 19.8712 23.7631ZM24.562 18.2638C24.3906 18.2403 24.2159 18.2604 24.0445 18.2604C23.6312 18.2638 23.2784 18.3276 23.0398 17.7733C22.7912 17.1955 21.9108 17.3433 21.6588 17.9783C21.5613 18.2235 21.4505 18.2772 21.222 18.2672C20.896 18.2537 20.5634 18.2403 20.2374 18.2705C19.9115 18.3008 19.9115 18.1395 19.9451 17.9043C20.1165 16.7185 21.1749 15.7879 22.3812 15.7745C23.6211 15.7611 24.6897 16.6715 24.8846 17.8875C24.935 18.1697 24.8778 18.3041 24.562 18.2638Z" fill="#FEFEFE"/>
<path d="M48.1472 32.5982C48.1472 31.8189 47.8649 31.5367 47.0887 31.5333C40.0559 31.5333 33.023 31.5333 25.9868 31.5333C25.177 31.5333 24.9049 31.8088 24.9049 32.6251C24.9049 37.6339 24.9082 42.6461 24.8948 47.655C24.8948 48.0312 24.9653 48.1421 25.3652 48.1387C29.0816 48.1219 32.7945 48.1286 36.5109 48.1286C40.2272 48.1286 43.9402 48.1253 47.6566 48.1353C48.006 48.1353 48.1573 48.1085 48.1539 47.6785C48.1405 42.6529 48.1472 37.6239 48.1472 32.5982ZM28.2583 46.4691C27.3981 46.4691 27.3981 46.4691 27.3981 45.6192C27.3981 44.8096 27.3981 44.8096 28.1978 44.8096C29.058 44.8096 29.058 44.8096 29.058 45.6595C29.058 46.4691 29.058 46.4691 28.2583 46.4691ZM31.6084 46.4691C30.718 46.4691 30.718 46.4691 30.718 45.5957C30.718 44.8096 30.718 44.8096 31.4874 44.8096C32.3779 44.8096 32.3779 44.8096 32.3779 45.683C32.3779 46.4691 32.3779 46.4691 31.6084 46.4691ZM34.9215 46.4691C34.0378 46.4691 34.0378 46.4691 34.0378 45.5889C34.0378 44.8096 34.0378 44.8096 34.814 44.8096C35.6977 44.8096 35.6977 44.8096 35.6977 45.6897C35.6977 46.4691 35.6977 46.4691 34.9215 46.4691ZM36.4739 41.4905C35.5801 41.4636 34.8543 40.7011 34.8678 39.8041C34.8812 38.8836 35.6541 38.1479 36.5781 38.1748C37.4719 38.2017 38.1977 38.9609 38.1843 39.8579C38.1708 40.775 37.3946 41.5174 36.4739 41.4905ZM38.1608 46.4691C37.3543 46.4691 37.3543 46.4691 37.3543 45.6662C37.3543 44.8096 37.3543 44.8096 38.2078 44.8096C39.0142 44.8096 39.0142 44.8096 39.0142 45.6125C39.0176 46.4691 39.0176 46.4691 38.1608 46.4691ZM41.5209 46.4691C40.6775 46.4691 40.6775 46.4691 40.6775 45.6024C40.6775 44.8096 40.6775 44.8096 41.494 44.8096C42.3374 44.8096 42.3374 44.8096 42.3374 45.6763C42.3374 46.4691 42.3374 46.4691 41.5209 46.4691ZM44.8374 46.4691C43.9974 46.4691 43.9974 46.4691 43.9974 45.6494C43.9974 44.8096 43.9974 44.8096 44.8676 44.8096C45.6573 44.8096 45.6573 44.8096 45.6573 45.6293C45.6573 46.4691 45.6573 46.4691 44.8374 46.4691Z" fill="#FEFEFE"/>
</svg>
