<svg width="50" height="50" viewBox="0 0 50 50" fill="none" xmlns="http://www.w3.org/2000/svg">
<path d="M24.909 49.806C17.0092 49.806 9.10944 49.806 1.20967 49.806C0.225134 49.806 0 49.5775 0 48.5831C0 44.7971 0 41.0145 0 37.2285C0 35.7604 0.638432 34.9038 2.05643 34.5275C2.40588 34.4335 2.49998 34.289 2.49662 33.9329C2.48318 27.3485 2.43613 20.7642 2.50334 14.1798C2.5571 8.7544 4.97643 4.58541 9.66723 1.86096C18.0912 -3.03029 28.9916 2.2137 30.5138 11.8349C30.6482 12.6916 30.7087 13.5482 30.7087 14.4149C30.7053 19.4103 30.712 24.4057 30.6952 29.3978C30.6952 29.8076 30.8027 29.8983 31.2026 29.8983C36.4747 29.8849 41.7468 29.8882 47.0189 29.8882C48.7797 29.8882 49.7944 30.8927 49.7944 32.6396C49.7944 37.981 49.7944 43.319 49.7944 48.6604C49.7944 49.5439 49.5357 49.8026 48.6587 49.8026C40.7421 49.806 32.8256 49.806 24.909 49.806Z" fill="#E6332A"/>
<path d="M14.049 33.1838C14.8285 34.2789 15.6182 35.3674 16.3843 36.4726C16.6061 36.7951 16.6934 36.6406 16.8379 36.4323C17.4831 35.5152 18.1316 34.6048 18.7868 33.6944C19.059 33.3182 19.4454 32.9822 19.1027 32.4414C19.0388 32.3406 19.0892 32.1692 19.0892 32.0315C19.0892 31.2387 19.0892 30.4459 19.0892 29.5892C17.4058 29.9957 15.7727 29.9756 14.1363 29.606C14.1229 29.7001 14.1162 29.7505 14.1095 29.8009C14.0053 30.8356 14.3245 31.8971 13.9246 32.9184C13.8978 32.9822 13.9918 33.1031 14.049 33.1838Z" fill="#FEFEFE"/>
<path d="M22.8728 46.4802C21.6295 46.497 20.3829 46.4869 19.1396 46.4869C17.8594 46.4869 16.5792 46.4835 15.3023 46.4936C15.1746 46.4936 14.9999 46.3895 14.936 46.6448C14.7042 47.5484 15.1477 48.1498 16.0785 48.1498C18.0509 48.1498 20.02 48.1498 21.9924 48.1498C23.2726 48.1498 23.2626 48.1498 23.2491 46.8531C23.2424 46.5608 23.1685 46.4768 22.8728 46.4802Z" fill="#FEFEFE"/>
<path d="M15.1645 38.0918C15.3728 37.9742 15.3695 37.8802 15.2384 37.6988C14.2875 36.3853 13.3466 35.0684 12.4125 33.7448C12.2747 33.5499 12.1538 33.5466 11.9387 33.6003C10.7929 33.8825 10.7794 33.8758 10.7929 35.0247C10.7996 35.5185 10.5711 36.177 10.887 36.4558C11.1591 36.6977 11.8043 36.523 12.2848 36.5297C12.9635 36.5398 13.266 36.8354 13.276 37.5039C13.2828 38.0381 13.276 38.5722 13.276 39.2071C13.9548 38.804 14.5529 38.4378 15.1645 38.0918Z" fill="#FEFEFE"/>
<path d="M21.159 33.56C20.9877 33.5332 20.907 33.5835 20.8196 33.7045C19.8586 35.0516 18.8976 36.3987 17.9299 37.7391C17.8223 37.8869 17.8324 37.9675 17.987 38.0582C18.6086 38.421 19.2235 38.7872 19.9157 39.197C19.9157 38.5823 19.9124 38.0649 19.9157 37.5476C19.9225 36.8287 20.2081 36.5364 20.907 36.523C21.3875 36.5163 22.0327 36.6909 22.3048 36.4491C22.6207 36.1669 22.3922 35.5085 22.3989 35.018C22.4157 33.7582 22.4057 33.765 21.159 33.56Z" fill="#FEFEFE"/>
<path d="M4.14985 16.7363C4.19689 17.7374 4.88572 18.6511 5.79297 18.8829C5.79633 18.7956 5.80643 18.7149 5.80643 18.6343C5.80643 17.2099 5.80643 15.7822 5.80643 14.3108C4.71437 14.7139 4.09944 15.6445 4.14985 16.7363Z" fill="#FEFEFE"/>
<path d="M29.0353 16.3701C28.9379 15.3824 28.2222 14.4989 27.3855 14.3612C27.3855 15.7789 27.3855 17.1965 27.3855 18.6142C27.3855 18.6981 27.3855 18.7821 27.3855 18.9131C28.5111 18.4764 29.1428 17.4653 29.0353 16.3701Z" fill="#FEFEFE"/>
<path d="M25.7322 14.1126C25.7423 13.8237 25.5642 13.7834 25.3726 13.7061C22.3619 12.4665 19.3546 11.2269 16.3472 9.98729C15.8869 9.79581 15.2484 9.72526 15.0166 9.38261C14.7814 9.03659 14.9427 8.41511 14.9393 7.91792C14.9359 6.63464 14.9393 6.65143 13.6524 6.65143C13.3063 6.65143 13.2626 6.77237 13.2727 7.06464C13.2928 7.68612 13.2794 8.30761 13.276 8.92909C13.276 9.07691 13.3197 9.24151 13.0677 9.25495C12.5805 9.28182 12.1369 9.47667 11.6161 9.71519C11.6161 9.0769 11.6161 8.50917 11.6161 7.94144C11.6161 6.6212 11.6161 6.63128 10.3056 6.64807C9.98976 6.65143 9.94944 6.76229 9.94944 7.0344C9.96288 8.27737 9.94609 9.5237 9.96289 10.7667C9.96625 11.0489 9.88224 11.2471 9.68063 11.4419C9.03547 12.0667 8.41384 12.7151 7.76533 13.3366C7.55028 13.5449 7.4562 13.7498 7.45956 14.0521C7.47636 15.5538 7.47301 17.0588 7.46629 18.5604C7.46293 19.3028 7.47636 20.0453 7.6242 20.7776C8.61882 25.6588 12.8829 28.7225 17.8593 28.1346C21.7941 27.671 25.1845 24.2982 25.628 20.3745C25.8599 18.295 25.6717 16.1988 25.7322 14.1126ZM13.7532 18.2782C13.5818 18.2581 13.4071 18.2749 13.1282 18.2749C12.8123 18.2984 12.4729 18.3219 12.2377 17.781C12.0059 17.2435 11.1289 17.3376 10.9037 17.9053C10.7626 18.2648 10.561 18.3017 10.2586 18.2782C10.1208 18.2681 9.98304 18.2749 9.84527 18.2749C9.02875 18.2749 8.99515 18.2245 9.26061 17.4585C9.63022 16.3936 10.7156 15.6949 11.8479 15.7956C12.9669 15.8931 13.9077 16.7934 14.0892 17.9087C14.1396 18.2077 14.0556 18.3118 13.7532 18.2782ZM19.0085 23.8346C18.7229 24.9667 17.7551 25.736 16.6093 25.7394C15.4467 25.7428 14.4655 24.9567 14.1732 23.8044C14.0757 23.4214 14.0724 23.1661 14.5831 23.2467C14.7007 23.2669 14.825 23.2501 14.946 23.2501C15.3492 23.2535 15.7256 23.146 15.9574 23.7171C16.1893 24.2848 17.0764 24.1974 17.3217 23.6062C17.4561 23.277 17.6274 23.2199 17.9265 23.2467C18.1315 23.2669 18.3398 23.2501 18.5481 23.2501C19.153 23.2535 19.153 23.2535 19.0085 23.8346ZM23.501 18.2749C23.4136 18.2749 23.3297 18.2749 23.1146 18.2749C22.8055 18.2984 22.4392 18.3421 22.1906 17.7777C21.9553 17.2402 21.0817 17.341 20.8599 17.9087C20.7188 18.2715 20.5105 18.2917 20.2114 18.2782C19.9695 18.2648 19.7242 18.2547 19.4856 18.2816C19.1328 18.3219 19.0421 18.1976 19.1093 17.8549C19.3344 16.7094 20.3055 15.8393 21.448 15.7923C22.6475 15.7419 23.6757 16.5045 23.9781 17.6635C24.1394 18.2749 24.1394 18.2749 23.501 18.2749Z" fill="#FEFEFE"/>
<path d="M48.1312 32.6127C48.1312 31.8333 47.8489 31.5511 47.0727 31.5478C40.0399 31.5478 33.007 31.5478 25.9708 31.5478C25.161 31.5478 24.8889 31.8232 24.8889 32.6396C24.8889 37.6484 24.8922 42.6606 24.8788 47.6694C24.8788 48.0456 24.9493 48.1565 25.3492 48.1531C29.0655 48.1363 32.7785 48.1431 36.4949 48.1431C40.2112 48.1431 43.9242 48.1397 47.6406 48.1498C47.99 48.1498 48.1412 48.1229 48.1379 47.6929C48.1278 42.6673 48.1345 37.6417 48.1312 32.6127ZM28.2457 46.4869C27.3855 46.4869 27.3855 46.4869 27.3855 45.637C27.3855 44.8274 27.3855 44.8274 28.1852 44.8274C29.0454 44.8274 29.0454 44.8274 29.0454 45.6773C29.042 46.4869 29.042 46.4869 28.2457 46.4869ZM31.5924 46.4869C30.702 46.4869 30.7019 46.4869 30.7019 45.6135C30.7019 44.8274 30.702 44.8274 31.4714 44.8274C32.3619 44.8274 32.3619 44.8274 32.3619 45.7008C32.3619 46.4869 32.3619 46.4869 31.5924 46.4869ZM34.9055 46.4869C34.0218 46.4869 34.0218 46.4869 34.0218 45.6067C34.0218 44.8274 34.0218 44.8274 34.798 44.8274C35.6817 44.8274 35.6817 44.8274 35.6817 45.7075C35.6851 46.4869 35.6851 46.4869 34.9055 46.4869ZM36.4613 41.5049C35.5675 41.4781 34.8417 40.7155 34.8551 39.8185C34.8686 38.8981 35.6414 38.1624 36.5655 38.1892C37.4593 38.2161 38.1851 38.9753 38.1716 39.8723C38.1582 40.7894 37.3786 41.5318 36.4613 41.5049ZM38.1481 46.4869C37.3417 46.4869 37.3417 46.4869 37.3417 45.684C37.3417 44.8274 37.3416 44.8274 38.1951 44.8274C39.0016 44.8274 39.0016 44.8274 39.0016 45.6303C39.0049 46.4869 39.0049 46.4869 38.1481 46.4869ZM41.5083 46.4869C40.6649 46.4869 40.6649 46.4869 40.6649 45.6202C40.6649 44.8274 40.6649 44.8274 41.4814 44.8274C42.3248 44.8274 42.3248 44.8274 42.3248 45.6941C42.3248 46.4869 42.3248 46.4869 41.5083 46.4869ZM44.8248 46.4869C43.9847 46.4869 43.9847 46.4869 43.9847 45.6672C43.9847 44.8274 43.9847 44.8274 44.855 44.8274C45.6446 44.8274 45.6446 44.8274 45.6446 45.647C45.6446 46.4869 45.6446 46.4869 44.8248 46.4869Z" fill="#FEFEFE"/>
</svg>
