<svg width="43" height="43" viewBox="0 0 43 43" fill="none" xmlns="http://www.w3.org/2000/svg">
<path d="M0 9.29243C0.224632 8.77802 0.648064 8.50622 1.15686 8.29731C7.7281 5.583 14.296 2.85971 20.8605 0.127431C21.3581 -0.0792304 21.7972 -0.0152102 22.2701 0.181343C27.933 2.53849 33.5983 4.89151 39.2657 7.24042C40.1924 7.62566 41.119 8.01315 42.0501 8.38716C42.6948 8.64662 43.016 9.09925 42.9991 9.80684C42.9823 10.5144 42.9991 11.2333 42.9991 11.9476C42.9991 12.9225 42.5094 13.4077 41.5244 13.4077H7.48026C5.54842 13.4077 3.61771 13.3819 1.68699 13.4201C0.906392 13.4358 0.339195 13.2033 0.00224632 12.4845L0 9.29243Z" fill="#22192C"/>
<path d="M0 38.6811C0.217893 38.2947 0.456004 37.9286 0.869327 37.714C1.11307 37.5798 1.38628 37.508 1.66453 37.5051C14.9403 37.5096 28.2168 37.5096 41.4941 37.5051C42.2354 37.5051 42.9688 38.206 42.9868 38.9742C43.0081 39.8975 43.0003 40.8207 42.9868 41.744C42.9789 42.3651 42.5622 42.6986 42.068 42.9626H0.923239C0.422309 42.8503 0.0920993 42.5627 0 42.0393V38.6811Z" fill="#22192C"/>
<path d="M10.3713 22.4334C10.3713 24.4742 10.3634 26.5161 10.378 28.5569C10.378 28.8669 10.3117 28.9534 9.98939 28.95C8.14366 28.932 6.29831 28.932 4.45332 28.95C4.1321 28.95 4.06359 28.8669 4.06471 28.558C4.07594 24.475 4.07594 20.3941 4.06471 16.3156C4.06471 16.0056 4.13098 15.9191 4.45332 15.9225C6.29831 15.9404 8.14366 15.9404 9.98939 15.9225C10.3106 15.9225 10.3803 16.0044 10.378 16.3144C10.3634 18.3507 10.3713 20.3915 10.3713 22.4334Z" fill="#22192C"/>
<path d="M32.6223 22.4334C32.6223 20.3926 32.629 18.3507 32.6155 16.3099C32.6155 16 32.6818 15.9135 33.003 15.9168C34.848 15.9348 36.6937 15.9348 38.5402 15.9168C38.8614 15.9168 38.9299 15.9988 38.9288 16.3088C38.9176 20.3919 38.9176 24.4746 38.9288 28.5569C38.9288 28.8669 38.8626 28.9534 38.5402 28.95C36.6945 28.932 34.8491 28.932 33.0041 28.95C32.6829 28.95 32.6133 28.868 32.6155 28.558C32.629 26.5161 32.6223 24.4765 32.6223 22.4334Z" fill="#22192C"/>
<path d="M25.2724 22.8018C25.2791 23.7206 24.7669 24.2923 24.0672 24.3215C23.3675 24.3507 22.8138 23.8262 22.7565 23.0781C22.6969 22.2919 22.1488 21.7685 21.4334 21.8056C21.1094 21.8256 20.8053 21.9686 20.5832 22.2053C20.3611 22.4421 20.2377 22.7546 20.2383 23.0793C20.2473 23.7767 20.7909 24.2923 21.5491 24.3237C23.3574 24.399 24.8422 25.612 25.1881 27.2945C25.5565 29.0915 24.7018 30.7695 22.9991 31.5546C22.7992 31.6467 22.7363 31.7534 22.752 31.9612C22.7706 32.1561 22.7627 32.3525 22.7284 32.5453C22.6669 32.8498 22.4956 33.1211 22.2471 33.3075C21.9986 33.4939 21.6902 33.5824 21.3806 33.5561C20.7471 33.4943 20.2193 32.9698 20.2574 32.3206C20.2833 31.8298 20.1058 31.6198 19.6824 31.3918C18.4301 30.7179 17.7842 29.6161 17.727 28.193C17.7141 28.0248 17.7354 27.8558 17.7895 27.696C17.8435 27.5362 17.9293 27.389 18.0416 27.2632C18.1539 27.1373 18.2905 27.0354 18.4431 26.9636C18.5958 26.8918 18.7613 26.8515 18.9299 26.8452C19.633 26.8171 20.1833 27.3394 20.2406 28.0886C20.299 28.868 20.8516 29.3982 21.5637 29.3611C21.8876 29.3399 22.1912 29.196 22.4126 28.9587C22.634 28.7215 22.7566 28.4086 22.7554 28.0841C22.7452 27.3821 22.2073 26.8722 21.4435 26.8407C19.6464 26.7666 18.1493 25.548 17.8056 23.8688C17.617 23.022 17.7284 22.136 18.1207 21.3623C18.513 20.5885 19.1619 19.975 19.9564 19.6267C20.1923 19.5143 20.2563 19.3953 20.2417 19.1617C20.2256 18.9667 20.2374 18.7704 20.2765 18.5787C20.3454 18.2834 20.5185 18.0228 20.764 17.8447C21.0095 17.6667 21.311 17.5832 21.6131 17.6095C22.2454 17.6701 22.7801 18.1946 22.7363 18.8449C22.7048 19.347 22.8991 19.5492 23.3136 19.7715C23.8777 20.0598 24.3559 20.4917 24.6998 21.0237C25.0437 21.5558 25.2412 22.1691 25.2724 22.8018Z" fill="#22192C"/>
<path d="M7.22206 35.2386C5.72488 35.2386 4.22883 35.2307 2.72941 35.2453C2.44862 35.2453 2.37674 35.1678 2.3846 34.8971C2.40257 34.212 2.3846 33.5258 2.39246 32.8406C2.40369 31.9612 2.90575 31.4625 3.77732 31.4614C6.07157 31.4614 8.36581 31.4614 10.6601 31.4614C11.5305 31.4614 12.0337 31.9601 12.046 32.8395C12.0561 33.5246 12.0359 34.2109 12.0539 34.896C12.0606 35.1645 11.9933 35.2487 11.7102 35.2465C10.2153 35.2307 8.71587 35.2386 7.22206 35.2386Z" fill="#22192C"/>
<path d="M35.7299 35.2386C34.2462 35.2386 32.7636 35.2307 31.281 35.2465C30.998 35.2465 30.9295 35.1645 30.9374 34.896C30.9553 34.2109 30.9374 33.5246 30.9452 32.8395C30.9565 31.9601 31.4585 31.4625 32.3312 31.4614C34.6247 31.4614 36.9186 31.4614 39.2128 31.4614C40.0675 31.4614 40.5797 31.9522 40.5977 32.7991C40.6123 33.4977 40.5887 34.1974 40.6067 34.8971C40.6134 35.1678 40.5426 35.2487 40.2618 35.2453C38.7512 35.2307 37.2439 35.2386 35.7299 35.2386Z" fill="#22192C"/>
<path d="M21.5007 9.62826C19.0103 9.62826 16.5206 9.62826 14.0317 9.62826C13.0332 9.62826 12.3941 8.71288 12.7962 7.85816C13.0388 7.33926 13.4701 7.10901 14.0452 7.10901C16.4937 7.1135 18.9414 7.1135 21.3884 7.10901C23.92 7.10901 26.4516 7.10901 28.9832 7.10901C29.9548 7.10901 30.5894 8.01652 30.2086 8.86002C29.966 9.39914 29.519 9.62938 28.9282 9.62826C26.452 9.62452 23.9762 9.62452 21.5007 9.62826Z" fill="#FEFEFE"/>
</svg>
