<svg width="68" height="65" viewBox="0 0 68 65" fill="none" xmlns="http://www.w3.org/2000/svg">
<path d="M48.96 64.1524H18.4C8.24 64.1524 0 56.3048 0 46.6286V17.5238C0 7.84762 8.24 0 18.4 0H48.96C59.12 0 67.36 7.84762 67.36 17.5238V46.6286C67.36 56.3048 59.12 64.1524 48.96 64.1524Z" fill="#010222"/>
<path d="M25.07 50.3238C25.07 51.8286 23.79 53.0571 22.21 53.0571L20.08 53.0667H19.48C11.98 53.0571 5.83999 47.2 5.83999 40.0571V36.9714C5.75999 28.3714 12.63 21.9048 21.01 21.9048H21.21H21.53C24.53 21.9048 27.48 22.6191 30.11 23.9714C30.98 24.4191 31.75 25.0191 32.4 25.7333C32.53 25.8762 32.77 25.7905 32.77 25.6V22.381V21.2667C32.76 16.4762 36.85 12.5905 41.88 12.6191L46.05 12.6381L49.46 12.6667C54.07 12.7048 57.78 16.2762 57.78 20.6571V23.2095C57.78 24.7143 57.15 26.1619 56.03 27.2286C55.94 27.3143 55.95 27.4667 56.06 27.5333L56.95 28.1333C59.82 30.0571 61.53 33.2 61.53 36.5429V36.8381C61.53 41.2476 58.75 45.1333 54.63 46.8095C53.59 47.2381 52.47 47.4667 51.35 47.5333L51.19 47.5429C51.12 47.5429 51.06 47.5524 50.99 47.5524H45.26C43.67 47.5524 42.38 46.3238 42.38 44.8095C42.38 43.2952 43.67 42.0571 45.27 42.0667L50.08 42.0762C50.09 42.0762 50.09 42.0762 50.1 42.0762C53.32 41.8857 55.88 39.6191 55.88 36.581V36.0095C55.88 33.2952 53.57 31.0952 50.73 31.0857L45.27 31.0667C43.68 31.0571 42.4 29.8381 42.4 28.3238C42.4 26.8095 43.69 25.581 45.28 25.581H49.76C51.55 25.581 53 24.2 53 22.4952V21.3429C53 19.6381 51.55 18.2571 49.76 18.2571H40.49C39.42 18.2571 38.56 19.0857 38.56 20.1048L38.63 37.7238C38.64 39.1048 37.46 40.2191 36.02 40.2286L16.44 40.2476C14.85 40.2476 13.55 39.0191 13.55 37.5048C13.55 35.9905 14.84 34.7619 16.43 34.7619H31.86L31.58 34.0476C30.06 30.1619 25.27 27.181 20.92 27.4191C17.23 27.6191 13.92 29.7429 12.47 32.981C11.94 34.1619 11.65 35.4476 11.66 36.7524L11.67 39.3619C11.69 43.981 15.66 47.6857 20.5 47.6286L21.11 47.6191L22.18 47.6095C23.76 47.5714 25.07 48.8 25.07 50.3238Z" fill="url(#paint0_linear_9_98)"/>
<defs>
<linearGradient id="paint0_linear_9_98" x1="9.17329" y1="49.038" x2="58.2378" y2="19.2942" gradientUnits="userSpaceOnUse">
<stop stop-color="#5C1E55"/>
<stop offset="1" stop-color="#D2462F"/>
</linearGradient>
</defs>
</svg>
