<svg width="152" height="105" viewBox="0 0 152 105" fill="none" xmlns="http://www.w3.org/2000/svg">
<path d="M2.11999 79.419H0.0499878V76.0476H13.72C15.22 76.0476 15.89 76.6857 15.89 78.1143V81.3905H12.1V80.0857C12.1 79.6571 11.85 79.419 11.4 79.419H6.29999V85.0667H13.63V88.4381H6.29999V93.5619C6.29999 93.9905 6.54999 94.2286 6.99999 94.2286H12.23C12.68 94.2286 12.93 93.9905 12.93 93.5619V92.2571H16.72V95.5333C16.72 96.9905 16.05 97.6 14.55 97.6H4.28999C2.75999 97.6 2.11999 96.9905 2.11999 95.5333V79.419Z" fill="white"/>
<path d="M14.55 97.6381H4.29C2.74 97.6381 2.07 97.0095 2.07 95.5238V79.4667H0V76H13.72C15.25 76 15.94 76.6476 15.94 78.1143V81.4381H12.05V80.0857C12.05 79.6857 11.82 79.4667 11.4 79.4667H6.35V85.019H13.68V88.4857H6.35V93.5619C6.35 93.9619 6.58 94.181 7 94.181H12.23C12.65 94.181 12.88 93.9619 12.88 93.5619V92.2095H16.77V95.5333C16.77 96.9905 16.08 97.6381 14.55 97.6381ZM0.0999985 79.3714H2.17V95.5333C2.17 96.9619 2.78 97.5524 4.29 97.5524H14.55C16.03 97.5524 16.67 96.9524 16.67 95.5333V92.3048H12.98V93.5619C12.98 94.0095 12.7 94.2762 12.23 94.2762H7C6.53 94.2762 6.25 94.0095 6.25 93.5619V88.3905H13.58V85.1143H6.25V79.3714H11.4C11.88 79.3714 12.15 79.6286 12.15 80.0857V81.3429H15.84V78.1143C15.84 76.7238 15.19 76.0952 13.72 76.0952H0.0999985V79.3714Z" fill="white"/>
<path d="M28.09 87.8857H28.6V87.7619C28.6 85.5429 27.68 84.7238 25.6 84.7238C24.87 84.7238 23.43 84.9048 23.43 85.7524V86.5714H19.67V84.9333C19.67 82.0476 23.94 81.7429 25.63 81.7429C31.05 81.7429 32.64 84.4476 32.64 87.9048V93.6667C32.64 94.0952 32.89 94.3333 33.34 94.3333H34.61V97.581H30.98C29.48 97.581 28.91 96.7905 28.91 95.8857C28.91 95.4952 28.94 95.219 28.94 95.219H28.88C28.88 95.219 27.64 97.9524 23.97 97.9524C21.07 97.9524 18.43 96.219 18.43 93.1238C18.43 88.2762 25.44 87.8857 28.09 87.8857ZM24.96 94.9524C27.13 94.9524 28.66 92.7714 28.66 90.8857V90.5238H27.96C25.86 90.5238 22.51 90.8 22.51 92.9524C22.51 93.981 23.31 94.9524 24.96 94.9524Z" fill="white"/>
<path d="M23.98 98.0095C21.2 98.0095 18.39 96.3333 18.39 93.1333C18.39 88.3524 25.18 87.8381 28.09 87.8381H28.55V87.7619C28.55 85.6381 27.7 84.7714 25.6 84.7714C24.81 84.7714 23.48 84.981 23.48 85.7524V86.6191H19.62V84.9333C19.62 81.9333 24.22 81.6953 25.63 81.6953C30.38 81.6953 32.69 83.7238 32.69 87.9048V93.6667C32.69 94.0667 32.92 94.2857 33.34 94.2857H34.66V97.6286H30.98C29.07 97.6286 28.86 96.4095 28.86 95.8857C28.86 95.6381 28.87 95.4381 28.88 95.3143C28.64 95.781 27.27 98.0095 23.98 98.0095ZM28.09 87.9333C25.2 87.9333 18.49 88.4381 18.49 93.1333C18.49 96.2667 21.25 97.9143 23.98 97.9143C27.57 97.9143 28.83 95.2381 28.84 95.2095L28.85 95.181H29L28.99 95.2381C28.99 95.2381 28.96 95.5143 28.96 95.9048C28.96 96.9524 29.7 97.5524 30.98 97.5524H34.56V94.4H33.34C32.87 94.4 32.59 94.1333 32.59 93.6857V87.9238C32.59 83.8095 30.31 81.8095 25.63 81.8095C24.24 81.8095 19.72 82.0381 19.72 84.9524V86.5429H23.38V85.7714C23.38 84.7238 25.37 84.6953 25.6 84.6953C27.76 84.6953 28.64 85.5905 28.64 87.781V87.9524H28.09V87.9333ZM24.96 95C23.23 95 22.46 93.9714 22.46 92.9524C22.46 91.3143 24.31 90.4762 27.96 90.4762H28.71V90.8857C28.71 92.8286 27.11 95 24.96 95ZM27.96 90.5714C24.38 90.5714 22.56 91.3714 22.56 92.9524C22.56 93.9238 23.3 94.9048 24.96 94.9048C27.05 94.9048 28.61 92.781 28.61 90.8857V90.5714H27.96Z" fill="white"/>
<path d="M37.93 92.6763C37.93 92.6763 40 94.9524 42.77 94.9524C44.01 94.9524 44.97 94.4667 44.97 93.4382C44.97 91.2572 36.4 91.2858 36.4 86.2763C36.4 83.181 39.33 81.7524 42.71 81.7524C44.91 81.7524 48.41 82.4477 48.41 84.9715V86.581H44.84V85.8191C44.84 85.0953 43.69 84.7239 42.8 84.7239C41.37 84.7239 40.38 85.2096 40.38 86.1239C40.38 88.5524 49.01 88.0667 49.01 93.2286C49.01 96.1429 46.3 97.962 42.77 97.962C38.31 97.962 36.02 95.2001 36.02 95.2001L37.93 92.6763Z" fill="white"/>
<path d="M42.77 98.0095C38.34 98.0095 36 95.2572 35.98 95.2286L35.96 95.2L37.93 92.6L37.97 92.6476C37.99 92.6667 40.06 94.9048 42.78 94.9048C44.13 94.9048 44.93 94.3524 44.93 93.4381C44.93 92.6 43.56 92.0762 41.97 91.4667C39.47 90.5143 36.36 89.3238 36.36 86.2762C36.36 84.8191 37.02 83.6191 38.27 82.8191C39.4 82.0952 40.93 81.7143 42.72 81.7143C44.86 81.7143 48.47 82.4 48.47 84.981V86.6381H44.8V85.8286C44.8 85.1143 43.61 84.781 42.81 84.781C41.33 84.781 40.44 85.2857 40.44 86.1333C40.44 87.0857 41.87 87.5905 43.53 88.181C46 89.0572 49.07 90.1429 49.07 93.2286C49.06 96.0381 46.47 98.0095 42.77 98.0095ZM36.08 95.2C36.34 95.4857 38.63 97.9143 42.77 97.9143C46.42 97.9143 48.96 95.9905 48.96 93.2286C48.96 90.2 45.92 89.1238 43.48 88.2667C41.79 87.6667 40.32 87.1524 40.32 86.1333C40.32 85.2286 41.24 84.6857 42.79 84.6857C43.66 84.6857 44.88 85.0381 44.88 85.8286V86.5429H48.35V84.9714C48.35 82.4667 44.8 81.8 42.7 81.8C39.67 81.8 36.44 82.9714 36.44 86.2762C36.44 89.2572 39.52 90.4381 41.99 91.381C43.68 92.0286 45.01 92.5333 45.01 93.4381C45.01 94.4191 44.17 95 42.76 95C40.21 95 38.23 93.0762 37.92 92.7524L36.08 95.2Z" fill="white"/>
<path d="M54.04 100.724C55.16 100.724 56.14 100.086 56.72 98.7523L57.26 97.5714L51.84 85.9523C51.65 85.4952 51.43 85.4095 50.98 85.4095H50.5V82.1333H53.18C54.33 82.1333 54.9 82.5238 55.31 83.5904L58.5 91.3238C58.82 92.1143 59.07 93.3904 59.07 93.3904H59.13C59.13 93.3904 59.38 92.1143 59.67 91.3238L62.44 83.5904C62.82 82.5333 63.49 82.1333 64.61 82.1333H67.35V85.4095H66.87C66.39 85.4095 66.14 85.5047 65.95 85.9523L60.12 99.9428C58.97 102.733 56.68 103.981 54.26 103.981C51.71 103.981 50.15 102.4 50.15 102.4L51.71 99.6666C51.72 99.6571 52.7 100.724 54.04 100.724Z" fill="white"/>
<path d="M54.27 104.01C51.73 104.01 50.14 102.429 50.12 102.419L50.1 102.39L51.71 99.5714L51.76 99.619C51.77 99.6286 52.75 100.667 54.05 100.667C55.21 100.667 56.14 99.9809 56.68 98.7238L57.21 97.5619L51.8 85.9619C51.61 85.5143 51.41 85.4476 50.99 85.4476H50.46V82.0762H53.19C54.36 82.0762 54.95 82.4762 55.37 83.5619L58.56 91.2952C58.83 91.9619 59.06 92.9905 59.12 93.2857C59.18 92.9905 59.4 91.9619 59.65 91.2952L62.42 83.5619C62.8 82.5143 63.46 82.0762 64.63 82.0762H67.42V85.4476H66.89C66.43 85.4476 66.2 85.5238 66.01 85.9619L60.18 99.9524C59.11 102.533 56.96 104.01 54.27 104.01ZM50.22 102.381C50.43 102.581 51.95 103.924 54.27 103.924C56.92 103.924 59.04 102.467 60.09 99.9143L65.92 85.9238C66.12 85.4381 66.41 85.3524 66.89 85.3524H67.32V82.1714H64.63C63.49 82.1714 62.88 82.5809 62.51 83.6L59.74 91.3333C59.46 92.1143 59.2 93.3809 59.2 93.3905L59.19 93.4286H59.04L59.03 93.3905C59.03 93.3809 58.77 92.1143 58.46 91.3333L55.27 83.6C54.86 82.5619 54.3 82.1714 53.18 82.1714H50.55V85.3524H50.98C51.43 85.3524 51.68 85.4381 51.89 85.9238L57.31 97.5619L57.3 97.5809L56.76 98.7619C56.21 100.057 55.24 100.762 54.04 100.762C52.86 100.762 51.94 99.9428 51.73 99.7333L50.22 102.381Z" fill="white"/>
<path d="M79.3 79.419H77.23V76.0476H87.01C91.09 76.0476 94.02 78.0476 94.02 81.6C94.02 84 92.65 85.5428 91.28 86.2095V86.2667C93.73 86.9619 94.91 89.1524 94.91 91.3333C94.91 95.6381 91.31 97.5809 87.1 97.5809H81.46C79.96 97.5809 79.29 96.9714 79.29 95.5143V79.419H79.3ZM87.04 84.8476C88.79 84.8476 89.78 83.6381 89.78 82.0857C89.78 80.5428 88.82 79.419 86.98 79.419H83.48V84.8476H87.04ZM84.18 94.2286H87.43C89.47 94.2286 90.62 92.9238 90.62 91.1047C90.62 89.3143 89.44 88.0095 87.43 88.0095H83.48V93.5619C83.48 93.9809 83.73 94.2286 84.18 94.2286Z" fill="white"/>
<path d="M87.11 97.6381H81.47C79.94 97.6381 79.25 96.9905 79.25 95.5238V79.4667H77.18V76H87.01C91.3 76 94.07 78.2 94.07 81.6C94.07 84.019 92.66 85.581 91.33 86.2381C93.54 86.8857 94.96 88.8857 94.96 91.3429C94.96 95.9905 90.91 97.6381 87.11 97.6381ZM77.28 79.3714H79.35V95.5333C79.35 96.9429 79.98 97.5524 81.47 97.5524H87.11C90.86 97.5524 94.87 95.9238 94.87 91.3524C94.87 88.9238 93.46 86.9524 91.27 86.3333L91.23 86.3238V86.2L91.26 86.1905C92.57 85.5524 93.97 84.019 93.97 81.619C93.97 78.2762 91.24 76.1143 87.01 76.1143H77.28V79.3714ZM87.43 94.2762H84.18C83.71 94.2762 83.43 94.0095 83.43 93.5619V87.9619H87.43C89.4 87.9619 90.67 89.1905 90.67 91.1048C90.66 93.0286 89.39 94.2762 87.43 94.2762ZM83.53 88.0571V93.5619C83.53 93.9619 83.76 94.181 84.18 94.181H87.43C89.36 94.181 90.57 93 90.57 91.1048C90.57 89.2571 89.34 88.0571 87.43 88.0571H83.53ZM87.04 84.8952H83.42V79.3714H86.97C88.73 79.3714 89.82 80.4095 89.82 82.0857C89.83 83.7714 88.71 84.8952 87.04 84.8952ZM83.53 84.8H87.05C88.66 84.8 89.74 83.7048 89.74 82.0857C89.74 80.4667 88.68 79.4667 86.99 79.4667H83.53V84.8Z" fill="white"/>
<path d="M106.92 87.8857H107.43V87.7619C107.43 85.5429 106.51 84.7238 104.43 84.7238C103.7 84.7238 102.26 84.9048 102.26 85.7524V86.5714H98.5V84.9333C98.5 82.0476 102.77 81.7429 104.46 81.7429C109.88 81.7429 111.47 84.4476 111.47 87.9048V93.6667C111.47 94.0952 111.72 94.3333 112.17 94.3333H113.44V97.581H109.81C108.31 97.581 107.74 96.7905 107.74 95.8857C107.74 95.4952 107.77 95.219 107.77 95.219H107.71C107.71 95.219 106.47 97.9524 102.8 97.9524C99.9 97.9524 97.26 96.219 97.26 93.1238C97.27 88.2762 104.28 87.8857 106.92 87.8857ZM103.8 94.9524C105.97 94.9524 107.5 92.7714 107.5 90.8857V90.5238H106.8C104.7 90.5238 101.35 90.8 101.35 92.9524C101.35 93.981 102.14 94.9524 103.8 94.9524Z" fill="white"/>
<path d="M102.81 98.0095C100.03 98.0095 97.22 96.3333 97.22 93.1333C97.22 88.3524 104.01 87.8381 106.92 87.8381H107.38V87.7619C107.38 85.6381 106.53 84.7714 104.43 84.7714C103.64 84.7714 102.31 84.981 102.31 85.7524V86.6191H98.45V84.9333C98.45 81.9333 103.05 81.6953 104.46 81.6953C109.21 81.6953 111.52 83.7238 111.52 87.9048V93.6667C111.52 94.0667 111.75 94.2857 112.17 94.2857H113.49V97.6286H109.81C108.48 97.6286 107.69 96.9714 107.69 95.8857C107.69 95.6381 107.7 95.4381 107.71 95.3238C107.47 95.7905 106.1 98.0095 102.81 98.0095ZM106.92 87.9333C104.03 87.9333 97.32 88.4381 97.32 93.1333C97.32 96.2667 100.08 97.9143 102.81 97.9143C106.4 97.9143 107.66 95.2381 107.67 95.2095L107.68 95.181H107.83L107.82 95.2381C107.82 95.2381 107.79 95.5143 107.79 95.9048C107.79 96.9524 108.53 97.5524 109.81 97.5524H113.39V94.4H112.17C111.7 94.4 111.42 94.1333 111.42 93.6857V87.9238C111.42 83.8095 109.14 81.8095 104.46 81.8095C103.07 81.8095 98.55 82.0381 98.55 84.9524V86.5429H102.21V85.7714C102.21 84.7238 104.2 84.6953 104.43 84.6953C106.59 84.6953 107.47 85.5905 107.47 87.781V87.9524H106.92V87.9333ZM103.8 95C102.07 95 101.3 93.9714 101.3 92.9524C101.3 91.3143 103.15 90.4762 106.8 90.4762H107.55V90.8857C107.54 92.8286 105.94 95 103.8 95ZM106.79 90.5714C103.21 90.5714 101.39 91.3714 101.39 92.9524C101.39 93.9238 102.13 94.9048 103.79 94.9048C105.88 94.9048 107.44 92.781 107.44 90.8857V90.5714H106.79Z" fill="white"/>
<path d="M116.7 86.0667C116.7 85.6095 116.45 85.4 116 85.4H114.73V82.1238H118.46C119.89 82.1238 120.59 82.7619 120.59 83.8571V84.3143C120.59 84.6476 120.53 84.9809 120.53 84.9809H120.59C121.29 83.6762 123.04 81.7619 126.33 81.7619C129.93 81.7619 132 83.5524 132 87.6476V93.6857C132 94.1143 132.25 94.3524 132.7 94.3524H133.97V97.6H130.11C128.58 97.6 127.94 96.9905 127.94 95.5333V88.4286C127.94 86.5429 127.43 85.2762 125.39 85.2762C123.22 85.2762 121.6 86.5809 121.02 88.4286C120.8 89.0667 120.7 89.7619 120.7 90.4952V97.5905H116.69V86.0667H116.7Z" fill="white"/>
<path d="M134.02 97.6381H130.11C128.56 97.6381 127.89 97.0095 127.89 95.5238V88.4191C127.89 86.2381 127.14 85.3143 125.39 85.3143C123.32 85.3143 121.67 86.5143 121.07 88.4381C120.86 89.0381 120.75 89.7333 120.75 90.4857V97.6286H116.64V86.0667C116.64 85.6572 116.42 85.4476 115.99 85.4476H114.67V82.0762H118.45C119.88 82.0762 120.63 82.6952 120.63 83.8572V84.3143C120.63 84.5333 120.6 84.7429 120.59 84.8667C121.07 84.0191 122.71 81.7143 126.32 81.7143C130.12 81.7143 132.04 83.7143 132.04 87.6476V93.6857C132.04 94.0857 132.27 94.3048 132.69 94.3048H134.01V97.6381H134.02ZM125.4 85.2286C127.69 85.2286 128 86.8476 128 88.4286V95.5333C128 96.9619 128.61 97.5524 130.12 97.5524H133.92V94.4H132.7C132.23 94.4 131.95 94.1333 131.95 93.6857V87.6476C131.95 83.7714 130.06 81.8095 126.33 81.8095C122.64 81.8095 121.04 84.2476 120.64 85L120.63 85.0286H120.48L120.49 84.9714C120.49 84.9714 120.55 84.6381 120.55 84.3143V83.8572C120.55 82.7524 119.83 82.1714 118.47 82.1714H114.79V85.3524H116.01C116.5 85.3524 116.76 85.6 116.76 86.0667V97.5429H120.68V90.4952C120.68 89.7238 120.79 89.0286 121 88.4191C121.59 86.4476 123.28 85.2286 125.4 85.2286Z" fill="white"/>
<path d="M137.05 80C137.05 79.5428 136.8 79.3333 136.35 79.3333H135.08V76.0571H138.94C140.44 76.0571 141.11 76.3905 141.11 77.819V87.5905H142.32C142.83 87.5905 143.5 87.4952 143.85 87.0095L147.16 82.1238H151.65L147.54 87.9524C146.84 88.9238 146.33 89.1619 146.33 89.1619V89.219C146.33 89.219 146.9 89.4286 147.48 90.4286L149.33 93.7619C149.58 94.219 149.9 94.3428 150.67 94.3428H151.75V97.5905H148.75C147.38 97.5905 146.84 97.3809 146.2 96.2571L143.49 91.4C143.17 90.8571 142.5 90.819 141.99 90.819H141.1V97.5809H137.05V80V80Z" fill="white"/>
<path d="M151.79 97.6381H148.75C147.38 97.6381 146.82 97.4381 146.16 96.2762L143.45 91.419C143.15 90.9143 142.54 90.8667 142 90.8667H141.16V97.6286H137.01V80C137.01 79.5905 136.79 79.381 136.36 79.381H135.04V76.0095H138.95C140.39 76.0095 141.17 76.2952 141.17 77.819V87.5429H142.33C143.05 87.5429 143.55 87.3524 143.82 86.9905L147.15 82.0857H151.76L151.71 82.1619L147.6 87.9905C146.98 88.8476 146.52 89.1429 146.4 89.2095C146.53 89.2667 147.03 89.5429 147.54 90.4286L149.39 93.7619C149.63 94.1905 149.92 94.3143 150.68 94.3143H151.81V97.6381H151.79ZM141.05 90.781H141.99C142.41 90.781 143.18 90.781 143.53 91.381L146.24 96.2381C146.88 97.3619 147.42 97.5524 148.74 97.5524H151.69V94.4H150.66C149.86 94.4 149.54 94.2571 149.28 93.8L147.43 90.4667C146.87 89.4952 146.31 89.2762 146.31 89.2762L146.28 89.2667V89.1429L146.31 89.1333C146.31 89.1333 146.82 88.8857 147.5 87.9333L151.56 82.1809H147.19L143.89 87.0476C143.6 87.4476 143.07 87.6476 142.32 87.6476H141.06V77.8095C141.06 76.3619 140.35 76.0952 138.94 76.0952H135.13V79.2762H136.35C136.84 79.2762 137.1 79.5238 137.1 79.9905V97.5429H141.05V90.781Z" fill="white"/>
<path d="M90.96 64.1524H60.4C50.24 64.1524 42 56.3048 42 46.6286V17.5238C42 7.84762 50.24 0 60.4 0H90.96C101.12 0 109.36 7.84762 109.36 17.5238V46.6286C109.36 56.3048 101.12 64.1524 90.96 64.1524Z" fill="#010222"/>
<path d="M67.07 50.3238C67.07 51.8286 65.79 53.0571 64.21 53.0571L62.08 53.0667H61.48C53.98 53.0571 47.84 47.2 47.84 40.0571V36.9714C47.76 28.3714 54.63 21.9048 63.01 21.9048H63.21H63.53C66.53 21.9048 69.48 22.6191 72.11 23.9714C72.98 24.4191 73.75 25.0191 74.4 25.7333C74.53 25.8762 74.77 25.7905 74.77 25.6V22.381V21.2667C74.76 16.4762 78.85 12.5905 83.88 12.6191L88.05 12.6381L91.46 12.6667C96.07 12.7048 99.78 16.2762 99.78 20.6571V23.2095C99.78 24.7143 99.15 26.1619 98.03 27.2286C97.94 27.3143 97.95 27.4667 98.06 27.5333L98.95 28.1333C101.82 30.0571 103.53 33.2 103.53 36.5429V36.8381C103.53 41.2476 100.75 45.1333 96.63 46.8095C95.59 47.2381 94.47 47.4667 93.35 47.5333L93.19 47.5429C93.12 47.5429 93.06 47.5524 92.99 47.5524H87.26C85.67 47.5524 84.38 46.3238 84.38 44.8095C84.38 43.2952 85.67 42.0571 87.27 42.0667L92.08 42.0762C92.09 42.0762 92.09 42.0762 92.1 42.0762C95.32 41.8857 97.88 39.6191 97.88 36.581V36.0095C97.88 33.2952 95.57 31.0952 92.73 31.0857L87.27 31.0667C85.68 31.0571 84.4 29.8381 84.4 28.3238C84.4 26.8095 85.69 25.581 87.28 25.581H91.76C93.55 25.581 95 24.2 95 22.4952V21.3429C95 19.6381 93.55 18.2571 91.76 18.2571H82.49C81.42 18.2571 80.56 19.0857 80.56 20.1048L80.63 37.7238C80.64 39.1048 79.46 40.2191 78.02 40.2286L58.44 40.2476C56.85 40.2476 55.55 39.0191 55.55 37.5048C55.55 35.9905 56.84 34.7619 58.43 34.7619H73.86L73.58 34.0476C72.06 30.1619 67.27 27.181 62.92 27.4191C59.23 27.6191 55.92 29.7429 54.47 32.981C53.94 34.1619 53.65 35.4476 53.66 36.7524L53.67 39.3619C53.69 43.981 57.66 47.6857 62.5 47.6286L63.11 47.6191L64.18 47.6095C65.76 47.5714 67.07 48.8 67.07 50.3238Z" fill="url(#paint0_linear_9_70)"/>
<defs>
<linearGradient id="paint0_linear_9_70" x1="51.1733" y1="49.038" x2="100.238" y2="19.2942" gradientUnits="userSpaceOnUse">
<stop stop-color="#5C1E55"/>
<stop offset="1" stop-color="#D2462F"/>
</linearGradient>
</defs>
</svg>
