<?xml version="1.0" encoding="utf-8"?>
<!-- Generator: Adobe Illustrator 26.0.3, SVG Export Plug-In . SVG Version: 6.00 Build 0)  -->
<svg version="1.1" id="Camada_1" xmlns="http://www.w3.org/2000/svg" xmlns:xlink="http://www.w3.org/1999/xlink" x="0px" y="0px"
	 viewBox="0 0 300 68" style="enable-background:new 0 0 300 68;" xml:space="preserve">
<style type="text/css">
	.st0{fill:#FFFFFF;}
	.st1{fill:#010222;}
	.st2{fill:url(#SVGID_1_);}
</style>
<g>
	<g>
		<g>
			<path class="st0" d="M117.2,27.57h-2.07v-3.54h13.67c1.5,0,2.17,0.67,2.17,2.17v3.44h-3.79v-1.37c0-0.45-0.25-0.7-0.7-0.7h-5.1
				v5.93h7.33v3.54h-7.33v5.38c0,0.45,0.25,0.7,0.7,0.7h5.23c0.45,0,0.7-0.25,0.7-0.7v-1.37h3.79v3.44c0,1.53-0.67,2.17-2.17,2.17
				h-10.26c-1.53,0-2.17-0.64-2.17-2.17V27.57z"/>
			<path class="st0" d="M129.63,46.7h-10.26c-1.55,0-2.22-0.66-2.22-2.22V27.62h-2.07v-3.64h13.72c1.53,0,2.22,0.68,2.22,2.22v3.49
				h-3.89v-1.42c0-0.42-0.23-0.65-0.65-0.65h-5.05v5.83h7.33v3.64h-7.33v5.33c0,0.42,0.23,0.65,0.65,0.65h5.23
				c0.42,0,0.65-0.23,0.65-0.65V41h3.89v3.49C131.85,46.02,131.16,46.7,129.63,46.7z M115.18,27.52h2.07v16.97
				c0,1.5,0.61,2.12,2.12,2.12h10.26c1.48,0,2.12-0.63,2.12-2.12V41.1h-3.69v1.32c0,0.47-0.28,0.75-0.75,0.75h-5.23
				c-0.47,0-0.75-0.28-0.75-0.75v-5.43h7.33v-3.44h-7.33v-6.03h5.15c0.48,0,0.75,0.27,0.75,0.75v1.32h3.69V26.2
				c0-1.46-0.65-2.12-2.12-2.12h-13.62V27.52z"/>
		</g>
		<g>
			<path class="st0" d="M143.17,36.46h0.51v-0.13c0-2.33-0.92-3.19-3-3.19c-0.73,0-2.17,0.19-2.17,1.08v0.86h-3.76v-1.72
				c0-3.03,4.27-3.35,5.96-3.35c5.42,0,7.01,2.84,7.01,6.47v6.05c0,0.45,0.25,0.7,0.7,0.7h1.27v3.41h-3.63
				c-1.5,0-2.07-0.83-2.07-1.78c0-0.41,0.03-0.7,0.03-0.7h-0.06c0,0-1.24,2.87-4.91,2.87c-2.9,0-5.54-1.82-5.54-5.07
				C133.51,36.87,140.52,36.46,143.17,36.46z M140.04,43.88c2.17,0,3.7-2.29,3.7-4.27v-0.38h-0.7c-2.1,0-5.45,0.29-5.45,2.55
				C137.59,42.86,138.39,43.88,140.04,43.88z"/>
			<path class="st0" d="M139.06,47.09c-2.78,0-5.59-1.76-5.59-5.12c0-5.02,6.79-5.56,9.7-5.56h0.46v-0.08
				c0-2.23-0.85-3.14-2.95-3.14c-0.79,0-2.12,0.22-2.12,1.03v0.91h-3.86v-1.77c0-3.15,4.6-3.4,6.01-3.4c4.75,0,7.06,2.13,7.06,6.52
				v6.05c0,0.42,0.23,0.65,0.65,0.65h1.32v3.51h-3.68c-1.91,0-2.12-1.28-2.12-1.83c0-0.26,0.01-0.47,0.02-0.6
				C143.72,44.75,142.35,47.09,139.06,47.09z M143.17,36.51c-2.89,0-9.6,0.53-9.6,5.46c0,3.29,2.76,5.02,5.49,5.02
				c3.59,0,4.85-2.81,4.86-2.84l0.01-0.03h0.15l-0.01,0.06c0,0-0.03,0.29-0.03,0.7c0,1.1,0.74,1.73,2.02,1.73h3.58V43.3h-1.22
				c-0.47,0-0.75-0.28-0.75-0.75v-6.05c0-4.32-2.28-6.42-6.96-6.42c-1.39,0-5.91,0.24-5.91,3.3v1.67h3.66v-0.81
				c0-1.1,1.99-1.13,2.22-1.13c2.16,0,3.04,0.94,3.04,3.24v0.18H143.17z M140.04,43.93c-1.73,0-2.5-1.08-2.5-2.15
				c0-1.72,1.85-2.6,5.5-2.6h0.75v0.43C143.79,41.65,142.19,43.93,140.04,43.93z M143.04,39.28c-3.58,0-5.4,0.84-5.4,2.5
				c0,1.02,0.74,2.05,2.4,2.05c2.09,0,3.65-2.23,3.65-4.22v-0.33H143.04z"/>
		</g>
		<g>
			<path class="st0" d="M153.01,41.49c0,0,2.07,2.39,4.84,2.39c1.24,0,2.2-0.51,2.2-1.59c0-2.29-8.57-2.26-8.57-7.52
				c0-3.25,2.93-4.75,6.31-4.75c2.2,0,5.7,0.73,5.7,3.38v1.69h-3.57v-0.8c0-0.76-1.15-1.15-2.04-1.15c-1.43,0-2.42,0.51-2.42,1.47
				c0,2.55,8.63,2.04,8.63,7.46c0,3.06-2.71,4.97-6.24,4.97c-4.46,0-6.75-2.9-6.75-2.9L153.01,41.49z"/>
			<path class="st0" d="M157.85,47.09c-4.43,0-6.77-2.89-6.79-2.92l-0.02-0.03l1.97-2.73l0.04,0.05c0.02,0.02,2.09,2.37,4.81,2.37
				c1.35,0,2.15-0.58,2.15-1.54c0-0.88-1.37-1.43-2.96-2.07c-2.5-1-5.61-2.25-5.61-5.45c0-1.53,0.66-2.79,1.91-3.63
				c1.13-0.76,2.66-1.16,4.45-1.16c2.14,0,5.75,0.72,5.75,3.43v1.74h-3.67v-0.85c0-0.75-1.19-1.1-1.99-1.1
				c-1.48,0-2.37,0.53-2.37,1.42c0,1,1.43,1.53,3.09,2.15c2.47,0.92,5.54,2.06,5.54,5.3C164.14,45.02,161.55,47.09,157.85,47.09z
				 M151.16,44.14c0.26,0.3,2.55,2.85,6.69,2.85c3.65,0,6.19-2.02,6.19-4.92c0-3.18-3.04-4.31-5.48-5.21
				c-1.69-0.63-3.16-1.17-3.16-2.24c0-0.95,0.92-1.52,2.47-1.52c0.87,0,2.09,0.37,2.09,1.2v0.75h3.47V33.4
				c0-2.63-3.55-3.33-5.65-3.33c-3.03,0-6.26,1.23-6.26,4.7c0,3.13,3.08,4.37,5.55,5.36c1.69,0.68,3.02,1.21,3.02,2.16
				c0,1.03-0.84,1.64-2.25,1.64c-2.55,0-4.53-2.02-4.84-2.36L151.16,44.14z"/>
		</g>
		<g>
			<path class="st0" d="M169.12,49.94c1.12,0,2.1-0.67,2.68-2.07l0.54-1.24l-5.42-12.2c-0.19-0.48-0.41-0.57-0.86-0.57h-0.48v-3.44
				h2.68c1.15,0,1.72,0.41,2.13,1.53l3.19,8.12c0.32,0.83,0.57,2.17,0.57,2.17h0.06c0,0,0.25-1.34,0.54-2.17l2.77-8.12
				c0.38-1.11,1.05-1.53,2.17-1.53h2.74v3.44h-0.48c-0.48,0-0.73,0.1-0.92,0.57l-5.83,14.69c-1.15,2.93-3.44,4.24-5.86,4.24
				c-2.55,0-4.11-1.66-4.11-1.66l1.56-2.87C166.8,48.82,167.78,49.94,169.12,49.94z"/>
			<path class="st0" d="M169.35,53.39c-2.54,0-4.13-1.66-4.15-1.67l-0.02-0.03l1.61-2.96l0.05,0.05c0.01,0.01,0.99,1.1,2.29,1.1
				c1.16,0,2.09-0.72,2.63-2.04l0.53-1.22l-5.41-12.18c-0.19-0.47-0.39-0.54-0.81-0.54h-0.53v-3.54h2.73c1.17,0,1.76,0.42,2.18,1.56
				l3.19,8.12c0.27,0.7,0.5,1.78,0.56,2.09c0.06-0.31,0.28-1.39,0.53-2.09l2.77-8.12c0.38-1.1,1.04-1.56,2.21-1.56h2.79v3.54h-0.53
				c-0.46,0-0.69,0.08-0.88,0.54l-5.83,14.69C174.19,51.84,172.04,53.39,169.35,53.39z M165.3,51.68c0.21,0.21,1.73,1.62,4.05,1.62
				c2.65,0,4.77-1.53,5.82-4.21l5.83-14.69c0.2-0.51,0.49-0.6,0.97-0.6h0.43v-3.34h-2.69c-1.14,0-1.75,0.43-2.12,1.5l-2.77,8.12
				c-0.28,0.82-0.54,2.15-0.54,2.16l-0.01,0.04h-0.15l-0.01-0.04c0-0.01-0.26-1.34-0.57-2.16l-3.19-8.12
				c-0.41-1.09-0.97-1.5-2.09-1.5h-2.63v3.34h0.43c0.45,0,0.7,0.09,0.91,0.6l5.42,12.22l-0.01,0.02l-0.54,1.24
				c-0.55,1.36-1.52,2.1-2.72,2.1c-1.18,0-2.1-0.86-2.31-1.08L165.3,51.68z"/>
		</g>
		<g>
			<path class="st0" d="M194.38,27.57h-2.07v-3.54h9.78c4.08,0,7.01,2.1,7.01,5.83c0,2.52-1.37,4.14-2.74,4.84v0.06
				c2.45,0.73,3.63,3.03,3.63,5.32c0,4.52-3.6,6.56-7.81,6.56h-5.64c-1.5,0-2.17-0.64-2.17-2.17V27.57z M202.12,33.27
				c1.75,0,2.74-1.27,2.74-2.9c0-1.62-0.96-2.8-2.8-2.8h-3.5v5.7H202.12z M199.26,43.12h3.25c2.04,0,3.19-1.37,3.19-3.28
				c0-1.88-1.18-3.25-3.19-3.25h-3.95v5.83C198.56,42.86,198.81,43.12,199.26,43.12z"/>
			<path class="st0" d="M202.19,46.7h-5.64c-1.53,0-2.22-0.68-2.22-2.22V27.62h-2.07v-3.64h9.83c4.29,0,7.06,2.31,7.06,5.88
				c0,2.54-1.41,4.18-2.74,4.87c2.21,0.68,3.63,2.78,3.63,5.36C210.04,44.97,205.99,46.7,202.19,46.7z M192.36,27.52h2.07v16.97
				c0,1.48,0.63,2.12,2.12,2.12h5.64c3.75,0,7.76-1.71,7.76-6.51c0-2.55-1.41-4.62-3.6-5.27l-0.04-0.01v-0.13l0.03-0.01
				c1.31-0.67,2.71-2.28,2.71-4.8c0-3.51-2.73-5.78-6.96-5.78h-9.73V27.52z M202.51,43.17h-3.25c-0.47,0-0.75-0.28-0.75-0.75v-5.88
				h4c1.97,0,3.24,1.29,3.24,3.3C205.74,41.86,204.47,43.17,202.51,43.17z M198.61,36.64v5.78c0,0.42,0.23,0.65,0.65,0.65h3.25
				c1.93,0,3.14-1.24,3.14-3.23c0-1.94-1.23-3.2-3.14-3.2H198.61z M202.12,33.32h-3.62v-5.8h3.55c1.76,0,2.85,1.09,2.85,2.85
				C204.91,32.14,203.79,33.32,202.12,33.32z M198.61,33.22h3.52c1.61,0,2.69-1.15,2.69-2.85c0-1.7-1.06-2.75-2.75-2.75h-3.46V33.22
				z"/>
		</g>
		<g>
			<path class="st0" d="M222,36.46h0.51v-0.13c0-2.33-0.92-3.19-3-3.19c-0.73,0-2.17,0.19-2.17,1.08v0.86h-3.76v-1.72
				c0-3.03,4.27-3.35,5.96-3.35c5.42,0,7.01,2.84,7.01,6.47v6.05c0,0.45,0.25,0.7,0.7,0.7h1.27v3.41h-3.63
				c-1.5,0-2.07-0.83-2.07-1.78c0-0.41,0.03-0.7,0.03-0.7h-0.06c0,0-1.24,2.87-4.91,2.87c-2.9,0-5.54-1.82-5.54-5.07
				C212.35,36.87,219.36,36.46,222,36.46z M218.88,43.88c2.17,0,3.7-2.29,3.7-4.27v-0.38h-0.7c-2.1,0-5.45,0.29-5.45,2.55
				C216.43,42.86,217.22,43.88,218.88,43.88z"/>
			<path class="st0" d="M217.89,47.09c-2.78,0-5.59-1.76-5.59-5.12c0-5.02,6.79-5.56,9.7-5.56h0.46v-0.08
				c0-2.23-0.85-3.14-2.95-3.14c-0.79,0-2.12,0.22-2.12,1.03v0.91h-3.86v-1.77c0-3.15,4.6-3.4,6.01-3.4c4.75,0,7.06,2.13,7.06,6.52
				v6.05c0,0.42,0.23,0.65,0.65,0.65h1.32v3.51h-3.68c-1.33,0-2.12-0.69-2.12-1.83c0-0.26,0.01-0.47,0.02-0.59
				C222.55,44.76,221.18,47.09,217.89,47.09z M222,36.51c-2.89,0-9.6,0.53-9.6,5.46c0,3.29,2.76,5.02,5.49,5.02
				c3.59,0,4.85-2.81,4.86-2.84l0.01-0.03h0.15l-0.01,0.06c0,0-0.03,0.29-0.03,0.7c0,1.1,0.74,1.73,2.02,1.73h3.58V43.3h-1.22
				c-0.47,0-0.75-0.28-0.75-0.75v-6.05c0-4.32-2.28-6.42-6.96-6.42c-1.39,0-5.91,0.24-5.91,3.3v1.67h3.66v-0.81
				c0-1.1,1.99-1.13,2.22-1.13c2.16,0,3.04,0.94,3.04,3.24v0.18H222z M218.88,43.93c-1.73,0-2.5-1.08-2.5-2.15
				c0-1.72,1.85-2.6,5.5-2.6h0.75v0.43C222.62,41.65,221.02,43.93,218.88,43.93z M221.87,39.28c-3.58,0-5.4,0.84-5.4,2.5
				c0,1.02,0.74,2.05,2.4,2.05c2.09,0,3.65-2.23,3.65-4.22v-0.33H221.87z"/>
		</g>
		<g>
			<path class="st0" d="M231.78,34.55c0-0.48-0.25-0.7-0.7-0.7h-1.27v-3.44h3.73c1.43,0,2.13,0.67,2.13,1.82v0.48
				c0,0.35-0.06,0.7-0.06,0.7h0.06c0.7-1.37,2.45-3.38,5.74-3.38c3.6,0,5.67,1.88,5.67,6.18v6.34c0,0.45,0.25,0.7,0.7,0.7h1.27v3.41
				h-3.86c-1.53,0-2.17-0.64-2.17-2.17v-7.46c0-1.98-0.51-3.31-2.55-3.31c-2.17,0-3.79,1.37-4.37,3.31
				c-0.22,0.67-0.32,1.4-0.32,2.17v7.45h-4.01V34.55z"/>
			<path class="st0" d="M249.1,46.7h-3.91c-1.55,0-2.22-0.66-2.22-2.22v-7.46c0-2.29-0.75-3.26-2.5-3.26
				c-2.07,0-3.72,1.26-4.32,3.28c-0.21,0.63-0.32,1.36-0.32,2.15v7.5h-4.11V34.55c0-0.43-0.22-0.65-0.65-0.65h-1.32v-3.54h3.78
				c1.43,0,2.18,0.65,2.18,1.87v0.48c0,0.23-0.03,0.45-0.04,0.58c0.48-0.89,2.12-3.31,5.73-3.31c3.8,0,5.72,2.1,5.72,6.23v6.34
				c0,0.42,0.23,0.65,0.65,0.65h1.32V46.7z M240.48,33.67c2.29,0,2.6,1.7,2.6,3.36v7.46c0,1.5,0.61,2.12,2.12,2.12H249V43.3h-1.22
				c-0.47,0-0.75-0.28-0.75-0.75v-6.34c0-4.07-1.89-6.13-5.62-6.13c-3.69,0-5.29,2.56-5.69,3.35l-0.01,0.03h-0.15l0.01-0.06
				c0,0,0.06-0.35,0.06-0.69v-0.48c0-1.16-0.72-1.77-2.08-1.77h-3.68v3.34h1.22c0.49,0,0.75,0.26,0.75,0.75V46.6h3.92v-7.4
				c0-0.81,0.11-1.54,0.32-2.18C236.67,34.95,238.36,33.67,240.48,33.67z"/>
		</g>
		<g>
			<path class="st0" d="M252.13,28.18c0-0.48-0.25-0.7-0.7-0.7h-1.27v-3.44h3.86c1.5,0,2.17,0.35,2.17,1.85v10.26h1.21
				c0.51,0,1.18-0.1,1.53-0.61l3.31-5.13h4.49l-4.11,6.12c-0.7,1.02-1.21,1.27-1.21,1.27v0.06c0,0,0.57,0.22,1.15,1.27l1.85,3.5
				c0.25,0.48,0.57,0.61,1.34,0.61h1.08v3.41h-3c-1.37,0-1.91-0.22-2.55-1.4l-2.71-5.1c-0.32-0.57-0.99-0.61-1.5-0.61h-0.89v7.1
				h-4.05V28.18z"/>
			<path class="st0" d="M266.87,46.7h-3.04c-1.37,0-1.93-0.21-2.59-1.43l-2.71-5.1c-0.3-0.53-0.91-0.58-1.45-0.58h-0.84v7.1h-4.15
				V28.18c0-0.43-0.22-0.65-0.65-0.65h-1.32v-3.54h3.91c1.44,0,2.22,0.3,2.22,1.9v10.21h1.16c0.72,0,1.22-0.2,1.49-0.58l3.33-5.15
				h4.61l-0.05,0.08l-4.11,6.12c-0.62,0.9-1.08,1.21-1.2,1.28v0c0.13,0.06,0.63,0.35,1.14,1.28l1.85,3.5
				c0.24,0.45,0.53,0.58,1.29,0.58h1.13V46.7z M256.13,39.5h0.94c0.42,0,1.19,0,1.54,0.63l2.71,5.1c0.64,1.18,1.18,1.38,2.5,1.38
				h2.95V43.3h-1.03c-0.8,0-1.12-0.15-1.38-0.63l-1.85-3.5c-0.56-1.02-1.12-1.25-1.12-1.25l-0.03-0.01v-0.13l0.03-0.01
				c0,0,0.51-0.26,1.19-1.26l4.06-6.04h-4.37l-3.3,5.11c-0.29,0.42-0.82,0.63-1.57,0.63h-1.26V25.88c0-1.52-0.71-1.8-2.12-1.8h-3.81
				v3.34h1.22c0.49,0,0.75,0.26,0.75,0.75V46.6h3.95V39.5z"/>
		</g>
	</g>
</g>
<g>
	<path class="st1" d="M82.97,67.84H52.41c-10.16,0-18.4-8.24-18.4-18.4V18.88c0-10.16,8.24-18.4,18.4-18.4h30.56
		c10.16,0,18.4,8.24,18.4,18.4v30.56C101.37,59.6,93.13,67.84,82.97,67.84z"/>
	<linearGradient id="SVGID_1_" gradientUnits="userSpaceOnUse" x1="43.1833" y1="51.9699" x2="93.5051" y2="22.9166">
		<stop  offset="0" style="stop-color:#870B79"/>
		<stop  offset="1" style="stop-color:#D2462F"/>
	</linearGradient>
	<path class="st2" d="M59.08,53.32c0,1.58-1.28,2.87-2.86,2.87l-2.13,0.01l-0.6,0c-7.5-0.01-13.64-6.16-13.64-13.66V39.3
		c-0.08-9.03,6.79-15.82,15.17-15.82h0.2h0.32c3,0,5.95,0.75,8.58,2.17c0.87,0.47,1.64,1.1,2.29,1.85l0,0
		c0.13,0.15,0.37,0.06,0.37-0.14v-3.38l0-1.17c-0.01-5.03,4.08-9.11,9.11-9.08l4.17,0.02l3.41,0.03c4.61,0.04,8.32,3.79,8.32,8.39
		v2.68c0,1.58-0.63,3.1-1.75,4.22v0c-0.09,0.09-0.08,0.25,0.03,0.32l0.89,0.63c2.87,2.02,4.58,5.32,4.58,8.83v0.31
		c0,4.63-2.78,8.71-6.9,10.47c-1.04,0.45-2.16,0.69-3.28,0.76L85.2,50.4c-0.07,0-0.13,0.01-0.2,0.01h-5.73
		c-1.59,0-2.88-1.29-2.88-2.88v0c0-1.59,1.29-2.89,2.89-2.88l4.81,0.01c0.01,0,0.01,0,0.02,0c3.22-0.2,5.78-2.58,5.78-5.77v-0.6
		c0-2.85-2.31-5.16-5.15-5.17l-5.46-0.02c-1.59-0.01-2.87-1.29-2.87-2.88v0c0-1.59,1.29-2.88,2.88-2.88h4.48
		c1.79,0,3.24-1.45,3.24-3.24v-1.21c0-1.79-1.45-3.24-3.24-3.24h-9.27c-1.07,0-1.93,0.87-1.93,1.94l0.07,18.5
		c0.01,1.45-1.17,2.62-2.61,2.63l-19.58,0.02c-1.59,0-2.89-1.29-2.89-2.88v0c0-1.59,1.29-2.88,2.88-2.88h15.43l-0.28-0.75
		c-1.52-4.08-6.31-7.21-10.66-6.96h0c-3.69,0.21-7,2.44-8.45,5.84c-0.53,1.24-0.82,2.59-0.81,3.96l0.01,2.74
		c0.02,4.85,3.99,8.74,8.83,8.68l0.61-0.01l1.07-0.01C57.77,50.43,59.08,51.72,59.08,53.32L59.08,53.32z"/>
</g>
</svg>
